{
.appVersion = "1342";
DisplayStrings = (
"HH/Phi/Omegatonos HH"
);
classes = (
{
automatic = 1;

glyphs = (
{
glyphname = A;
layers = (
{
anchors = (
{
name = bottom;
position = "{287, 0}";
},
{
name = ogonek;
position = "{521, -4}";
},
{
name = top;
position = "{280, 688}";
}
);
layerId = "60CFBDE8-BC08-4808-BF41-F011F3E03A54";
paths = (
{
closed = 1;
nodes = (
"275 700 OFFCURVE",
"268 698 OFFCURVE",
"260 692 CURVE",
"33 34 LINE SMOOTH",
"31 27 OFFCURVE",
"27 17 OFFCURVE",
"27 10 CURVE SMOOTH",
"26 -1 OFFCURVE",
"34 -8 OFFCURVE",
"45 -8 CURVE SMOOTH",
"51 -8 OFFCURVE",
"55 -8 OFFCURVE",
"61 -6 CURVE",
"59 -2 OFFCURVE",
"59 4 OFFCURVE",
"59 8 CURVE SMOOTH",
"59 14 OFFCURVE",
"62 24 OFFCURVE",
"64 29 CURVE SMOOTH",
"287 686 LINE",
"275 686 LINE",
"508 6 LINE SMOOTH",
"511 -3 OFFCURVE",
"520 -8 OFFCURVE",
"530 -8 CURVE SMOOTH",
"536 -8 OFFCURVE",
"541 -6 OFFCURVE",
"547 1 CURVE",
"542 7 OFFCURVE",
"536 18 OFFCURVE",
"531 31 CURVE SMOOTH",
"307 683 LINE SMOOTH",
"303 694 OFFCURVE",
"294 700 OFFCURVE",
"282 700 CURVE SMOOTH"
);
},
{
closed = 1;
nodes = (
"130 234 LINE",
"435 234 LINE",
"435 260 LINE",
"130 260 LINE"
);
}
);
width = 562;
},
{
anchors = (
{
name = bottom;
position = "{335, 0}";
},
{
name = ogonek;
position = "{571, -13}";
},
{
name = top;
position = "{340, 698}";
}
);
layerId = "EBFFFCD3-BAE4-48A5-9442-B72A90AD34A8";
paths = (
{
closed = 1;
nodes = (
"324 713 OFFCURVE",
"285 707 OFFCURVE",
"245 694 CURVE",
"51 115 LINE SMOOTH",
"42 87 OFFCURVE",
"37 61 OFFCURVE",
"37 44 CURVE SMOOTH",
"37 3 OFFCURVE",
"61 -14 OFFCURVE",
"115 -14 CURVE SMOOTH",
"150 -14 OFFCURVE",
"171 -7 OFFCURVE",
"191 1 CURVE",
"184 8 OFFCURVE",
"180 18 OFFCURVE",
"180 34 CURVE SMOOTH",
"180 49 OFFCURVE",
"183 64 OFFCURVE",
"187 80 CURVE SMOOTH",
"331 657 LINE",
"317 660 LINE",
"479 40 LINE SMOOTH",
"487 4 OFFCURVE",
"520 -14 OFFCURVE",
"563 -14 CURVE SMOOTH",
"609 -14 OFFCURVE",
"633 3 OFFCURVE",
"645 17 CURVE",
"628 35 OFFCURVE",
"617 65 OFFCURVE",
"612 82 CURVE SMOOTH",
"438 668 LINE SMOOTH",
"428 704 OFFCURVE",
"396 713 OFFCURVE",
"363 713 CURVE SMOOTH"
);
},
{
closed = 1;
nodes = (
"181 203 LINE",
"513 203 LINE",
"513 277 LINE",
"181 277 LINE"
);
}
);
width = 648;
}
);
leftKerningGroup = A;
rightKerningGroup = A;
unicode = 0041;
},
{
glyphname = AE;
layers = (
{
anchors = (
{
name = bottom;
position = "{194, 0}";
},
{
name = ogonek;
position = "{403, -4}";
},
{
name = top;
position = "{194, 688}";
},
{
name = topleft;
position = "{464, 688}";
}
);
layerId = "60CFBDE8-BC08-4808-BF41-F011F3E03A54";
paths = (
{
closed = 1;
nodes = (
"50 -8 OFFCURVE",
"54 -8 OFFCURVE",
"59 -6 CURVE",
"57 -2 OFFCURVE",
"57 4 OFFCURVE",
"57 8 CURVE SMOOTH",
"57 14 OFFCURVE",
"59 24 OFFCURVE",
"62 29 CURVE",
"386 634 LINE",
"387 624 OFFCURVE",
"387 613 OFFCURVE",
"387 600 CURVE SMOOTH",
"389 22 LINE SMOOTH",
"389 8 OFFCURVE",
"395 0 OFFCURVE",
"406 0 CURVE SMOOTH",
"723 0 LINE SMOOTH",
"735 0 OFFCURVE",
"733 22 OFFCURVE",
"723 26 CURVE",
"621 26 OFFCURVE",
"520 25 OFFCURVE",
"418 25 CURVE",
"416 662 LINE",
"514 662 OFFCURVE",
"612 662 OFFCURVE",
"710 662 CURVE",
"721 665 OFFCURVE",
"727 688 OFFCURVE",
"713 688 CURVE SMOOTH",
"435 688 LINE",
"419 688 OFFCURVE",
"403 688 OFFCURVE",
"387 688 CURVE",
"33 34 LINE SMOOTH",
"29 27 OFFCURVE",
"27 17 OFFCURVE",
"27 10 CURVE",
"26 -1 OFFCURVE",
"34 -8 OFFCURVE",
"45 -8 CURVE SMOOTH"
);
},
{
closed = 1;
nodes = (
"399 234 LINE",
"399 260 LINE",
"166 260 LINE",
"166 234 LINE"
);
},
{
closed = 1;
nodes = (
"691 354 LINE",
"694 363 OFFCURVE",
"694 371 OFFCURVE",
"691 380 CURVE",
"411 380 LINE",
"411 354 LINE"
);
}
);
width = 803;
},
{
anchors = (
{
name = bottom;
position = "{67, 0}";
},
{
name = ogonek;
position = "{316, -13}";
},
{
name = top;
position = "{67, 698}";
},
{
name = topleft;
position = "{390, 698}";
}
);
layerId = "EBFFFCD3-BAE4-48A5-9442-B72A90AD34A8";
paths = (
{
closed = 1;
nodes = (
"155 -14 OFFCURVE",
"175 -7 OFFCURVE",
"195 1 CURVE",
"189 8 OFFCURVE",
"185 18 OFFCURVE",
"185 34 CURVE SMOOTH",
"185 49 OFFCURVE",
"185 64 OFFCURVE",
"192 80 CURVE",
"419 603 LINE",
"424 577 OFFCURVE",
"424 554 OFFCURVE",
"424 533 CURVE SMOOTH",
"425 71 LINE SMOOTH",
"425 26 OFFCURVE",
"459 0 OFFCURVE",
"504 0 CURVE SMOOTH",
"822 0 LINE SMOOTH",
"867 0 OFFCURVE",
"865 103 OFFCURVE",
"830 125 CURVE",
"777 98 OFFCURVE",
"653 69 OFFCURVE",
"564 66 CURVE",
"564 632 LINE",
"649 629 OFFCURVE",
"737 608 OFFCURVE",
"805 576 CURVE",
"842 593 OFFCURVE",
"858 698 OFFCURVE",
"820 698 CURVE SMOOTH",
"538 698 LINE",
"486 698 OFFCURVE",
"392 688 OFFCURVE",
"348 675 CURVE",
"56 115 LINE SMOOTH",
"43 90 OFFCURVE",
"37 71 OFFCURVE",
"37 53 CURVE",
"37 12 OFFCURVE",
"66 -14 OFFCURVE",
"120 -14 CURVE SMOOTH"
);
},
{
closed = 1;
nodes = (
"459 203 LINE",
"459 277 LINE",
"230 277 LINE",
"230 203 LINE"
);
},
{
closed = 1;
nodes = (
"775 324 LINE",
"780 345 OFFCURVE",
"782 373 OFFCURVE",
"775 398 CURVE",
"538 398 LINE",
"538 324 LINE"
);
}
);
width = 895;
}
);
leftKerningGroup = AE;
leftMetricsKey = A;
rightKerningGroup = E;
rightMetricsKey = E;
unicode = 00C6;
},
{
glyphname = B;
layers = (
{
anchors = (
{
name = bottom;
position = "{275, 0}";
},
{
name = top;
position = "{275, 688}";
}
);
layerId = "60CFBDE8-BC08-4808-BF41-F011F3E03A54";
paths = (
{
closed = 1;
nodes = (
"209 0 LINE SMOOTH",
"385 0 OFFCURVE",
"484 31 OFFCURVE",
"484 178 CURVE SMOOTH",
"484 281 OFFCURVE",
"435 340 OFFCURVE",
"329 358 CURVE",
"410 385 OFFCURVE",
"449 447 OFFCURVE",
"449 530 CURVE SMOOTH",
"449 651 OFFCURVE",
"369 700 OFFCURVE",
"205 700 CURVE SMOOTH",
"124 700 OFFCURVE",
"104 689 OFFCURVE",
"101 687 CURVE",
"106 670 OFFCURVE",
"108 609 OFFCURVE",
"108 600 CURVE SMOOTH",
"108 22 LINE",
"109 8 OFFCURVE",
"115 0 OFFCURVE",
"127 0 CURVE SMOOTH"
);
},
{
closed = 1;
nodes = (
"138 672 LINE",
"148 675 OFFCURVE",
"168 676 OFFCURVE",
"195 676 CURVE SMOOTH",
"350 676 OFFCURVE",
"417 639 OFFCURVE",
"417 531 CURVE SMOOTH",
"417 415 OFFCURVE",
"335 370 OFFCURVE",
"254 370 CURVE SMOOTH",
"123 370 LINE",
"130 344 LINE",
"219 344 LINE SMOOTH",
"363 344 OFFCURVE",
"452 308 OFFCURVE",
"452 180 CURVE SMOOTH",
"452 48 OFFCURVE",
"359 28 OFFCURVE",
"220 28 CURVE SMOOTH",
"138 28 LINE"
);
}
);
width = 549;
},
{
anchors = (
{
name = bottom;
position = "{301, 0}";
},
{
name = top;
position = "{301, 698}";
}
);
layerId = "EBFFFCD3-BAE4-48A5-9442-B72A90AD34A8";
paths = (
{
closed = 1;
nodes = (
"276 0 LINE SMOOTH",
"457 0 OFFCURVE",
"562 66 OFFCURVE",
"562 199 CURVE SMOOTH",
"562 303 OFFCURVE",
"495 364 OFFCURVE",
"400 377 CURVE",
"480 398 OFFCURVE",
"528 462 OFFCURVE",
"528 544 CURVE SMOOTH",
"528 665 OFFCURVE",
"424 712 OFFCURVE",
"251 712 CURVE SMOOTH",
"165 712 OFFCURVE",
"105 701 OFFCURVE",
"63 681 CURVE",
"80 636 OFFCURVE",
"83 583 OFFCURVE",
"83 551 CURVE SMOOTH",
"83 71 LINE",
"83 26 OFFCURVE",
"117 0 OFFCURVE",
"163 0 CURVE SMOOTH"
);
},
{
closed = 1;
nodes = (
"223 664 LINE",
"232 664 OFFCURVE",
"242 664 OFFCURVE",
"253 664 CURVE SMOOTH",
"349 664 OFFCURVE",
"380 610 OFFCURVE",
"380 532 CURVE SMOOTH",
"380 451 OFFCURVE",
"349 393 OFFCURVE",
"269 395 CURVE SMOOTH",
"200 395 LINE",
"207 347 LINE",
"272 347 LINE SMOOTH",
"351 347 OFFCURVE",
"410 317 OFFCURVE",
"410 196 CURVE SMOOTH",
"410 113 OFFCURVE",
"373 48 OFFCURVE",
"270 48 CURVE SMOOTH",
"223 48 LINE"
);
}
);
width = 603;
}
);
leftKerningGroup = H;
leftMetricsKey = H;
rightKerningGroup = B;
unicode = 0042;
},
{
glyphname = C;
layers = (
{
anchors = (
{
name = bottom;
position = "{316, 0}";
},
{
name = top;
position = "{319, 688}";
}
);
layerId = "60CFBDE8-BC08-4808-BF41-F011F3E03A54";
paths = (
{
closed = 1;
nodes = (
"516 55 OFFCURVE",
"516 99 CURVE SMOOTH",
"516 112 OFFCURVE",
"505 114 OFFCURVE",
"492 114 CURVE",
"474 53 OFFCURVE",
"392 16 OFFCURVE",
"319 16 CURVE SMOOTH",
"183 16 OFFCURVE",
"102 128 OFFCURVE",
"102 344 CURVE SMOOTH",
"102 560 OFFCURVE",
"183 672 OFFCURVE",
"319 672 CURVE SMOOTH",
"402 672 OFFCURVE",
"458 643 OFFCURVE",
"470 603 CURVE",
"482 598 OFFCURVE",
"495 606 OFFCURVE",
"495 617 CURVE SMOOTH",
"495 654 OFFCURVE",
"425 700 OFFCURVE",
"319 700 CURVE SMOOTH",
"162 700 OFFCURVE",
"70 578 OFFCURVE",
"70 344 CURVE SMOOTH",
"70 110 OFFCURVE",
"162 -12 OFFCURVE",
"319 -12 CURVE SMOOTH",
"429 -12 OFFCURVE"
);
}
);
width = 576;
},
{
anchors = (
{
name = bottom;
position = "{314, 0}";
},
{
name = top;
position = "{337, 698}";
}
);
layerId = "EBFFFCD3-BAE4-48A5-9442-B72A90AD34A8";
paths = (
{
closed = 1;
nodes = (
"584 33 OFFCURVE",
"584 129 CURVE SMOOTH",
"584 184 OFFCURVE",
"522 207 OFFCURVE",
"467 199 CURVE",
"453 86 OFFCURVE",
"408 33 OFFCURVE",
"338 33 CURVE SMOOTH",
"243 33 OFFCURVE",
"201 138 OFFCURVE",
"201 349 CURVE SMOOTH",
"201 560 OFFCURVE",
"244 665 OFFCURVE",
"342 665 CURVE SMOOTH",
"407 665 OFFCURVE",
"445 617 OFFCURVE",
"455 511 CURVE",
"529 510 OFFCURVE",
"567 551 OFFCURVE",
"567 591 CURVE SMOOTH",
"567 670 OFFCURVE",
"448 712 OFFCURVE",
"340 712 CURVE SMOOTH",
"156 712 OFFCURVE",
"47 580 OFFCURVE",
"47 349 CURVE SMOOTH",
"47 118 OFFCURVE",
"152 -14 OFFCURVE",
"330 -14 CURVE SMOOTH",
"453 -14 OFFCURVE"
);
}
);
width = 619;
}
);
leftKerningGroup = O;
leftMetricsKey = O;
rightKerningGroup = C;
unicode = 0043;
},
{
glyphname = D;
layers = (
{
anchors = (
{
name = bottom;
position = "{285, 0}";
},
{
name = center;
position = "{310, 344}";
},
{
name = top;
position = "{303, 688}";
}
);
layerId = "60CFBDE8-BC08-4808-BF41-F011F3E03A54";
paths = (
{
closed = 1;
nodes = (
"295 0 LINE",
"463 0 OFFCURVE",
"559 100 OFFCURVE",
"559 344 CURVE SMOOTH",
"559 588 OFFCURVE",
"463 700 OFFCURVE",
"295 700 CURVE SMOOTH",
"247 700 OFFCURVE",
"153 698 OFFCURVE",
"101 695 CURVE",
"105 679 OFFCURVE",
"107 640 OFFCURVE",
"107 600 CURVE SMOOTH",
"109 22 LINE SMOOTH",
"109 8 OFFCURVE",
"115 0 OFFCURVE",
"126 0 CURVE"
);
},
{
closed = 1;
nodes = (
"136 672 LINE",
"295 672 LINE SMOOTH",
"440 672 OFFCURVE",
"527 570 OFFCURVE",
"527 344 CURVE SMOOTH",
"527 118 OFFCURVE",
"440 28 OFFCURVE",
"295 28 CURVE SMOOTH",
"138 28 LINE"
);
}
);
width = 629;
},
{
anchors = (
{
name = bottom;
position = "{293, 0}";
},
{
name = center;
position = "{323, 349}";
},
{
name = top;
position = "{316, 698}";
}
);
layerId = "EBFFFCD3-BAE4-48A5-9442-B72A90AD34A8";
paths = (
{
closed = 1;
nodes = (
"295 0 LINE",
"491 0 OFFCURVE",
"607 108 OFFCURVE",
"607 359 CURVE SMOOTH",
"607 590 OFFCURVE",
"491 708 OFFCURVE",
"287 708 CURVE SMOOTH",
"218 708 OFFCURVE",
"118 707 OFFCURVE",
"63 699 CURVE",
"80 654 OFFCURVE",
"77 589 OFFCURVE",
"77 551 CURVE SMOOTH",
"78 70 LINE SMOOTH",
"78 27 OFFCURVE",
"109 0 OFFCURVE",
"159 0 CURVE"
);
},
{
closed = 1;
nodes = (
"217 660 LINE",
"287 660 LINE SMOOTH",
"402 660 OFFCURVE",
"453 566 OFFCURVE",
"453 349 CURVE SMOOTH",
"453 128 OFFCURVE",
"402 48 OFFCURVE",
"287 48 CURVE SMOOTH",
"217 48 LINE"
);
}
);
width = 654;
}
);
leftKerningGroup = H;
leftMetricsKey = H;
rightKerningGroup = O;
rightMetricsKey = O;
unicode = 0044;
},
{
glyphname = Eth;
layers = (
{
anchors = (
{
name = bottom;
position = "{285, 0}";
},
{
name = top;
position = "{303, 688}";
}
);
layerId = "60CFBDE8-BC08-4808-BF41-F011F3E03A54";
paths = (
{
closed = 1;
nodes = (
"23 353 OFFCURVE",
"23 344 OFFCURVE",
"27 336 CURVE",
"310 336 LINE",
"314 344 OFFCURVE",
"314 353 OFFCURVE",
"310 361 CURVE",
"27 361 LINE"
);
},
{
closed = 1;
nodes = (
"295 0 LINE",
"463 0 OFFCURVE",
"559 100 OFFCURVE",
"559 344 CURVE SMOOTH",
"559 588 OFFCURVE",
"463 700 OFFCURVE",
"295 700 CURVE SMOOTH",
"247 700 OFFCURVE",
"153 698 OFFCURVE",
"101 695 CURVE",
"105 679 OFFCURVE",
"107 640 OFFCURVE",
"107 600 CURVE SMOOTH",
"109 22 LINE SMOOTH",
"109 8 OFFCURVE",
"115 0 OFFCURVE",
"126 0 CURVE"
);
},
{
closed = 1;
nodes = (
"136 672 LINE",
"295 672 LINE SMOOTH",
"440 672 OFFCURVE",
"527 570 OFFCURVE",
"527 344 CURVE SMOOTH",
"527 118 OFFCURVE",
"440 28 OFFCURVE",
"295 28 CURVE SMOOTH",
"138 28 LINE"
);
}
);
width = 619;
},
{
anchors = (
{
name = bottom;
position = "{293, 0}";
},
{
name = top;
position = "{316, 698}";
}
);
layerId = "EBFFFCD3-BAE4-48A5-9442-B72A90AD34A8";
paths = (
{
closed = 1;
nodes = (
"15 358 OFFCURVE",
"15 342 OFFCURVE",
"21 324 CURVE",
"341 324 LINE",
"346 342 OFFCURVE",
"346 358 OFFCURVE",
"341 375 CURVE",
"21 375 LINE"
);
},
{
closed = 1;
nodes = (
"295 0 LINE",
"491 0 OFFCURVE",
"607 108 OFFCURVE",
"607 359 CURVE SMOOTH",
"607 590 OFFCURVE",
"491 708 OFFCURVE",
"287 708 CURVE SMOOTH",
"218 708 OFFCURVE",
"118 707 OFFCURVE",
"63 699 CURVE",
"80 654 OFFCURVE",
"77 589 OFFCURVE",
"77 551 CURVE SMOOTH",
"78 70 LINE SMOOTH",
"78 27 OFFCURVE",
"109 0 OFFCURVE",
"159 0 CURVE"
);
},
{
closed = 1;
nodes = (
"217 660 LINE",
"287 660 LINE SMOOTH",
"402 660 OFFCURVE",
"453 566 OFFCURVE",
"453 349 CURVE SMOOTH",
"453 128 OFFCURVE",
"402 48 OFFCURVE",
"287 48 CURVE SMOOTH",
"217 48 LINE"
);
}
);
width = 658;
}
);
leftKerningGroup = Eth;
rightKerningGroup = O;
unicode = 00D0;
},
{
glyphname = E;
layers = (
{
anchors = (
{
name = bottom;
position = "{262, 0}";
},
{
name = ogonek;
position = "{378, 2}";
},
{
name = top;
position = "{276, 688}";
},
{
name = topleft;
position = "{20, 688}";
}
);
layerId = "60CFBDE8-BC08-4808-BF41-F011F3E03A54";
paths = (
{
closed = 1;
nodes = (
"443 0 LINE",
"455 0 OFFCURVE",
"453 22 OFFCURVE",
"443 26 CURVE",
"341 26 OFFCURVE",
"240 25 OFFCURVE",
"138 25 CURVE",
"136 662 LINE",
"238 662 OFFCURVE",
"328 662 OFFCURVE",
"430 662 CURVE",
"441 665 OFFCURVE",
"447 688 OFFCURVE",
"433 688 CURVE",
"119 688 LINE SMOOTH",
"110 688 OFFCURVE",
"105 685 OFFCURVE",
"101 680 CURVE",
"105 664 OFFCURVE",
"107 640 OFFCURVE",
"107 600 CURVE SMOOTH",
"109 22 LINE SMOOTH",
"109 8 OFFCURVE",
"115 0 OFFCURVE",
"126 0 CURVE SMOOTH"
);
},
{
closed = 1;
nodes = (
"411 354 LINE",
"414 363 OFFCURVE",
"414 371 OFFCURVE",
"411 380 CURVE",
"131 380 LINE",
"131 354 LINE"
);
}
);
width = 523;
},
{
anchors = (
{
name = bottom;
position = "{278, 0}";
},
{
name = ogonek;
position = "{423, -10}";
},
{
name = top;
position = "{280, 698}";
},
{
name = topleft;
position = "{20, 698}";
}
);
layerId = "EBFFFCD3-BAE4-48A5-9442-B72A90AD34A8";
paths = (
{
closed = 1;
nodes = (
"481 0 LINE",
"526 0 OFFCURVE",
"524 103 OFFCURVE",
"489 125 CURVE",
"436 98 OFFCURVE",
"311 69 OFFCURVE",
"223 66 CURVE",
"222 632 LINE",
"309 629 OFFCURVE",
"395 608 OFFCURVE",
"464 576 CURVE",
"501 593 OFFCURVE",
"517 698 OFFCURVE",
"479 698 CURVE",
"190 698 LINE SMOOTH",
"127 698 OFFCURVE",
"98 693 OFFCURVE",
"63 663 CURVE",
"80 618 OFFCURVE",
"83 572 OFFCURVE",
"83 533 CURVE SMOOTH",
"83 71 LINE SMOOTH",
"83 26 OFFCURVE",
"117 0 OFFCURVE",
"163 0 CURVE SMOOTH"
);
},
{
closed = 1;
nodes = (
"434 324 LINE",
"439 345 OFFCURVE",
"441 373 OFFCURVE",
"434 398 CURVE",
"197 398 LINE",
"197 324 LINE"
);
}
);
width = 554;
}
);
leftKerningGroup = H;
leftMetricsKey = H;
rightKerningGroup = E;
unicode = 0045;
},
{
glyphname = F;
layers = (
{
anchors = (
{
name = bottom;
position = "{253, 0}";
},
{
name = top;
position = "{253, 688}";
}
);
layerId = "60CFBDE8-BC08-4808-BF41-F011F3E03A54";
paths = (
{
closed = 1;
nodes = (
"135 -8 OFFCURVE",
"140 -4 OFFCURVE",
"144 0 CURVE",
"140 16 OFFCURVE",
"138 47 OFFCURVE",
"138 87 CURVE SMOOTH",
"136 662 LINE",
"238 662 OFFCURVE",
"328 662 OFFCURVE",
"430 662 CURVE",
"441 665 OFFCURVE",
"447 688 OFFCURVE",
"433 688 CURVE",
"119 688 LINE SMOOTH",
"110 688 OFFCURVE",
"105 685 OFFCURVE",
"101 680 CURVE",
"105 664 OFFCURVE",
"107 640 OFFCURVE",
"107 600 CURVE SMOOTH",
"109 14 LINE SMOOTH",
"109 0 OFFCURVE",
"115 -8 OFFCURVE",
"126 -8 CURVE SMOOTH"
);
},
{
closed = 1;
nodes = (
"409 346 LINE",
"412 355 OFFCURVE",
"412 363 OFFCURVE",
"409 372 CURVE",
"131 372 LINE",
"131 346 LINE"
);
}
);
width = 505;
},
{
anchors = (
{
name = bottom;
position = "{266.992, 0}";
},
{
name = top;
position = "{267, 698}";
}
);
layerId = "EBFFFCD3-BAE4-48A5-9442-B72A90AD34A8";
paths = (
{
closed = 1;
nodes = (
"202 -15 OFFCURVE",
"231 5 OFFCURVE",
"243 16 CURVE",
"225 60 OFFCURVE",
"223 108 OFFCURVE",
"223 146 CURVE SMOOTH",
"222 632 LINE",
"309 629 OFFCURVE",
"395 608 OFFCURVE",
"464 576 CURVE",
"501 593 OFFCURVE",
"517 698 OFFCURVE",
"479 698 CURVE",
"190 698 LINE SMOOTH",
"127 698 OFFCURVE",
"98 693 OFFCURVE",
"63 663 CURVE",
"80 618 OFFCURVE",
"83 572 OFFCURVE",
"83 533 CURVE SMOOTH",
"83 56 LINE SMOOTH",
"83 12 OFFCURVE",
"117 -15 OFFCURVE",
"163 -15 CURVE SMOOTH"
);
},
{
closed = 1;
nodes = (
"434 322 LINE",
"438 343 OFFCURVE",
"441 371 OFFCURVE",
"434 397 CURVE",
"197 397 LINE",
"197 322 LINE"
);
}
);
width = 534;
}
);
leftKerningGroup = H;
leftMetricsKey = H;
rightKerningGroup = F;
unicode = 0046;
},
{
glyphname = G;
layers = (
{
anchors = (
{
name = bottom;
position = "{322, 0}";
},
{
name = top;
position = "{322, 688}";
}
);
layerId = "60CFBDE8-BC08-4808-BF41-F011F3E03A54";
paths = (
{
closed = 1;
nodes = (
"517 -12 OFFCURVE",
"534 144 OFFCURVE",
"534 218 CURVE SMOOTH",
"534 345 OFFCURVE",
"484 380 OFFCURVE",
"443 380 CURVE SMOOTH",
"425 380 OFFCURVE",
"415 373 OFFCURVE",
"416 359 CURVE",
"467 359 OFFCURVE",
"503 321 OFFCURVE",
"503 220 CURVE SMOOTH",
"503 146 OFFCURVE",
"484 16 OFFCURVE",
"326 16 CURVE SMOOTH",
"180 16 OFFCURVE",
"102 128 OFFCURVE",
"102 344 CURVE SMOOTH",
"102 560 OFFCURVE",
"180 672 OFFCURVE",
"324 672 CURVE SMOOTH",
"398 672 OFFCURVE",
"459 643 OFFCURVE",
"470 603 CURVE",
"484 598 OFFCURVE",
"495 606 OFFCURVE",
"495 619 CURVE SMOOTH",
"495 653 OFFCURVE",
"423 700 OFFCURVE",
"322 700 CURVE SMOOTH",
"160 700 OFFCURVE",
"70 578 OFFCURVE",
"70 343 CURVE SMOOTH",
"70 110 OFFCURVE",
"159 -12 OFFCURVE",
"327 -12 CURVE SMOOTH"
);
}
);
width = 599;
},
{
anchors = (
{
name = bottom;
position = "{345, 0}";
},
{
name = top;
position = "{344, 698}";
}
);
layerId = "EBFFFCD3-BAE4-48A5-9442-B72A90AD34A8";
paths = (
{
closed = 1;
nodes = (
"483 -14 OFFCURVE",
"610 70 OFFCURVE",
"610 257 CURVE SMOOTH",
"610 352 OFFCURVE",
"561 398 OFFCURVE",
"492 398 CURVE SMOOTH",
"457 398 OFFCURVE",
"422 385 OFFCURVE",
"409 357 CURVE",
"460 332 OFFCURVE",
"468 273 OFFCURVE",
"468 222 CURVE SMOOTH",
"468 144 OFFCURVE",
"449 33 OFFCURVE",
"354 33 CURVE SMOOTH",
"247 33 OFFCURVE",
"201 138 OFFCURVE",
"201 349 CURVE SMOOTH",
"201 560 OFFCURVE",
"248 665 OFFCURVE",
"358 665 CURVE SMOOTH",
"419 665 OFFCURVE",
"455 617 OFFCURVE",
"465 511 CURVE",
"539 510 OFFCURVE",
"577 551 OFFCURVE",
"577 592 CURVE SMOOTH",
"577 669 OFFCURVE",
"460 712 OFFCURVE",
"356 712 CURVE SMOOTH",
"162 712 OFFCURVE",
"47 580 OFFCURVE",
"47 349 CURVE SMOOTH",
"47 118 OFFCURVE",
"157 -14 OFFCURVE",
"346 -14 CURVE SMOOTH"
);
}
);
width = 656;
}
);
leftKerningGroup = O;
leftMetricsKey = O;
rightKerningGroup = G;
unicode = 0047;
},
{
glyphname = H;
layers = (
{
anchors = (
{
name = bottom;
position = "{342, 0}";
},
{
name = center;
position = "{331, 344}";
},
{
name = top;
position = "{331, 688}";
},
{
name = topleft;
position = "{20, 688}";
}
);
layerId = "60CFBDE8-BC08-4808-BF41-F011F3E03A54";
paths = (
{
closed = 1;
nodes = (
"138 673 LINE SMOOTH",
"138 687 OFFCURVE",
"130 695 OFFCURVE",
"119 695 CURVE SMOOTH",
"110 695 OFFCURVE",
"105 691 OFFCURVE",
"101 687 CURVE",
"105 671 OFFCURVE",
"107 640 OFFCURVE",
"107 600 CURVE SMOOTH",
"109 14 LINE SMOOTH",
"109 0 OFFCURVE",
"115 -8 OFFCURVE",
"126 -8 CURVE SMOOTH",
"135 -8 OFFCURVE",
"140 -4 OFFCURVE",
"144 0 CURVE",
"140 16 OFFCURVE",
"138 47 OFFCURVE",
"138 87 CURVE SMOOTH"
);
},
{
closed = 1;
nodes = (
"555 673 LINE SMOOTH",
"555 687 OFFCURVE",
"547 695 OFFCURVE",
"536 695 CURVE SMOOTH",
"527 695 OFFCURVE",
"522 691 OFFCURVE",
"518 687 CURVE",
"522 671 OFFCURVE",
"524 640 OFFCURVE",
"524 600 CURVE SMOOTH",
"526 14 LINE SMOOTH",
"526 0 OFFCURVE",
"532 -8 OFFCURVE",
"543 -8 CURVE SMOOTH",
"552 -8 OFFCURVE",
"557 -4 OFFCURVE",
"561 0 CURVE",
"557 16 OFFCURVE",
"555 47 OFFCURVE",
"555 87 CURVE SMOOTH"
);
},
{
closed = 1;
nodes = (
"130 354 LINE",
"541 354 LINE",
"541 380 LINE",
"130 380 LINE"
);
}
);
width = 662;
},
{
anchors = (
{
name = bottom;
position = "{351, 0}";
},
{
name = center;
position = "{351, 349}";
},
{
name = top;
position = "{351, 698}";
},
{
name = topleft;
position = "{20, 698}";
}
);
layerId = "EBFFFCD3-BAE4-48A5-9442-B72A90AD34A8";
paths = (
{
closed = 1;
nodes = (
"223 641 LINE SMOOTH",
"223 685 OFFCURVE",
"188 711 OFFCURVE",
"143 711 CURVE SMOOTH",
"104 711 OFFCURVE",
"75 692 OFFCURVE",
"63 681 CURVE",
"80 636 OFFCURVE",
"83 589 OFFCURVE",
"83 551 CURVE SMOOTH",
"83 56 LINE SMOOTH",
"83 12 OFFCURVE",
"117 -15 OFFCURVE",
"163 -15 CURVE SMOOTH",
"202 -15 OFFCURVE",
"231 5 OFFCURVE",
"243 16 CURVE",
"225 60 OFFCURVE",
"223 108 OFFCURVE",
"223 146 CURVE SMOOTH"
);
},
{
closed = 1;
nodes = (
"618 641 LINE SMOOTH",
"618 685 OFFCURVE",
"583 711 OFFCURVE",
"538 711 CURVE SMOOTH",
"499 711 OFFCURVE",
"470 692 OFFCURVE",
"458 681 CURVE",
"475 636 OFFCURVE",
"478 589 OFFCURVE",
"478 551 CURVE SMOOTH",
"478 56 LINE SMOOTH",
"478 12 OFFCURVE",
"512 -15 OFFCURVE",
"558 -15 CURVE SMOOTH",
"597 -15 OFFCURVE",
"626 5 OFFCURVE",
"638 16 CURVE",
"620 60 OFFCURVE",
"618 108 OFFCURVE",
"618 146 CURVE SMOOTH"
);
},
{
closed = 1;
nodes = (
"169 327 LINE",
"520 327 LINE",
"520 401 LINE",
"169 401 LINE"
);
}
);
width = 701;
}
);
leftKerningGroup = H;
rightKerningGroup = H;
unicode = 0048;
},
{
glyphname = Hbar;
layers = (
{
components = (
{
name = H;
}
);
layerId = "60CFBDE8-BC08-4808-BF41-F011F3E03A54";
paths = (
{
closed = 1;
nodes = (
"52 570 OFFCURVE",
"52 561 OFFCURVE",
"56 553 CURVE",
"605 553 LINE",
"609 561 OFFCURVE",
"609 570 OFFCURVE",
"605 578 CURVE",
"56 578 LINE"
);
}
);
width = 662;
},
{
components = (
{
name = H;
}
);
layerId = "EBFFFCD3-BAE4-48A5-9442-B72A90AD34A8";
paths = (
{
closed = 1;
nodes = (
"26 549 OFFCURVE",
"26 532 OFFCURVE",
"32 515 CURVE",
"661 515 LINE",
"667 532 OFFCURVE",
"667 549 OFFCURVE",
"661 566 CURVE",
"32 566 LINE"
);
}
);
width = 701;
}
);
leftKerningGroup = H;
rightKerningGroup = H;
unicode = 0126;
},
{
glyphname = I;
layers = (
{
anchors = (
{
name = bottom;
position = "{123, 0}";
},
{
name = ogonek;
position = "{124, -1}";
},
{
name = top;
position = "{119, 688}";
},
{
name = topleft;
position = "{20, 688}";
}
);
layerId = "60CFBDE8-BC08-4808-BF41-F011F3E03A54";
paths = (
{
closed = 1;
nodes = (
"135 -8 OFFCURVE",
"140 -4 OFFCURVE",
"144 0 CURVE",
"140 16 OFFCURVE",
"138 47 OFFCURVE",
"138 87 CURVE SMOOTH",
"138 673 LINE SMOOTH",
"138 687 OFFCURVE",
"130 695 OFFCURVE",
"119 695 CURVE SMOOTH",
"110 695 OFFCURVE",
"105 691 OFFCURVE",
"101 687 CURVE",
"105 671 OFFCURVE",
"107 640 OFFCURVE",
"107 600 CURVE SMOOTH",
"109 14 LINE SMOOTH",
"109 0 OFFCURVE",
"115 -8 OFFCURVE",
"126 -8 CURVE SMOOTH"
);
}
);
width = 245;
},
{
anchors = (
{
name = bottom;
position = "{167, 0}";
},
{
name = ogonek;
position = "{173, -8}";
},
{
name = top;
position = "{139, 698}";
},
{
name = topleft;
position = "{20, 698}";
}
);
layerId = "EBFFFCD3-BAE4-48A5-9442-B72A90AD34A8";
paths = (
{
closed = 1;
nodes = (
"202 -15 OFFCURVE",
"231 5 OFFCURVE",
"243 16 CURVE",
"225 60 OFFCURVE",
"223 108 OFFCURVE",
"223 146 CURVE SMOOTH",
"223 641 LINE SMOOTH",
"223 685 OFFCURVE",
"188 711 OFFCURVE",
"143 711 CURVE SMOOTH",
"104 711 OFFCURVE",
"75 692 OFFCURVE",
"63 681 CURVE",
"80 636 OFFCURVE",
"83 589 OFFCURVE",
"83 551 CURVE SMOOTH",
"83 56 LINE SMOOTH",
"83 12 OFFCURVE",
"117 -15 OFFCURVE",
"163 -15 CURVE SMOOTH"
);
}
);
width = 306;
}
);
leftKerningGroup = H;
leftMetricsKey = H;
rightKerningGroup = H;
rightMetricsKey = H;
unicode = 0049;
},
{
glyphname = J;
layers = (
{
anchors = (
{
name = bottom;
position = "{212, 0}";
},
{
name = top;
position = "{212, 688}";
}
);
layerId = "60CFBDE8-BC08-4808-BF41-F011F3E03A54";
paths = (
{
closed = 1;
nodes = (
"303 -12 OFFCURVE",
"317 91 OFFCURVE",
"317 161 CURVE SMOOTH",
"317 631 LINE SMOOTH",
"317 653 OFFCURVE",
"317 676 OFFCURVE",
"320 698 CURVE",
"305 696 OFFCURVE",
"287 693 OFFCURVE",
"258 694 CURVE SMOOTH",
"223 695 OFFCURVE",
"162 700 OFFCURVE",
"145 700 CURVE SMOOTH",
"104 700 OFFCURVE",
"84 672 OFFCURVE",
"84 646 CURVE SMOOTH",
"84 615 OFFCURVE",
"102 594 OFFCURVE",
"121 594 CURVE SMOOTH",
"125 594 OFFCURVE",
"133 594 OFFCURVE",
"139 599 CURVE",
"122 607 OFFCURVE",
"112 618 OFFCURVE",
"112 640 CURVE SMOOTH",
"112 676 OFFCURVE",
"142 679 OFFCURVE",
"163 677 CURVE SMOOTH",
"213 674 OFFCURVE",
"246 671 OFFCURVE",
"287 672 CURVE",
"287 659 OFFCURVE",
"287 646 OFFCURVE",
"287 633 CURVE",
"287 164 LINE SMOOTH",
"287 72 OFFCURVE",
"265 16 OFFCURVE",
"172 16 CURVE SMOOTH",
"135 16 OFFCURVE",
"80 35 OFFCURVE",
"80 100 CURVE SMOOTH",
"80 107 OFFCURVE",
"80 114 OFFCURVE",
"82 122 CURVE",
"81 122 OFFCURVE",
"80 122 OFFCURVE",
"79 122 CURVE SMOOTH",
"60 122 OFFCURVE",
"53 104 OFFCURVE",
"53 90 CURVE SMOOTH",
"53 37 OFFCURVE",
"95 -12 OFFCURVE",
"174 -12 CURVE SMOOTH"
);
}
);
width = 419;
},
{
anchors = (
{
name = bottom;
position = "{252, 0}";
},
{
name = top;
position = "{252, 698}";
}
);
layerId = "EBFFFCD3-BAE4-48A5-9442-B72A90AD34A8";
paths = (
{
closed = 1;
nodes = (
"368 -14 OFFCURVE",
"420 76 OFFCURVE",
"420 199 CURVE SMOOTH",
"420 633 LINE SMOOTH",
"420 677 OFFCURVE",
"423 697 OFFCURVE",
"426 712 CURVE",
"398 709 OFFCURVE",
"360 706 OFFCURVE",
"321 706 CURVE SMOOTH",
"259 707 OFFCURVE",
"211 712 OFFCURVE",
"172 712 CURVE SMOOTH",
"95 712 OFFCURVE",
"54 679 OFFCURVE",
"54 625 CURVE SMOOTH",
"54 570 OFFCURVE",
"96 542 OFFCURVE",
"136 542 CURVE SMOOTH",
"158 542 OFFCURVE",
"178 547 OFFCURVE",
"192 558 CURVE",
"176 568 OFFCURVE",
"160 587 OFFCURVE",
"160 618 CURVE SMOOTH",
"160 650 OFFCURVE",
"186 659 OFFCURVE",
"210 659 CURVE SMOOTH",
"227 658 OFFCURVE",
"268 657 OFFCURVE",
"289 656 CURVE",
"280 642 OFFCURVE",
"280 618 OFFCURVE",
"280 591 CURVE",
"280 182 LINE SMOOTH",
"280 103 OFFCURVE",
"272 33 OFFCURVE",
"214 33 CURVE SMOOTH",
"181 33 OFFCURVE",
"159 65 OFFCURVE",
"159 99 CURVE SMOOTH",
"159 121 OFFCURVE",
"164 141 OFFCURVE",
"175 162 CURVE",
"163 183 OFFCURVE",
"145 192 OFFCURVE",
"116 192 CURVE SMOOTH",
"61 192 OFFCURVE",
"37 148 OFFCURVE",
"37 103 CURVE SMOOTH",
"37 45 OFFCURVE",
"82 -14 OFFCURVE",
"214 -14 CURVE SMOOTH"
);
}
);
width = 499;
}
);
leftKerningGroup = J;
rightKerningGroup = J;
unicode = 004A;
},
{
glyphname = K;
layers = (
{
anchors = (
{
name = bottom;
position = "{281, 0}";
},
{
name = top;
position = "{281, 688}";
}
);
layerId = "60CFBDE8-BC08-4808-BF41-F011F3E03A54";
paths = (
{
closed = 1;
nodes = (
"509 -8 OFFCURVE",
"536 1 OFFCURVE",
"536 22 CURVE SMOOTH",
"536 27 OFFCURVE",
"535 32 OFFCURVE",
"531 37 CURVE",
"522 22 OFFCURVE",
"505 20 OFFCURVE",
"498 20 CURVE SMOOTH",
"483 20 OFFCURVE",
"470 29 OFFCURVE",
"460 61 CURVE SMOOTH",
"410 223 LINE SMOOTH",
"388 292 OFFCURVE",
"347 345 OFFCURVE",
"247 355 CURVE",
"241 344 LINE",
"394 387 OFFCURVE",
"452 516 OFFCURVE",
"452 621 CURVE SMOOTH",
"452 677 OFFCURVE",
"437 699 OFFCURVE",
"422 699 CURVE SMOOTH",
"415 699 OFFCURVE",
"408 694 OFFCURVE",
"402 687 CURVE",
"409 676 OFFCURVE",
"420 655 OFFCURVE",
"420 614 CURVE SMOOTH",
"420 503 OFFCURVE",
"332 361 OFFCURVE",
"171 361 CURVE SMOOTH",
"159 361 OFFCURVE",
"142 361 OFFCURVE",
"130 361 CURVE",
"131 335 LINE",
"171 335 LINE SMOOTH",
"331 335 OFFCURVE",
"355 283 OFFCURVE",
"379 221 CURVE SMOOTH",
"434 45 LINE SMOOTH",
"444 12 OFFCURVE",
"471 -8 OFFCURVE",
"494 -8 CURVE SMOOTH"
);
},
{
closed = 1;
nodes = (
"135 -8 OFFCURVE",
"140 -4 OFFCURVE",
"144 0 CURVE",
"140 16 OFFCURVE",
"138 47 OFFCURVE",
"138 87 CURVE",
"136 673 LINE",
"136 687 OFFCURVE",
"130 695 OFFCURVE",
"119 695 CURVE SMOOTH",
"110 695 OFFCURVE",
"105 691 OFFCURVE",
"101 687 CURVE",
"105 671 OFFCURVE",
"107 640 OFFCURVE",
"107 600 CURVE SMOOTH",
"109 14 LINE SMOOTH",
"109 0 OFFCURVE",
"115 -8 OFFCURVE",
"126 -8 CURVE SMOOTH"
);
}
);
width = 554;
},
{
anchors = (
{
name = bottom;
position = "{335, 0}";
},
{
name = top;
position = "{312, 698}";
}
);
layerId = "EBFFFCD3-BAE4-48A5-9442-B72A90AD34A8";
paths = (
{
closed = 1;
nodes = (
"571 -16 OFFCURVE",
"605 18 OFFCURVE",
"605 60 CURVE SMOOTH",
"605 71 OFFCURVE",
"602 84 OFFCURVE",
"597 98 CURVE",
"588 92 OFFCURVE",
"581 90 OFFCURVE",
"573 91 CURVE SMOOTH",
"550 93 OFFCURVE",
"539 109 OFFCURVE",
"515 156 CURVE SMOOTH",
"471 258 LINE SMOOTH",
"445 317 OFFCURVE",
"404 349 OFFCURVE",
"309 353 CURVE",
"307 342 LINE",
"475 397 OFFCURVE",
"544 509 OFFCURVE",
"544 605 CURVE SMOOTH",
"544 691 OFFCURVE",
"490 706 OFFCURVE",
"448 706 CURVE SMOOTH",
"426 706 OFFCURVE",
"411 702 OFFCURVE",
"391 694 CURVE",
"398 683 OFFCURVE",
"409 655 OFFCURVE",
"409 614 CURVE SMOOTH",
"409 531 OFFCURVE",
"357 405 OFFCURVE",
"245 370 CURVE SMOOTH",
"234 366 OFFCURVE",
"221 363 OFFCURVE",
"208 361 CURVE",
"209 313 LINE",
"238 313 LINE SMOOTH",
"308 313 OFFCURVE",
"333 257 OFFCURVE",
"348 214 CURVE SMOOTH",
"375 132 LINE SMOOTH",
"399 68 OFFCURVE",
"430 -16 OFFCURVE",
"516 -16 CURVE SMOOTH"
);
},
{
closed = 1;
nodes = (
"202 -15 OFFCURVE",
"231 5 OFFCURVE",
"243 16 CURVE",
"225 60 OFFCURVE",
"223 108 OFFCURVE",
"223 146 CURVE",
"222 641 LINE",
"222 685 OFFCURVE",
"188 711 OFFCURVE",
"143 711 CURVE SMOOTH",
"104 711 OFFCURVE",
"75 692 OFFCURVE",
"63 681 CURVE",
"80 636 OFFCURVE",
"83 589 OFFCURVE",
"83 551 CURVE SMOOTH",
"83 56 LINE SMOOTH",
"83 12 OFFCURVE",
"117 -15 OFFCURVE",
"163 -15 CURVE SMOOTH"
);
}
);
width = 621;
}
);
leftKerningGroup = H;
leftMetricsKey = H;
rightKerningGroup = K;
unicode = 004B;
},
{
glyphname = L;
layers = (
{
anchors = (
{
name = bottom;
position = "{261, 0}";
},
{
name = center;
position = "{228, 344}";
},
{
name = top;
position = "{136, 687}";
},
{
name = topright;
position = "{436, 688}";
}
);
layerId = "60CFBDE8-BC08-4808-BF41-F011F3E03A54";
paths = (
{
closed = 1;
nodes = (
"136 687 OFFCURVE",
"130 695 OFFCURVE",
"119 695 CURVE SMOOTH",
"110 695 OFFCURVE",
"105 691 OFFCURVE",
"101 687 CURVE",
"105 671 OFFCURVE",
"107 640 OFFCURVE",
"107 600 CURVE SMOOTH",
"109 22 LINE SMOOTH",
"109 8 OFFCURVE",
"115 0 OFFCURVE",
"126 0 CURVE SMOOTH",
"413 0 LINE",
"425 0 OFFCURVE",
"423 22 OFFCURVE",
"413 26 CURVE",
"321 26 OFFCURVE",
"230 25 OFFCURVE",
"138 25 CURVE",
"136 673 LINE SMOOTH"
);
}
);
width = 456;
},
{
anchors = (
{
name = bottom;
position = "{282, 0}";
},
{
name = center;
position = "{254, 349}";
},
{
name = top;
position = "{165, 698}";
},
{
name = topright;
position = "{297, 698}";
}
);
layerId = "EBFFFCD3-BAE4-48A5-9442-B72A90AD34A8";
paths = (
{
closed = 1;
nodes = (
"222 685 OFFCURVE",
"188 711 OFFCURVE",
"143 711 CURVE SMOOTH",
"104 711 OFFCURVE",
"75 692 OFFCURVE",
"63 681 CURVE",
"80 636 OFFCURVE",
"83 589 OFFCURVE",
"83 551 CURVE SMOOTH",
"83 71 LINE SMOOTH",
"83 26 OFFCURVE",
"117 0 OFFCURVE",
"163 0 CURVE SMOOTH",
"459 0 LINE",
"504 0 OFFCURVE",
"502 110 OFFCURVE",
"467 133 CURVE",
"416 103 OFFCURVE",
"310 76 OFFCURVE",
"223 74 CURVE",
"222 641 LINE SMOOTH"
);
}
);
width = 508;
}
);
leftKerningGroup = H;
leftMetricsKey = H;
rightKerningGroup = L;
unicode = 004C;
},
{
glyphname = Lslash;
layers = (
{
components = (
{
name = L;
}
);
layerId = "60CFBDE8-BC08-4808-BF41-F011F3E03A54";
paths = (
{
closed = 1;
nodes = (
"39 176 OFFCURVE",
"45 171 OFFCURVE",
"55 169 CURVE",
"277 389 LINE",
"274 398 OFFCURVE",
"268 404 OFFCURVE",
"259 407 CURVE",
"37 186 LINE"
);
}
);
width = 456;
},
{
components = (
{
name = L;
}
);
layerId = "EBFFFCD3-BAE4-48A5-9442-B72A90AD34A8";
paths = (
{
closed = 1;
nodes = (
"5 146 OFFCURVE",
"17 133 OFFCURVE",
"34 129 CURVE",
"354 450 LINE",
"350 468 OFFCURVE",
"337 481 OFFCURVE",
"318 486 CURVE",
"-1 165 LINE"
);
}
);
width = 508;
}
);
leftKerningGroup = H;
rightKerningGroup = L;
unicode = 0141;
},
{
glyphname = M;
layers = (
{
anchors = (
{
name = bottom;
position = "{425, 0}";
},
{
name = top;
position = "{425, 688}";
}
);
layerId = "60CFBDE8-BC08-4808-BF41-F011F3E03A54";
paths = (
{
closed = 1;
nodes = (
"741 673 LINE",
"741 687 OFFCURVE",
"735 695 OFFCURVE",
"724 695 CURVE SMOOTH",
"719 695 OFFCURVE",
"713 694 OFFCURVE",
"709 691 CURVE",
"615 515 OFFCURVE",
"520 332 OFFCURVE",
"426 156 CURVE",
"434 161 LINE",
"334 336 OFFCURVE",
"232 511 OFFCURVE",
"132 686 CURVE",
"129 692 OFFCURVE",
"124 695 OFFCURVE",
"117 695 CURVE SMOOTH",
"109 695 OFFCURVE",
"105 691 OFFCURVE",
"101 687 CURVE",
"105 671 OFFCURVE",
"107 640 OFFCURVE",
"107 600 CURVE SMOOTH",
"109 14 LINE SMOOTH",
"109 0 OFFCURVE",
"114 -8 OFFCURVE",
"124 -8 CURVE SMOOTH",
"133 -8 OFFCURVE",
"138 -4 OFFCURVE",
"142 0 CURVE",
"138 16 OFFCURVE",
"136 47 OFFCURVE",
"136 87 CURVE",
"134 635 LINE",
"130 629 LINE",
"225 466 OFFCURVE",
"320 299 OFFCURVE",
"415 136 CURVE",
"425 129 OFFCURVE",
"436 129 OFFCURVE",
"446 136 CURVE",
"718 645 LINE",
"712 647 LINE",
"714 14 LINE SMOOTH",
"714 0 OFFCURVE",
"720 -8 OFFCURVE",
"731 -8 CURVE SMOOTH",
"740 -8 OFFCURVE",
"745 -4 OFFCURVE",
"749 0 CURVE",
"745 16 OFFCURVE",
"743 47 OFFCURVE",
"743 87 CURVE SMOOTH"
);
}
);
width = 850;
},
{
anchors = (
{
name = bottom;
position = "{426, 0}";
},
{
name = top;
position = "{426, 698}";
}
);
layerId = "EBFFFCD3-BAE4-48A5-9442-B72A90AD34A8";
paths = (
{
closed = 1;
nodes = (
"768 683 LINE",
"763 697 OFFCURVE",
"723 711 OFFCURVE",
"681 711 CURVE SMOOTH",
"662 711 OFFCURVE",
"626 710 OFFCURVE",
"592 698 CURVE",
"548 554 OFFCURVE",
"467 319 OFFCURVE",
"415 168 CURVE",
"436 165 LINE",
"373 330 OFFCURVE",
"309 508 OFFCURVE",
"244 686 CURVE",
"227 703 OFFCURVE",
"206 711 OFFCURVE",
"171 711 CURVE SMOOTH",
"116 711 OFFCURVE",
"86 705 OFFCURVE",
"74 694 CURVE",
"80 653 OFFCURVE",
"81 614 OFFCURVE",
"81 554 CURVE SMOOTH",
"81 40 LINE SMOOTH",
"81 7 OFFCURVE",
"93 -15 OFFCURVE",
"127 -15 CURVE SMOOTH",
"145 -15 OFFCURVE",
"164 -9 OFFCURVE",
"176 2 CURVE",
"159 47 OFFCURVE",
"156 108 OFFCURVE",
"156 145 CURVE",
"155 573 LINE",
"138 601 LINE",
"191 425 OFFCURVE",
"270 220 OFFCURVE",
"339 73 CURVE",
"378 58 OFFCURVE",
"416 61 OFFCURVE",
"467 78 CURVE",
"653 601 LINE",
"632 552 LINE",
"633 56 LINE SMOOTH",
"633 12 OFFCURVE",
"665 -15 OFFCURVE",
"708 -15 CURVE SMOOTH",
"747 -15 OFFCURVE",
"776 5 OFFCURVE",
"788 16 CURVE",
"771 60 OFFCURVE",
"768 108 OFFCURVE",
"768 146 CURVE SMOOTH"
);
}
);
width = 851;
}
);
leftKerningGroup = H;
rightKerningGroup = H;
rightMetricsKey = H;
unicode = 004D;
},
{
glyphname = N;
layers = (
{
anchors = (
{
name = bottom;
position = "{334, 0}";
},
{
name = top;
position = "{332, 688}";
}
);
layerId = "60CFBDE8-BC08-4808-BF41-F011F3E03A54";
paths = (
{
closed = 1;
nodes = (
"132 -8 OFFCURVE",
"138 0 OFFCURVE",
"138 14 CURVE SMOOTH",
"136 629 LINE",
"243 460 OFFCURVE",
"473 90 OFFCURVE",
"542 -5 CURVE",
"548 -7 OFFCURVE",
"561 -6 OFFCURVE",
"566 0 CURVE",
"564 16 OFFCURVE",
"564 47 OFFCURVE",
"564 87 CURVE SMOOTH",
"562 673 LINE SMOOTH",
"562 687 OFFCURVE",
"556 695 OFFCURVE",
"545 695 CURVE SMOOTH",
"536 695 OFFCURVE",
"531 691 OFFCURVE",
"527 687 CURVE",
"531 671 OFFCURVE",
"533 640 OFFCURVE",
"533 600 CURVE SMOOTH",
"535 53 LINE",
"423 221 OFFCURVE",
"228 547 OFFCURVE",
"133 688 CURVE",
"130 691 OFFCURVE",
"113 696 OFFCURVE",
"101 687 CURVE",
"105 671 OFFCURVE",
"107 630 OFFCURVE",
"107 590 CURVE SMOOTH",
"109 87 LINE SMOOTH",
"109 47 OFFCURVE",
"107 16 OFFCURVE",
"103 0 CURVE",
"107 -4 OFFCURVE",
"112 -8 OFFCURVE",
"121 -8 CURVE SMOOTH"
);
}
);
width = 667;
},
{
anchors = (
{
name = bottom;
position = "{352, 0}";
},
{
name = top;
position = "{352, 698}";
}
);
layerId = "EBFFFCD3-BAE4-48A5-9442-B72A90AD34A8";
paths = (
{
closed = 1;
nodes = (
"154 -15 OFFCURVE",
"193 17 OFFCURVE",
"189 65 CURVE SMOOTH",
"159 497 LINE",
"208 401 OFFCURVE",
"296 267 OFFCURVE",
"532 -8 CURVE",
"555 -20 OFFCURVE",
"612 -13 OFFCURVE",
"626 3 CURVE",
"620 44 OFFCURVE",
"619 83 OFFCURVE",
"619 143 CURVE SMOOTH",
"620 564 LINE SMOOTH",
"620 596 OFFCURVE",
"621 653 OFFCURVE",
"636 695 CURVE SMOOTH",
"620 706 OFFCURVE",
"598 711 OFFCURVE",
"579 710 CURVE",
"531 707 OFFCURVE",
"508 671 OFFCURVE",
"513 619 CURVE SMOOTH",
"549 179 LINE",
"504 284 OFFCURVE",
"293 533 OFFCURVE",
"172 704 CURVE",
"160 716 OFFCURVE",
"91 712 OFFCURVE",
"76 694 CURVE",
"81 653 OFFCURVE",
"83 612 OFFCURVE",
"83 552 CURVE SMOOTH",
"83 146 LINE SMOOTH",
"83 109 OFFCURVE",
"80 48 OFFCURVE",
"63 3 CURVE",
"79 -8 OFFCURVE",
"100 -15 OFFCURVE",
"120 -15 CURVE SMOOTH"
);
}
);
width = 699;
}
);
leftKerningGroup = H;
leftMetricsKey = H;
rightKerningGroup = H;
rightMetricsKey = H;
unicode = 004E;
},
{
glyphname = O;
layers = (
{
anchors = (
{
name = bottom;
position = "{319, 0}";
},
{
name = center;
position = "{319, 344}";
},
{
name = ogonek;
position = "{566, 10}";
},
{
name = top;
position = "{319, 688}";
},
{
name = topleft;
position = "{30, 688}";
},
{
name = topright;
position = "{513, 623}";
}
);
layerId = "60CFBDE8-BC08-4808-BF41-F011F3E03A54";
paths = (
{
closed = 1;
nodes = (
"476 -12 OFFCURVE",
"568 100 OFFCURVE",
"568 344 CURVE SMOOTH",
"568 588 OFFCURVE",
"476 700 OFFCURVE",
"319 700 CURVE SMOOTH",
"162 700 OFFCURVE",
"70 588 OFFCURVE",
"70 344 CURVE SMOOTH",
"70 100 OFFCURVE",
"162 -12 OFFCURVE",
"319 -12 CURVE SMOOTH"
);
},
{
closed = 1;
nodes = (
"183 16 OFFCURVE",
"102 118 OFFCURVE",
"102 344 CURVE SMOOTH",
"102 570 OFFCURVE",
"183 672 OFFCURVE",
"319 672 CURVE SMOOTH",
"455 672 OFFCURVE",
"536 570 OFFCURVE",
"536 344 CURVE SMOOTH",
"536 118 OFFCURVE",
"455 16 OFFCURVE",
"319 16 CURVE SMOOTH"
);
}
);
width = 638;
},
{
anchors = (
{
name = bottom;
position = "{332.992, 0}";
},
{
name = center;
position = "{333, 349}";
},
{
name = ogonek;
position = "{598, 10}";
},
{
name = top;
position = "{333, 698}";
},
{
name = topleft;
position = "{22, 698}";
},
{
name = topright;
position = "{511, 653}";
}
);
layerId = "EBFFFCD3-BAE4-48A5-9442-B72A90AD34A8";
paths = (
{
closed = 1;
nodes = (
"521 -14 OFFCURVE",
"619 108 OFFCURVE",
"619 349 CURVE SMOOTH",
"619 590 OFFCURVE",
"521 712 OFFCURVE",
"333 712 CURVE SMOOTH",
"145 712 OFFCURVE",
"47 590 OFFCURVE",
"47 349 CURVE SMOOTH",
"47 108 OFFCURVE",
"145 -14 OFFCURVE",
"333 -14 CURVE SMOOTH"
);
},
{
closed = 1;
nodes = (
"241 33 OFFCURVE",
"201 128 OFFCURVE",
"201 349 CURVE SMOOTH",
"201 570 OFFCURVE",
"241 665 OFFCURVE",
"333 665 CURVE SMOOTH",
"426 665 OFFCURVE",
"465 570 OFFCURVE",
"465 349 CURVE SMOOTH",
"465 128 OFFCURVE",
"426 33 OFFCURVE",
"333 33 CURVE SMOOTH"
);
}
);
width = 666;
}
);
leftKerningGroup = O;
rightKerningGroup = O;
unicode = 004F;
},
{
glyphname = Ohorn;
layers = (
{
anchors = (
{
name = bottom;
position = "{300, 0}";
},
{
name = center;
position = "{319, 344}";
},
{
name = ogonek;
position = "{566, 10}";
},
{
name = top;
position = "{300, 688}";
},
{
name = topleft;
position = "{30, 688}";
},
{
name = topright;
position = "{512, 623}";
}
);
layerId = "60CFBDE8-BC08-4808-BF41-F011F3E03A54";
paths = (
{
closed = 1;
nodes = (
"476 -12 OFFCURVE",
"568 100 OFFCURVE",
"568 344 CURVE SMOOTH",
"568 588 OFFCURVE",
"476 700 OFFCURVE",
"319 700 CURVE SMOOTH",
"162 700 OFFCURVE",
"70 588 OFFCURVE",
"70 344 CURVE SMOOTH",
"70 100 OFFCURVE",
"162 -12 OFFCURVE",
"319 -12 CURVE SMOOTH"
);
},
{
closed = 1;
nodes = (
"183 16 OFFCURVE",
"102 118 OFFCURVE",
"102 344 CURVE SMOOTH",
"102 570 OFFCURVE",
"183 672 OFFCURVE",
"319 672 CURVE SMOOTH",
"455 672 OFFCURVE",
"536 570 OFFCURVE",
"536 344 CURVE SMOOTH",
"536 118 OFFCURVE",
"455 16 OFFCURVE",
"319 16 CURVE SMOOTH"
);
},
{
closed = 1;
nodes = (
"545 618 OFFCURVE",
"574 643 OFFCURVE",
"574 686 CURVE SMOOTH",
"574 703 OFFCURVE",
"568 728 OFFCURVE",
"551 746 CURVE",
"538 741 OFFCURVE",
"526 732 OFFCURVE",
"518 725 CURVE",
"534 706 OFFCURVE",
"536 689 OFFCURVE",
"536 680 CURVE SMOOTH",
"536 655 OFFCURVE",
"521 639 OFFCURVE",
"485 626 CURVE",
"494 603 LINE"
);
}
);
width = 638;
},
{
anchors = (
{
name = bottom;
position = "{328, 0}";
},
{
name = center;
position = "{333, 349}";
},
{
name = ogonek;
position = "{598, 10}";
},
{
name = top;
position = "{331, 698}";
},
{
name = topleft;
position = "{22, 698}";
},
{
name = topright;
position = "{516, 653}";
}
);
layerId = "EBFFFCD3-BAE4-48A5-9442-B72A90AD34A8";
paths = (
{
closed = 1;
nodes = (
"521 -14 OFFCURVE",
"619 108 OFFCURVE",
"619 349 CURVE SMOOTH",
"619 590 OFFCURVE",
"521 712 OFFCURVE",
"333 712 CURVE SMOOTH",
"145 712 OFFCURVE",
"47 590 OFFCURVE",
"47 349 CURVE SMOOTH",
"47 108 OFFCURVE",
"145 -14 OFFCURVE",
"333 -14 CURVE SMOOTH"
);
},
{
closed = 1;
nodes = (
"241 33 OFFCURVE",
"201 128 OFFCURVE",
"201 349 CURVE SMOOTH",
"201 570 OFFCURVE",
"241 665 OFFCURVE",
"333 665 CURVE SMOOTH",
"426 665 OFFCURVE",
"465 570 OFFCURVE",
"465 349 CURVE SMOOTH",
"465 128 OFFCURVE",
"426 33 OFFCURVE",
"333 33 CURVE SMOOTH"
);
},
{
closed = 1;
nodes = (
"567 645 OFFCURVE",
"632 687 OFFCURVE",
"632 742 CURVE SMOOTH",
"632 776 OFFCURVE",
"616 812 OFFCURVE",
"604 825 CURVE",
"579 822 OFFCURVE",
"530 800 OFFCURVE",
"512 787 CURVE",
"523 775 OFFCURVE",
"535 752 OFFCURVE",
"535 729 CURVE SMOOTH",
"535 704 OFFCURVE",
"522 679 OFFCURVE",
"477 663 CURVE",
"494 620 LINE"
);
}
);
width = 666;
}
);
leftKerningGroup = O;
rightKerningGroup = O;
unicode = 01A0;
},
{
glyphname = Oslash;
layers = (
{
anchors = (
{
name = bottom;
position = "{309, 0}";
},
{
name = center;
position = "{319, 344}";
},
{
name = ogonek;
position = "{566, 10}";
},
{
name = top;
position = "{309, 688}";
},
{
name = topleft;
position = "{30, 688}";
},
{
name = topright;
position = "{513, 623}";
}
);
layerId = "60CFBDE8-BC08-4808-BF41-F011F3E03A54";
paths = (
{
closed = 1;
nodes = (
"92 -9 OFFCURVE",
"100 -13 OFFCURVE",
"110 -13 CURVE",
"517 688 LINE",
"513 696 OFFCURVE",
"506 701 OFFCURVE",
"496 701 CURVE",
"88 -1 LINE"
);
},
{
closed = 1;
nodes = (
"476 -12 OFFCURVE",
"568 100 OFFCURVE",
"568 344 CURVE SMOOTH",
"568 588 OFFCURVE",
"476 700 OFFCURVE",
"319 700 CURVE SMOOTH",
"162 700 OFFCURVE",
"70 588 OFFCURVE",
"70 344 CURVE SMOOTH",
"70 100 OFFCURVE",
"162 -12 OFFCURVE",
"319 -12 CURVE SMOOTH"
);
},
{
closed = 1;
nodes = (
"183 16 OFFCURVE",
"102 118 OFFCURVE",
"102 344 CURVE SMOOTH",
"102 570 OFFCURVE",
"183 672 OFFCURVE",
"319 672 CURVE SMOOTH",
"455 672 OFFCURVE",
"536 570 OFFCURVE",
"536 344 CURVE SMOOTH",
"536 118 OFFCURVE",
"455 16 OFFCURVE",
"319 16 CURVE SMOOTH"
);
}
);
width = 618;
},
{
anchors = (
{
name = bottom;
position = "{331, 0}";
},
{
name = center;
position = "{333, 349}";
},
{
name = ogonek;
position = "{598, 10}";
},
{
name = top;
position = "{331, 698}";
},
{
name = topleft;
position = "{22, 698}";
},
{
name = topright;
position = "{511, 653}";
}
);
layerId = "EBFFFCD3-BAE4-48A5-9442-B72A90AD34A8";
paths = (
{
closed = 1;
nodes = (
"92 -7 OFFCURVE",
"106 -15 OFFCURVE",
"125 -15 CURVE",
"558 706 LINE",
"549 723 OFFCURVE",
"535 732 OFFCURVE",
"515 731 CURVE",
"82 10 LINE"
);
},
{
closed = 1;
nodes = (
"521 -14 OFFCURVE",
"619 108 OFFCURVE",
"619 349 CURVE SMOOTH",
"619 590 OFFCURVE",
"521 712 OFFCURVE",
"333 712 CURVE SMOOTH",
"145 712 OFFCURVE",
"47 590 OFFCURVE",
"47 349 CURVE SMOOTH",
"47 108 OFFCURVE",
"145 -14 OFFCURVE",
"333 -14 CURVE SMOOTH"
);
},
{
closed = 1;
nodes = (
"241 33 OFFCURVE",
"201 128 OFFCURVE",
"201 349 CURVE SMOOTH",
"201 570 OFFCURVE",
"241 665 OFFCURVE",
"333 665 CURVE SMOOTH",
"426 665 OFFCURVE",
"465 570 OFFCURVE",
"465 349 CURVE SMOOTH",
"465 128 OFFCURVE",
"426 33 OFFCURVE",
"333 33 CURVE SMOOTH"
);
}
);
width = 662;
}
);
leftKerningGroup = O;
rightKerningGroup = O;
unicode = 00D8;
},
{
glyphname = OE;
layers = (
{
anchors = (
{
name = top;
position = "{435, 688}";
}
);
layerId = "60CFBDE8-BC08-4808-BF41-F011F3E03A54";
paths = (
{
closed = 1;
nodes = (
"471 85 LINE",
"434 38 OFFCURVE",
"383 16 OFFCURVE",
"319 16 CURVE SMOOTH",
"183 16 OFFCURVE",
"102 118 OFFCURVE",
"102 344 CURVE SMOOTH",
"102 570 OFFCURVE",
"183 672 OFFCURVE",
"319 672 CURVE SMOOTH",
"380 672 OFFCURVE",
"430 651 OFFCURVE",
"467 608 CURVE",
"470 649 LINE",
"431 683 OFFCURVE",
"380 700 OFFCURVE",
"319 700 CURVE SMOOTH",
"162 700 OFFCURVE",
"70 588 OFFCURVE",
"70 344 CURVE SMOOTH",
"70 100 OFFCURVE",
"162 -12 OFFCURVE",
"319 -12 CURVE SMOOTH",
"382 -12 OFFCURVE",
"435 6 OFFCURVE",
"475 44 CURVE"
);
},
{
closed = 1;
nodes = (
"789 0 LINE",
"801 0 OFFCURVE",
"799 22 OFFCURVE",
"789 26 CURVE",
"687 26 OFFCURVE",
"586 25 OFFCURVE",
"484 25 CURVE",
"482 662 LINE",
"584 662 OFFCURVE",
"674 662 OFFCURVE",
"776 662 CURVE",
"787 665 OFFCURVE",
"793 688 OFFCURVE",
"779 688 CURVE",
"465 688 LINE SMOOTH",
"456 688 OFFCURVE",
"451 685 OFFCURVE",
"447 680 CURVE",
"451 664 OFFCURVE",
"453 640 OFFCURVE",
"453 600 CURVE SMOOTH",
"455 22 LINE SMOOTH",
"455 8 OFFCURVE",
"461 0 OFFCURVE",
"472 0 CURVE SMOOTH"
);
},
{
closed = 1;
nodes = (
"757 354 LINE",
"760 363 OFFCURVE",
"760 371 OFFCURVE",
"757 380 CURVE",
"477 380 LINE",
"477 354 LINE"
);
}
);
width = 869;
},
{
anchors = (
{
name = top;
position = "{459, 698}";
}
);
layerId = "EBFFFCD3-BAE4-48A5-9442-B72A90AD34A8";
paths = (
{
closed = 1;
nodes = (
"467 279 LINE",
"459 101 OFFCURVE",
"411 33 OFFCURVE",
"333 33 CURVE SMOOTH",
"241 33 OFFCURVE",
"201 128 OFFCURVE",
"201 349 CURVE SMOOTH",
"201 570 OFFCURVE",
"241 665 OFFCURVE",
"333 665 CURVE SMOOTH",
"409 665 OFFCURVE",
"445 618 OFFCURVE",
"453 461 CURVE",
"545 456 LINE",
"522 619 OFFCURVE",
"486 712 OFFCURVE",
"333 712 CURVE SMOOTH",
"145 712 OFFCURVE",
"47 590 OFFCURVE",
"47 349 CURVE SMOOTH",
"47 108 OFFCURVE",
"145 -14 OFFCURVE",
"333 -14 CURVE SMOOTH",
"492 -14 OFFCURVE",
"526 106 OFFCURVE",
"546 280 CURVE"
);
},
{
closed = 1;
nodes = (
"848 0 LINE",
"893 0 OFFCURVE",
"891 103 OFFCURVE",
"856 125 CURVE",
"803 98 OFFCURVE",
"678 69 OFFCURVE",
"590 66 CURVE",
"589 632 LINE",
"676 629 OFFCURVE",
"762 608 OFFCURVE",
"831 576 CURVE",
"868 593 OFFCURVE",
"884 698 OFFCURVE",
"846 698 CURVE",
"557 698 LINE SMOOTH",
"494 698 OFFCURVE",
"465 693 OFFCURVE",
"430 663 CURVE",
"447 618 OFFCURVE",
"450 572 OFFCURVE",
"450 533 CURVE SMOOTH",
"450 71 LINE SMOOTH",
"450 26 OFFCURVE",
"484 0 OFFCURVE",
"530 0 CURVE SMOOTH"
);
},
{
closed = 1;
nodes = (
"801 324 LINE",
"806 345 OFFCURVE",
"808 373 OFFCURVE",
"801 398 CURVE",
"564 398 LINE",
"564 324 LINE"
);
}
);
width = 921;
}
);
leftKerningGroup = O;
leftMetricsKey = O;
rightKerningGroup = E;
rightMetricsKey = E;
unicode = 0152;
},
{
glyphname = P;
layers = (
{
anchors = (
{
name = bottom;
position = "{267, 0}";
},
{
name = top;
position = "{267, 688}";
}
);
layerId = "60CFBDE8-BC08-4808-BF41-F011F3E03A54";
paths = (
{
closed = 1;
nodes = (
"136 -8 OFFCURVE",
"141 -4 OFFCURVE",
"145 0 CURVE",
"140 17 OFFCURVE",
"138 78 OFFCURVE",
"138 87 CURVE SMOOTH",
"138 670 LINE",
"148 673 OFFCURVE",
"169 674 OFFCURVE",
"194 674 CURVE SMOOTH",
"367 674 OFFCURVE",
"442 624 OFFCURVE",
"442 498 CURVE SMOOTH",
"442 364 OFFCURVE",
"356 307 OFFCURVE",
"180 307 CURVE SMOOTH",
"141 307 OFFCURVE",
"129 307 OFFCURVE",
"116 309 CURVE",
"123 283 LINE",
"137 282 OFFCURVE",
"150 282 OFFCURVE",
"169 282 CURVE SMOOTH",
"376 282 OFFCURVE",
"474 348 OFFCURVE",
"474 499 CURVE SMOOTH",
"474 632 OFFCURVE",
"397 700 OFFCURVE",
"203 700 CURVE SMOOTH",
"125 700 OFFCURVE",
"104 689 OFFCURVE",
"101 687 CURVE",
"106 670 OFFCURVE",
"108 609 OFFCURVE",
"108 600 CURVE SMOOTH",
"108 14 LINE SMOOTH",
"109 0 OFFCURVE",
"115 -8 OFFCURVE",
"127 -8 CURVE SMOOTH"
);
}
);
width = 535;
},
{
anchors = (
{
name = bottom;
position = "{293, 0}";
},
{
name = top;
position = "{293, 698}";
}
);
layerId = "EBFFFCD3-BAE4-48A5-9442-B72A90AD34A8";
paths = (
{
closed = 1;
nodes = (
"202 -15 OFFCURVE",
"231 5 OFFCURVE",
"243 16 CURVE",
"225 57 OFFCURVE",
"223 105 OFFCURVE",
"223 138 CURVE SMOOTH",
"223 663 LINE",
"231 664 OFFCURVE",
"241 664 OFFCURVE",
"252 664 CURVE SMOOTH",
"364 664 OFFCURVE",
"401 594 OFFCURVE",
"401 495 CURVE SMOOTH",
"401 391 OFFCURVE",
"362 317 OFFCURVE",
"239 317 CURVE SMOOTH",
"223 317 OFFCURVE",
"211 317 OFFCURVE",
"198 319 CURVE",
"205 271 LINE",
"219 270 OFFCURVE",
"232 270 OFFCURVE",
"246 270 CURVE SMOOTH",
"443 270 OFFCURVE",
"554 355 OFFCURVE",
"554 505 CURVE SMOOTH",
"554 653 OFFCURVE",
"444 712 OFFCURVE",
"249 712 CURVE SMOOTH",
"166 712 OFFCURVE",
"105 701 OFFCURVE",
"63 681 CURVE",
"80 636 OFFCURVE",
"83 583 OFFCURVE",
"83 551 CURVE SMOOTH",
"83 56 LINE SMOOTH",
"83 12 OFFCURVE",
"117 -15 OFFCURVE",
"163 -15 CURVE SMOOTH"
);
}
);
width = 586;
}
);
leftKerningGroup = H;
leftMetricsKey = H;
unicode = 0050;
},
{
glyphname = Thorn;
layers = (
{
anchors = (
{
name = bottom;
position = "{300, 0}";
},
{
name = top;
position = "{300, 688}";
}
);
layerId = "60CFBDE8-BC08-4808-BF41-F011F3E03A54";
paths = (
{
closed = 1;
nodes = (
"376 152 OFFCURVE",
"474 218 OFFCURVE",
"474 369 CURVE SMOOTH",
"474 502 OFFCURVE",
"397 570 OFFCURVE",
"203 570 CURVE SMOOTH",
"183 570 OFFCURVE",
"137 569 OFFCURVE",
"123 568 CURVE",
"122 542 LINE",
"133 544 OFFCURVE",
"178 544 OFFCURVE",
"194 544 CURVE SMOOTH",
"367 544 OFFCURVE",
"442 494 OFFCURVE",
"442 368 CURVE SMOOTH",
"442 234 OFFCURVE",
"356 177 OFFCURVE",
"180 177 CURVE SMOOTH",
"141 177 OFFCURVE",
"129 177 OFFCURVE",
"116 179 CURVE",
"123 153 LINE",
"137 152 OFFCURVE",
"150 152 OFFCURVE",
"169 152 CURVE SMOOTH"
);
},
{
closed = 1;
nodes = (
"135 -8 OFFCURVE",
"140 -4 OFFCURVE",
"144 0 CURVE",
"140 16 OFFCURVE",
"138 47 OFFCURVE",
"138 87 CURVE SMOOTH",
"136 673 LINE SMOOTH",
"136 687 OFFCURVE",
"130 695 OFFCURVE",
"119 695 CURVE SMOOTH",
"110 695 OFFCURVE",
"105 691 OFFCURVE",
"101 687 CURVE",
"105 671 OFFCURVE",
"107 640 OFFCURVE",
"107 600 CURVE SMOOTH",
"109 14 LINE SMOOTH",
"109 0 OFFCURVE",
"115 -8 OFFCURVE",
"126 -8 CURVE SMOOTH"
);
}
);
width = 534;
},
{
anchors = (
{
name = bottom;
position = "{300, 0}";
},
{
name = top;
position = "{300, 698}";
}
);
layerId = "EBFFFCD3-BAE4-48A5-9442-B72A90AD34A8";
paths = (
{
closed = 1;
nodes = (
"442 140 OFFCURVE",
"553 225 OFFCURVE",
"553 375 CURVE SMOOTH",
"553 523 OFFCURVE",
"443 582 OFFCURVE",
"249 582 CURVE SMOOTH",
"238 582 OFFCURVE",
"204 582 OFFCURVE",
"194 582 CURVE",
"194 535 LINE",
"203 536 OFFCURVE",
"243 534 OFFCURVE",
"252 534 CURVE SMOOTH",
"363 534 OFFCURVE",
"400 464 OFFCURVE",
"400 365 CURVE SMOOTH",
"400 261 OFFCURVE",
"362 187 OFFCURVE",
"239 187 CURVE SMOOTH",
"223 187 OFFCURVE",
"211 187 OFFCURVE",
"198 189 CURVE",
"205 141 LINE",
"219 140 OFFCURVE",
"232 140 OFFCURVE",
"246 140 CURVE SMOOTH"
);
},
{
closed = 1;
nodes = (
"202 -15 OFFCURVE",
"231 5 OFFCURVE",
"243 16 CURVE",
"225 60 OFFCURVE",
"223 108 OFFCURVE",
"223 146 CURVE SMOOTH",
"222 641 LINE SMOOTH",
"222 685 OFFCURVE",
"188 711 OFFCURVE",
"143 711 CURVE SMOOTH",
"104 711 OFFCURVE",
"75 692 OFFCURVE",
"63 681 CURVE",
"80 636 OFFCURVE",
"83 589 OFFCURVE",
"83 551 CURVE SMOOTH",
"83 56 LINE SMOOTH",
"83 12 OFFCURVE",
"117 -15 OFFCURVE",
"163 -15 CURVE SMOOTH"
);
}
);
width = 586;
}
);
leftKerningGroup = H;
unicode = 00DE;
},
{
glyphname = Q;
layers = (
{
anchors = (
{
name = bottom;
position = "{316, 0}";
},
{
name = top;
position = "{316, 688}";
}
);
layerId = "60CFBDE8-BC08-4808-BF41-F011F3E03A54";
paths = (
{
closed = 1;
nodes = (
"557 -134 OFFCURVE",
"603 -102 OFFCURVE",
"603 -46 CURVE SMOOTH",
"603 -33 OFFCURVE",
"592 -18 OFFCURVE",
"574 -22 CURVE",
"582 -74 OFFCURVE",
"539 -106 OFFCURVE",
"481 -106 CURVE SMOOTH",
"407 -108 OFFCURVE",
"334 -53 OFFCURVE",
"271 -7 CURVE",
"283 -10 OFFCURVE",
"306 -12 OFFCURVE",
"319 -12 CURVE SMOOTH",
"476 -12 OFFCURVE",
"568 100 OFFCURVE",
"568 344 CURVE SMOOTH",
"568 588 OFFCURVE",
"476 700 OFFCURVE",
"319 700 CURVE SMOOTH",
"162 700 OFFCURVE",
"70 588 OFFCURVE",
"70 344 CURVE SMOOTH",
"70 184 OFFCURVE",
"113 81 OFFCURVE",
"192 21 CURVE SMOOTH",
"268 -37 OFFCURVE",
"370 -137 OFFCURVE",
"484 -134 CURVE SMOOTH"
);
},
{
closed = 1;
nodes = (
"183 16 OFFCURVE",
"102 118 OFFCURVE",
"102 344 CURVE SMOOTH",
"102 570 OFFCURVE",
"183 672 OFFCURVE",
"319 672 CURVE SMOOTH",
"455 672 OFFCURVE",
"536 570 OFFCURVE",
"536 344 CURVE SMOOTH",
"536 118 OFFCURVE",
"455 16 OFFCURVE",
"319 16 CURVE SMOOTH"
);
}
);
width = 638;
},
{
anchors = (
{
name = bottom;
position = "{335, 0}";
},
{
name = top;
position = "{335, 698}";
}
);
layerId = "EBFFFCD3-BAE4-48A5-9442-B72A90AD34A8";
paths = (
{
closed = 1;
nodes = (
"621 -167 OFFCURVE",
"661 -125 OFFCURVE",
"661 -79 CURVE SMOOTH",
"661 -35 OFFCURVE",
"633 -9 OFFCURVE",
"589 -2 CURVE",
"574 -42 OFFCURVE",
"515 -61 OFFCURVE",
"449 -61 CURVE SMOOTH",
"390 -61 OFFCURVE",
"323 -44 OFFCURVE",
"279 -7 CURVE",
"299 -13 OFFCURVE",
"315 -14 OFFCURVE",
"336 -14 CURVE SMOOTH",
"511 -14 OFFCURVE",
"627 120 OFFCURVE",
"627 349 CURVE SMOOTH",
"627 590 OFFCURVE",
"520 712 OFFCURVE",
"337 712 CURVE SMOOTH",
"155 712 OFFCURVE",
"47 590 OFFCURVE",
"47 348 CURVE SMOOTH",
"47 144 OFFCURVE",
"133 37 OFFCURVE",
"249 -46 CURVE SMOOTH",
"340 -112 OFFCURVE",
"464 -167 OFFCURVE",
"550 -167 CURVE SMOOTH"
);
},
{
closed = 1;
nodes = (
"230 33 OFFCURVE",
"208 158 OFFCURVE",
"208 325 CURVE SMOOTH",
"208 550 OFFCURVE",
"238 665 OFFCURVE",
"336 665 CURVE SMOOTH",
"426 665 OFFCURVE",
"466 570 OFFCURVE",
"466 350 CURVE SMOOTH",
"466 126 OFFCURVE",
"425 33 OFFCURVE",
"334 33 CURVE SMOOTH"
);
}
);
width = 676;
}
);
leftKerningGroup = O;
leftMetricsKey = O;
rightKerningGroup = O;
unicode = 0051;
},
{
glyphname = R;
layers = (
{
anchors = (
{
name = bottom;
position = "{286, 0}";
},
{
name = top;
position = "{252, 688}";
}
);
layerId = "60CFBDE8-BC08-4808-BF41-F011F3E03A54";
paths = (
{
closed = 1;
nodes = (
"136 -8 OFFCURVE",
"141 -4 OFFCURVE",
"145 0 CURVE",
"140 17 OFFCURVE",
"138 78 OFFCURVE",
"138 87 CURVE SMOOTH",
"138 670 LINE",
"150 673 OFFCURVE",
"173 674 OFFCURVE",
"206 674 CURVE SMOOTH",
"370 674 OFFCURVE",
"442 632 OFFCURVE",
"442 500 CURVE SMOOTH",
"442 388 OFFCURVE",
"349 328 OFFCURVE",
"249 328 CURVE SMOOTH",
"193 328 OFFCURVE",
"154 328 OFFCURVE",
"124 329 CURVE",
"131 302 LINE",
"249 302 LINE SMOOTH",
"355 302 OFFCURVE",
"371 250 OFFCURVE",
"391 200 CURVE SMOOTH",
"453 45 LINE SMOOTH",
"466 12 OFFCURVE",
"490 -8 OFFCURVE",
"513 -8 CURVE SMOOTH",
"528 -8 OFFCURVE",
"555 1 OFFCURVE",
"555 22 CURVE SMOOTH",
"555 27 OFFCURVE",
"554 32 OFFCURVE",
"550 37 CURVE",
"541 22 OFFCURVE",
"524 20 OFFCURVE",
"517 20 CURVE SMOOTH",
"502 20 OFFCURVE",
"492 29 OFFCURVE",
"479 61 CURVE SMOOTH",
"422 202 LINE SMOOTH",
"398 262 OFFCURVE",
"372 321 OFFCURVE",
"307 321 CURVE",
"312 312 LINE",
"406 329 OFFCURVE",
"474 401 OFFCURVE",
"474 505 CURVE SMOOTH",
"474 644 OFFCURVE",
"396 700 OFFCURVE",
"209 700 CURVE SMOOTH",
"130 700 OFFCURVE",
"104 689 OFFCURVE",
"101 687 CURVE",
"106 670 OFFCURVE",
"108 609 OFFCURVE",
"108 600 CURVE SMOOTH",
"108 14 LINE",
"109 0 OFFCURVE",
"115 -8 OFFCURVE",
"127 -8 CURVE SMOOTH"
);
}
);
width = 572;
},
{
anchors = (
{
name = bottom;
position = "{343, 0}";
},
{
name = top;
position = "{309, 698}";
}
);
layerId = "EBFFFCD3-BAE4-48A5-9442-B72A90AD34A8";
paths = (
{
closed = 1;
nodes = (
"202 -15 OFFCURVE",
"231 5 OFFCURVE",
"243 16 CURVE",
"225 57 OFFCURVE",
"223 105 OFFCURVE",
"223 138 CURVE SMOOTH",
"223 664 LINE",
"235 665 OFFCURVE",
"249 665 OFFCURVE",
"266 665 CURVE SMOOTH",
"362 665 OFFCURVE",
"397 602 OFFCURVE",
"397 522 CURVE SMOOTH",
"397 432 OFFCURVE",
"354 360 OFFCURVE",
"261 357 CURVE SMOOTH",
"239 356 OFFCURVE",
"218 358 OFFCURVE",
"197 360 CURVE",
"208 310 LINE",
"254 309 LINE SMOOTH",
"321 308 OFFCURVE",
"340 264 OFFCURVE",
"360 214 CURVE SMOOTH",
"388 138 LINE SMOOTH",
"426 43 OFFCURVE",
"449 -14 OFFCURVE",
"536 -14 CURVE SMOOTH",
"567 -14 OFFCURVE",
"618 9 OFFCURVE",
"618 62 CURVE SMOOTH",
"618 73 OFFCURVE",
"616 85 OFFCURVE",
"610 100 CURVE",
"602 94 OFFCURVE",
"593 92 OFFCURVE",
"586 92 CURVE SMOOTH",
"566 93 OFFCURVE",
"549 114 OFFCURVE",
"529 162 CURVE SMOOTH",
"488 255 LINE SMOOTH",
"456 311 OFFCURVE",
"418 348 OFFCURVE",
"315 346 CURVE",
"296 327 LINE",
"447 325 OFFCURVE",
"550 403 OFFCURVE",
"550 531 CURVE SMOOTH",
"550 661 OFFCURVE",
"444 712 OFFCURVE",
"254 712 CURVE SMOOTH",
"165 712 OFFCURVE",
"105 701 OFFCURVE",
"63 681 CURVE",
"80 636 OFFCURVE",
"83 583 OFFCURVE",
"83 551 CURVE SMOOTH",
"83 56 LINE",
"83 12 OFFCURVE",
"117 -15 OFFCURVE",
"163 -15 CURVE SMOOTH"
);
}
);
width = 630;
}
);
leftKerningGroup = H;
leftMetricsKey = H;
rightKerningGroup = R;
unicode = 0052;
},
{
glyphname = S;
layers = (
{
anchors = (
{
name = bottom;
position = "{272, 0}";
},
{
name = top;
position = "{272, 688}";
}
);
layerId = "60CFBDE8-BC08-4808-BF41-F011F3E03A54";
paths = (
{
closed = 1;
nodes = (
"444 -12 OFFCURVE",
"484 80 OFFCURVE",
"484 155 CURVE SMOOTH",
"484 257 OFFCURVE",
"409 313 OFFCURVE",
"288 377 CURVE SMOOTH",
"212 418 OFFCURVE",
"122 458 OFFCURVE",
"122 554 CURVE SMOOTH",
"122 643 OFFCURVE",
"200 672 OFFCURVE",
"278 672 CURVE SMOOTH",
"361 672 OFFCURVE",
"434 639 OFFCURVE",
"434 564 CURVE SMOOTH",
"434 556 OFFCURVE",
"433 547 OFFCURVE",
"428 538 CURVE",
"438 535 OFFCURVE",
"445 535 OFFCURVE",
"452 539 CURVE SMOOTH",
"462 545 OFFCURVE",
"465 554 OFFCURVE",
"465 570 CURVE SMOOTH",
"465 649 OFFCURVE",
"390 700 OFFCURVE",
"280 700 CURVE SMOOTH",
"177 700 OFFCURVE",
"90 655 OFFCURVE",
"90 550 CURVE SMOOTH",
"90 451 OFFCURVE",
"167 408 OFFCURVE",
"271 351 CURVE SMOOTH",
"386 288 OFFCURVE",
"452 245 OFFCURVE",
"452 155 CURVE SMOOTH",
"452 63 OFFCURVE",
"382 16 OFFCURVE",
"274 16 CURVE SMOOTH",
"172 16 OFFCURVE",
"99 58 OFFCURVE",
"99 153 CURVE SMOOTH",
"99 169 OFFCURVE",
"101 176 OFFCURVE",
"104 186 CURVE",
"75 189 OFFCURVE",
"66 174 OFFCURVE",
"66 142 CURVE SMOOTH",
"66 61 OFFCURVE",
"126 -12 OFFCURVE",
"276 -12 CURVE SMOOTH"
);
}
);
width = 543;
},
{
anchors = (
{
name = bottom;
position = "{284, 0}";
},
{
name = top;
position = "{289, 698}";
}
);
layerId = "EBFFFCD3-BAE4-48A5-9442-B72A90AD34A8";
paths = (
{
closed = 1;
nodes = (
"450 -15 OFFCURVE",
"536 75 OFFCURVE",
"536 184 CURVE SMOOTH",
"536 305 OFFCURVE",
"435 366 OFFCURVE",
"342 417 CURVE SMOOTH",
"220 485 OFFCURVE",
"188 521 OFFCURVE",
"188 582 CURVE SMOOTH",
"188 647 OFFCURVE",
"241 665 OFFCURVE",
"282 665 CURVE SMOOTH",
"350 665 OFFCURVE",
"383 632 OFFCURVE",
"394 594 CURVE SMOOTH",
"401 576 OFFCURVE",
"404 555 OFFCURVE",
"403 534 CURVE",
"415 532 OFFCURVE",
"430 531 OFFCURVE",
"441 532 CURVE SMOOTH",
"496 533 OFFCURVE",
"513 563 OFFCURVE",
"513 596 CURVE SMOOTH",
"513 674 OFFCURVE",
"424 712 OFFCURVE",
"298 712 CURVE SMOOTH",
"170 712 OFFCURVE",
"59 662 OFFCURVE",
"59 533 CURVE SMOOTH",
"59 416 OFFCURVE",
"137 361 OFFCURVE",
"265 288 CURVE SMOOTH",
"355 237 OFFCURVE",
"401 203 OFFCURVE",
"401 135 CURVE SMOOTH",
"401 66 OFFCURVE",
"352 34 OFFCURVE",
"293 34 CURVE SMOOTH",
"200 34 OFFCURVE",
"158 93 OFFCURVE",
"149 146 CURVE SMOOTH",
"146 163 OFFCURVE",
"145 183 OFFCURVE",
"149 199 CURVE",
"61 212 OFFCURVE",
"34 172 OFFCURVE",
"34 126 CURVE SMOOTH",
"34 46 OFFCURVE",
"110 -15 OFFCURVE",
"273 -15 CURVE SMOOTH"
);
}
);
width = 568;
}
);
leftKerningGroup = S;
rightKerningGroup = S;
unicode = 0053;
},
{
glyphname = Germandbls;
layers = (
{
layerId = "60CFBDE8-BC08-4808-BF41-F011F3E03A54";
paths = (
{
closed = 1;
nodes = (
"458 -12 OFFCURVE",
"517 62 OFFCURVE",
"517 172 CURVE SMOOTH",
"517 304 OFFCURVE",
"432 363 OFFCURVE",
"337 386 CURVE",
"418 458 OFFCURVE",
"458 535 OFFCURVE",
"489 643 CURVE",
"448 682 OFFCURVE",
"378 700 OFFCURVE",
"288 700 CURVE SMOOTH",
"155 700 OFFCURVE",
"85 636 OFFCURVE",
"85 428 CURVE SMOOTH",
"85 14 LINE SMOOTH",
"85 -1 OFFCURVE",
"86 -8 OFFCURVE",
"98 -8 CURVE SMOOTH",
"110 -8 OFFCURVE",
"117 -2 OFFCURVE",
"119 0 CURVE",
"115 25 OFFCURVE",
"114 42 OFFCURVE",
"114 418 CURVE SMOOTH",
"114 604 OFFCURVE",
"167 672 OFFCURVE",
"283 672 CURVE SMOOTH",
"366 672 OFFCURVE",
"420 660 OFFCURVE",
"458 636 CURVE",
"438 552 OFFCURVE",
"388 463 OFFCURVE",
"307 392 CURVE",
"307 367 LINE",
"385 344 OFFCURVE",
"485 313 OFFCURVE",
"485 172 CURVE SMOOTH",
"485 92 OFFCURVE",
"454 14 OFFCURVE",
"347 14 CURVE SMOOTH",
"279 14 OFFCURVE",
"251 45 OFFCURVE",
"245 77 CURVE",
"232 85 OFFCURVE",
"215 81 OFFCURVE",
"215 66 CURVE SMOOTH",
"215 47 OFFCURVE",
"243 -12 OFFCURVE",
"344 -12 CURVE SMOOTH"
);
}
);
width = 571;
},
{
layerId = "EBFFFCD3-BAE4-48A5-9442-B72A90AD34A8";
paths = (
{
closed = 1;
nodes = (
"532 -14 OFFCURVE",
"614 60 OFFCURVE",
"614 175 CURVE SMOOTH",
"614 297 OFFCURVE",
"527 350 OFFCURVE",
"445 374 CURVE",
"515 444 OFFCURVE",
"554 548 OFFCURVE",
"577 667 CURVE",
"516 712 OFFCURVE",
"408 728 OFFCURVE",
"333 728 CURVE SMOOTH",
"161 728 OFFCURVE",
"61 638 OFFCURVE",
"63 394 CURVE SMOOTH",
"64 67 LINE SMOOTH",
"64 17 OFFCURVE",
"102 -11 OFFCURVE",
"142 -11 CURVE SMOOTH",
"178 -11 OFFCURVE",
"212 10 OFFCURVE",
"223 19 CURVE",
"201 69 OFFCURVE",
"200 82 OFFCURVE",
"199 271 CURVE SMOOTH",
"197 583 OFFCURVE",
"202 683 OFFCURVE",
"330 683 CURVE SMOOTH",
"368 683 OFFCURVE",
"407 676 OFFCURVE",
"433 650 CURVE",
"422 569 OFFCURVE",
"395 472 OFFCURVE",
"322 385 CURVE",
"322 355 LINE",
"415 324 OFFCURVE",
"467 286 OFFCURVE",
"467 156 CURVE SMOOTH",
"467 101 OFFCURVE",
"457 30 OFFCURVE",
"400 30 CURVE SMOOTH",
"361 30 OFFCURVE",
"337 57 OFFCURVE",
"341 137 CURVE",
"296 145 OFFCURVE",
"266 121 OFFCURVE",
"266 79 CURVE SMOOTH",
"266 34 OFFCURVE",
"309 -14 OFFCURVE",
"406 -14 CURVE SMOOTH"
);
}
);
width = 648;
}
);
leftKerningGroup = Germandbls;
unicode = 1E9E;
},
{
glyphname = Schwa;
layers = (
{
layerId = "60CFBDE8-BC08-4808-BF41-F011F3E03A54";
paths = (
{
closed = 1;
nodes = (
"184 700 OFFCURVE",
"104 667 OFFCURVE",
"74 596 CURVE SMOOTH",
"62 568 OFFCURVE",
"70 558 OFFCURVE",
"82 553 CURVE",
"104 637 OFFCURVE",
"189 671 OFFCURVE",
"273 671 CURVE SMOOTH",
"391 671 OFFCURVE",
"504 594 OFFCURVE",
"504 343 CURVE SMOOTH",
"504 120 OFFCURVE",
"407 15 OFFCURVE",
"270 15 CURVE SMOOTH",
"185 15 OFFCURVE",
"93 50 OFFCURVE",
"93 170 CURVE SMOOTH",
"93 284 OFFCURVE",
"161 341 OFFCURVE",
"286 341 CURVE SMOOTH",
"356 341 OFFCURVE",
"461 336 OFFCURVE",
"522 328 CURVE",
"522 353 LINE",
"460 359 OFFCURVE",
"393 366 OFFCURVE",
"298 366 CURVE SMOOTH",
"145 366 OFFCURVE",
"61 301 OFFCURVE",
"61 170 CURVE SMOOTH",
"61 53 OFFCURVE",
"141 -12 OFFCURVE",
"268 -12 CURVE SMOOTH",
"443 -12 OFFCURVE",
"536 127 OFFCURVE",
"536 347 CURVE SMOOTH",
"536 582 OFFCURVE",
"438 700 OFFCURVE",
"276 700 CURVE SMOOTH"
);
}
);
width = 596;
},
{
layerId = "EBFFFCD3-BAE4-48A5-9442-B72A90AD34A8";
paths = (
{
closed = 1;
nodes = (
"179 712 OFFCURVE",
"91 674 OFFCURVE",
"61 607 CURVE SMOOTH",
"45 570 OFFCURVE",
"58 553 OFFCURVE",
"70 548 CURVE",
"98 595 OFFCURVE",
"161 627 OFFCURVE",
"241 627 CURVE SMOOTH",
"359 627 OFFCURVE",
"424 556 OFFCURVE",
"424 335 CURVE SMOOTH",
"424 146 OFFCURVE",
"375 31 OFFCURVE",
"285 31 CURVE SMOOTH",
"240 31 OFFCURVE",
"191 58 OFFCURVE",
"191 158 CURVE SMOOTH",
"191 309 OFFCURVE",
"313 338 OFFCURVE",
"389 338 CURVE SMOOTH",
"427 338 OFFCURVE",
"472 328 OFFCURVE",
"503 313 CURVE",
"508 354 LINE",
"441 388 OFFCURVE",
"350 389 OFFCURVE",
"283 389 CURVE SMOOTH",
"143 389 OFFCURVE",
"44 315 OFFCURVE",
"44 184 CURVE SMOOTH",
"44 51 OFFCURVE",
"148 -14 OFFCURVE",
"281 -14 CURVE SMOOTH",
"470 -14 OFFCURVE",
"571 123 OFFCURVE",
"571 346 CURVE SMOOTH",
"571 580 OFFCURVE",
"461 712 OFFCURVE",
"278 712 CURVE SMOOTH"
);
}
);
width = 616;
}
);
rightKerningGroup = O;
unicode = 018F;
},
{
glyphname = T;
layers = (
{
anchors = (
{
name = bottom;
position = "{259, 0}";
},
{
name = center;
position = "{252, 344}";
},
{
name = top;
position = "{252, 688}";
}
);
layerId = "60CFBDE8-BC08-4808-BF41-F011F3E03A54";
paths = (
{
closed = 1;
nodes = (
"265 -8 OFFCURVE",
"270 -4 OFFCURVE",
"274 0 CURVE",
"270 16 OFFCURVE",
"268 46 OFFCURVE",
"268 87 CURVE SMOOTH",
"267 677 LINE",
"237 675 LINE",
"239 14 LINE SMOOTH",
"239 0 OFFCURVE",
"245 -8 OFFCURVE",
"256 -8 CURVE SMOOTH"
);
},
{
closed = 1;
nodes = (
"103 662 OFFCURVE",
"176 662 OFFCURVE",
"248 662 CURVE SMOOTH",
"322 662 OFFCURVE",
"397 662 OFFCURVE",
"472 662 CURVE",
"483 665 OFFCURVE",
"489 688 OFFCURVE",
"475 688 CURVE",
"29 688 LINE",
"15 688 OFFCURVE",
"21 665 OFFCURVE",
"32 662 CURVE"
);
}
);
width = 503;
},
{
anchors = (
{
name = bottom;
position = "{294, 0}";
},
{
name = center;
position = "{279, 349}";
},
{
name = top;
position = "{279, 698}";
}
);
layerId = "EBFFFCD3-BAE4-48A5-9442-B72A90AD34A8";
paths = (
{
closed = 1;
nodes = (
"328 -15 OFFCURVE",
"357 5 OFFCURVE",
"369 16 CURVE",
"351 60 OFFCURVE",
"349 108 OFFCURVE",
"349 146 CURVE SMOOTH",
"348 665 LINE",
"209 677 LINE",
"209 56 LINE SMOOTH",
"209 12 OFFCURVE",
"243 -15 OFFCURVE",
"289 -15 CURVE SMOOTH"
);
},
{
closed = 1;
nodes = (
"110 608 OFFCURVE",
"202 651 OFFCURVE",
"279 651 CURVE SMOOTH",
"355 651 OFFCURVE",
"449 608 OFFCURVE",
"508 576 CURVE",
"546 593 OFFCURVE",
"562 698 OFFCURVE",
"524 698 CURVE",
"34 698 LINE",
"-4 698 OFFCURVE",
"12 593 OFFCURVE",
"49 576 CURVE"
);
}
);
width = 557;
}
);
leftKerningGroup = T;
rightKerningGroup = T;
unicode = 0054;
},
{
glyphname = U;
layers = (
{
anchors = (
{
name = bottom;
position = "{321, 0}";
},
{
name = ogonek;
position = "{391, 6}";
},
{
name = top;
position = "{321, 688}";
},
{
name = topright;
position = "{547, 690}";
}
);
layerId = "60CFBDE8-BC08-4808-BF41-F011F3E03A54";
paths = (
{
closed = 1;
nodes = (
"547 687 OFFCURVE",
"541 695 OFFCURVE",
"530 695 CURVE SMOOTH",
"521 695 OFFCURVE",
"516 691 OFFCURVE",
"512 687 CURVE",
"516 671 OFFCURVE",
"518 640 OFFCURVE",
"518 600 CURVE SMOOTH",
"518 304 LINE SMOOTH",
"518 115 OFFCURVE",
"450 16 OFFCURVE",
"320 16 CURVE SMOOTH",
"190 16 OFFCURVE",
"130 107 OFFCURVE",
"130 304 CURVE SMOOTH",
"130 673 LINE SMOOTH",
"130 687 OFFCURVE",
"124 695 OFFCURVE",
"113 695 CURVE SMOOTH",
"104 695 OFFCURVE",
"99 691 OFFCURVE",
"95 687 CURVE",
"99 671 OFFCURVE",
"101 640 OFFCURVE",
"101 600 CURVE SMOOTH",
"101 304 LINE SMOOTH",
"101 87 OFFCURVE",
"170 -12 OFFCURVE",
"320 -12 CURVE SMOOTH",
"469 -12 OFFCURVE",
"547 96 OFFCURVE",
"547 304 CURVE SMOOTH",
"547 673 LINE SMOOTH"
);
}
);
width = 642;
},
{
anchors = (
{
name = bottom;
position = "{338, 0}";
},
{
name = ogonek;
position = "{398, -9}";
},
{
name = top;
position = "{338, 698}";
},
{
name = topright;
position = "{533, 697}";
}
);
layerId = "EBFFFCD3-BAE4-48A5-9442-B72A90AD34A8";
paths = (
{
closed = 1;
nodes = (
"603 685 OFFCURVE",
"568 711 OFFCURVE",
"524 711 CURVE SMOOTH",
"485 711 OFFCURVE",
"457 692 OFFCURVE",
"445 681 CURVE",
"462 636 OFFCURVE",
"465 589 OFFCURVE",
"465 551 CURVE SMOOTH",
"465 300 LINE SMOOTH",
"465 126 OFFCURVE",
"427 33 OFFCURVE",
"338 33 CURVE SMOOTH",
"255 33 OFFCURVE",
"219 111 OFFCURVE",
"219 300 CURVE SMOOTH",
"219 641 LINE SMOOTH",
"219 685 OFFCURVE",
"184 711 OFFCURVE",
"140 711 CURVE SMOOTH",
"101 711 OFFCURVE",
"72 692 OFFCURVE",
"60 681 CURVE",
"77 636 OFFCURVE",
"80 589 OFFCURVE",
"80 551 CURVE SMOOTH",
"80 307 LINE SMOOTH",
"80 84 OFFCURVE",
"169 -14 OFFCURVE",
"338 -14 CURVE SMOOTH",
"515 -14 OFFCURVE",
"603 94 OFFCURVE",
"603 307 CURVE SMOOTH",
"603 641 LINE SMOOTH"
);
}
);
width = 676;
}
);
leftKerningGroup = U;
rightKerningGroup = U;
unicode = 0055;
},
{
glyphname = Uhorn;
layers = (
{
anchors = (
{
name = bottom;
position = "{318, 0}";
},
{
name = ogonek;
position = "{391, 6}";
},
{
name = top;
position = "{326, 688}";
},
{
name = topright;
position = "{546, 690}";
}
);
layerId = "60CFBDE8-BC08-4808-BF41-F011F3E03A54";
paths = (
{
closed = 1;
nodes = (
"547 687 OFFCURVE",
"541 695 OFFCURVE",
"530 695 CURVE SMOOTH",
"521 695 OFFCURVE",
"516 691 OFFCURVE",
"512 687 CURVE",
"516 671 OFFCURVE",
"518 640 OFFCURVE",
"518 600 CURVE SMOOTH",
"518 304 LINE SMOOTH",
"518 115 OFFCURVE",
"450 16 OFFCURVE",
"320 16 CURVE SMOOTH",
"190 16 OFFCURVE",
"130 107 OFFCURVE",
"130 304 CURVE SMOOTH",
"130 673 LINE SMOOTH",
"130 687 OFFCURVE",
"124 695 OFFCURVE",
"113 695 CURVE SMOOTH",
"104 695 OFFCURVE",
"99 691 OFFCURVE",
"95 687 CURVE",
"99 671 OFFCURVE",
"101 640 OFFCURVE",
"101 600 CURVE SMOOTH",
"101 304 LINE SMOOTH",
"101 87 OFFCURVE",
"170 -12 OFFCURVE",
"320 -12 CURVE SMOOTH",
"469 -12 OFFCURVE",
"547 96 OFFCURVE",
"547 304 CURVE SMOOTH",
"547 673 LINE SMOOTH"
);
},
{
closed = 1;
nodes = (
"579 685 OFFCURVE",
"608 710 OFFCURVE",
"608 753 CURVE SMOOTH",
"608 770 OFFCURVE",
"602 795 OFFCURVE",
"585 813 CURVE",
"572 808 OFFCURVE",
"560 799 OFFCURVE",
"552 792 CURVE",
"568 773 OFFCURVE",
"570 756 OFFCURVE",
"570 747 CURVE SMOOTH",
"570 722 OFFCURVE",
"555 706 OFFCURVE",
"519 693 CURVE",
"528 670 LINE"
);
}
);
width = 642;
},
{
anchors = (
{
name = bottom;
position = "{347, 0}";
},
{
name = ogonek;
position = "{398, -9}";
},
{
name = top;
position = "{342, 698}";
},
{
name = topright;
position = "{538, 697}";
}
);
layerId = "EBFFFCD3-BAE4-48A5-9442-B72A90AD34A8";
paths = (
{
closed = 1;
nodes = (
"603 685 OFFCURVE",
"568 711 OFFCURVE",
"524 711 CURVE SMOOTH",
"485 711 OFFCURVE",
"457 692 OFFCURVE",
"445 681 CURVE",
"462 636 OFFCURVE",
"465 589 OFFCURVE",
"465 551 CURVE SMOOTH",
"465 300 LINE SMOOTH",
"465 126 OFFCURVE",
"427 33 OFFCURVE",
"338 33 CURVE SMOOTH",
"255 33 OFFCURVE",
"219 111 OFFCURVE",
"219 300 CURVE SMOOTH",
"219 641 LINE SMOOTH",
"219 685 OFFCURVE",
"184 711 OFFCURVE",
"140 711 CURVE SMOOTH",
"101 711 OFFCURVE",
"72 692 OFFCURVE",
"60 681 CURVE",
"77 636 OFFCURVE",
"80 589 OFFCURVE",
"80 551 CURVE SMOOTH",
"80 307 LINE SMOOTH",
"80 84 OFFCURVE",
"169 -14 OFFCURVE",
"338 -14 CURVE SMOOTH",
"515 -14 OFFCURVE",
"603 94 OFFCURVE",
"603 307 CURVE SMOOTH",
"603 641 LINE SMOOTH"
);
},
{
closed = 1;
nodes = (
"589 689 OFFCURVE",
"654 731 OFFCURVE",
"654 786 CURVE SMOOTH",
"654 820 OFFCURVE",
"638 856 OFFCURVE",
"626 869 CURVE",
"601 866 OFFCURVE",
"552 844 OFFCURVE",
"534 831 CURVE",
"545 819 OFFCURVE",
"557 796 OFFCURVE",
"557 773 CURVE SMOOTH",
"557 748 OFFCURVE",
"544 723 OFFCURVE",
"499 707 CURVE",
"516 664 LINE"
);
}
);
width = 676;
}
);
leftKerningGroup = U;
rightKerningGroup = U;
unicode = 01AF;
},
{
glyphname = V;
layers = (
{
anchors = (
{
name = bottom;
position = "{270, 0}";
},
{
name = top;
position = "{270, 688}";
}
);
layerId = "60CFBDE8-BC08-4808-BF41-F011F3E03A54";
paths = (
{
closed = 1;
nodes = (
"282 -8 OFFCURVE",
"289 -6 OFFCURVE",
"297 0 CURVE",
"519 658 LINE SMOOTH",
"521 665 OFFCURVE",
"525 675 OFFCURVE",
"525 682 CURVE SMOOTH",
"526 693 OFFCURVE",
"517 700 OFFCURVE",
"504 700 CURVE SMOOTH",
"499 700 OFFCURVE",
"495 700 OFFCURVE",
"490 698 CURVE",
"492 694 OFFCURVE",
"492 688 OFFCURVE",
"492 684 CURVE SMOOTH",
"492 678 OFFCURVE",
"489 668 OFFCURVE",
"487 663 CURVE SMOOTH",
"269 6 LINE",
"283 6 LINE",
"55 686 LINE SMOOTH",
"52 695 OFFCURVE",
"44 700 OFFCURVE",
"35 700 CURVE SMOOTH",
"28 700 OFFCURVE",
"22 698 OFFCURVE",
"15 691 CURVE",
"20 685 OFFCURVE",
"27 674 OFFCURVE",
"31 661 CURVE SMOOTH",
"250 9 LINE SMOOTH",
"254 -2 OFFCURVE",
"263 -8 OFFCURVE",
"275 -8 CURVE SMOOTH"
);
}
);
width = 553;
},
{
anchors = (
{
name = bottom;
position = "{305, 0}";
},
{
name = top;
position = "{305, 698}";
}
);
layerId = "EBFFFCD3-BAE4-48A5-9442-B72A90AD34A8";
paths = (
{
closed = 1;
nodes = (
"321 -15 OFFCURVE",
"354 -10 OFFCURVE",
"391 4 CURVE",
"581 584 LINE SMOOTH",
"590 612 OFFCURVE",
"595 637 OFFCURVE",
"595 655 CURVE SMOOTH",
"595 695 OFFCURVE",
"572 712 OFFCURVE",
"517 712 CURVE SMOOTH",
"482 712 OFFCURVE",
"462 706 OFFCURVE",
"442 698 CURVE",
"448 691 OFFCURVE",
"452 681 OFFCURVE",
"452 664 CURVE SMOOTH",
"452 649 OFFCURVE",
"449 634 OFFCURVE",
"445 619 CURVE SMOOTH",
"298 7 LINE",
"337 7 LINE",
"175 659 LINE SMOOTH",
"166 695 OFFCURVE",
"136 712 OFFCURVE",
"86 712 CURVE SMOOTH",
"40 712 OFFCURVE",
"16 696 OFFCURVE",
"3 682 CURVE",
"20 664 OFFCURVE",
"31 634 OFFCURVE",
"36 617 CURVE SMOOTH",
"212 23 LINE SMOOTH",
"220 -4 OFFCURVE",
"249 -15 OFFCURVE",
"298 -15 CURVE SMOOTH"
);
}
);
width = 612;
}
);
unicode = 0056;
},
{
glyphname = W;
layers = (
{
anchors = (
{
name = bottom;
position = "{446, 0}";
},
{
name = top;
position = "{446, 688}";
}
);
layerId = "60CFBDE8-BC08-4808-BF41-F011F3E03A54";
paths = (
{
closed = 1;
nodes = (
"840 700 OFFCURVE",
"836 700 OFFCURVE",
"831 698 CURVE",
"833 694 OFFCURVE",
"833 688 OFFCURVE",
"833 684 CURVE SMOOTH",
"833 678 OFFCURVE",
"830 668 OFFCURVE",
"828 663 CURVE",
"653 24 LINE",
"464 629 LINE",
"460 630 OFFCURVE",
"455 630 OFFCURVE",
"451 630 CURVE SMOOTH",
"445 630 OFFCURVE",
"437 628 OFFCURVE",
"432 625 CURVE",
"433 621 OFFCURVE",
"435 614 OFFCURVE",
"431 602 CURVE SMOOTH",
"251 24 LINE",
"65 686 LINE SMOOTH",
"62 695 OFFCURVE",
"54 700 OFFCURVE",
"45 700 CURVE SMOOTH",
"38 700 OFFCURVE",
"32 698 OFFCURVE",
"25 691 CURVE",
"30 685 OFFCURVE",
"37 674 OFFCURVE",
"41 661 CURVE SMOOTH",
"225 9 LINE",
"228 -2 OFFCURVE",
"238 -8 OFFCURVE",
"250 -8 CURVE SMOOTH",
"257 -8 OFFCURVE",
"264 -6 OFFCURVE",
"272 0 CURVE",
"451 574 LINE",
"627 9 LINE",
"630 -2 OFFCURVE",
"640 -8 OFFCURVE",
"652 -8 CURVE SMOOTH",
"659 -8 OFFCURVE",
"666 -6 OFFCURVE",
"673 0 CURVE",
"860 658 LINE SMOOTH",
"862 665 OFFCURVE",
"866 675 OFFCURVE",
"866 682 CURVE",
"867 693 OFFCURVE",
"858 700 OFFCURVE",
"845 700 CURVE SMOOTH"
);
}
);
width = 887;
},
{
anchors = (
{
name = bottom;
position = "{481, 0}";
},
{
name = top;
position = "{489, 698}";
}
);
layerId = "EBFFFCD3-BAE4-48A5-9442-B72A90AD34A8";
paths = (
{
closed = 1;
nodes = (
"823 709 OFFCURVE",
"803 702 OFFCURVE",
"783 695 CURVE",
"789 687 OFFCURVE",
"793 677 OFFCURVE",
"793 661 CURVE SMOOTH",
"793 646 OFFCURVE",
"789 631 OFFCURVE",
"787 615 CURVE",
"691 99 LINE",
"568 602 LINE",
"562 628 OFFCURVE",
"533 640 OFFCURVE",
"497 640 CURVE SMOOTH",
"468 640 OFFCURVE",
"426 632 OFFCURVE",
"398 618 CURVE",
"406 601 OFFCURVE",
"412 576 OFFCURVE",
"404 539 CURVE SMOOTH",
"298 98 LINE",
"186 659 LINE SMOOTH",
"179 695 OFFCURVE",
"147 712 OFFCURVE",
"97 712 CURVE SMOOTH",
"51 712 OFFCURVE",
"27 696 OFFCURVE",
"14 682 CURVE",
"31 664 OFFCURVE",
"43 634 OFFCURVE",
"47 617 CURVE SMOOTH",
"192 23 LINE",
"198 -4 OFFCURVE",
"229 -15 OFFCURVE",
"278 -15 CURVE SMOOTH",
"298 -15 OFFCURVE",
"331 -10 OFFCURVE",
"368 4 CURVE",
"484 465 LINE",
"591 23 LINE",
"598 -4 OFFCURVE",
"629 -15 OFFCURVE",
"670 -15 CURVE SMOOTH",
"693 -15 OFFCURVE",
"727 -10 OFFCURVE",
"763 4 CURVE",
"922 581 LINE SMOOTH",
"930 608 OFFCURVE",
"936 634 OFFCURVE",
"936 652 CURVE",
"937 692 OFFCURVE",
"913 709 OFFCURVE",
"858 709 CURVE SMOOTH"
);
}
);
width = 962;
}
);
leftKerningGroup = W;
rightKerningGroup = W;
unicode = 0057;
},
{
glyphname = X;
layers = (
{
anchors = (
{
name = bottom;
position = "{287, 0}";
},
{
name = top;
position = "{287, 688}";
}
);
layerId = "60CFBDE8-BC08-4808-BF41-F011F3E03A54";
paths = (
{
closed = 1;
nodes = (
"541 -7 OFFCURVE",
"560 12 OFFCURVE",
"560 31 CURVE SMOOTH",
"560 44 OFFCURVE",
"552 54 OFFCURVE",
"537 55 CURVE",
"540 42 OFFCURVE",
"533 23 OFFCURVE",
"510 23 CURVE SMOOTH",
"488 23 OFFCURVE",
"474 42 OFFCURVE",
"461 65 CURVE SMOOTH",
"299 364 LINE",
"152 637 LINE SMOOTH",
"138 663 OFFCURVE",
"113 695 OFFCURVE",
"75 695 CURVE SMOOTH",
"44 695 OFFCURVE",
"25 676 OFFCURVE",
"25 657 CURVE SMOOTH",
"25 644 OFFCURVE",
"33 634 OFFCURVE",
"48 633 CURVE",
"45 649 OFFCURVE",
"52 665 OFFCURVE",
"75 665 CURVE SMOOTH",
"95 665 OFFCURVE",
"109 651 OFFCURVE",
"124 623 CURVE SMOOTH",
"272 349 LINE",
"432 51 LINE SMOOTH",
"447 22 OFFCURVE",
"472 -7 OFFCURVE",
"510 -7 CURVE SMOOTH"
);
},
{
closed = 1;
nodes = (
"57 -5 OFFCURVE",
"63 -1 OFFCURVE",
"68 6 CURVE SMOOTH",
"302 354 LINE",
"284 379 LINE",
"82 81 LINE SMOOTH",
"55 42 OFFCURVE",
"39 23 OFFCURVE",
"31 16 CURVE",
"33 0 OFFCURVE",
"41 -5 OFFCURVE",
"50 -5 CURVE SMOOTH"
);
},
{
closed = 1;
nodes = (
"472 613 LINE SMOOTH",
"493 645 OFFCURVE",
"512 668 OFFCURVE",
"525 679 CURVE",
"522 694 OFFCURVE",
"516 700 OFFCURVE",
"506 700 CURVE SMOOTH",
"499 700 OFFCURVE",
"493 696 OFFCURVE",
"488 689 CURVE SMOOTH",
"284 370 LINE",
"301 348 LINE"
);
}
);
width = 574;
},
{
anchors = (
{
name = bottom;
position = "{320, 0}";
},
{
name = top;
position = "{320, 698}";
}
);
layerId = "EBFFFCD3-BAE4-48A5-9442-B72A90AD34A8";
paths = (
{
closed = 1;
nodes = (
"581 -14 OFFCURVE",
"623 29 OFFCURVE",
"623 73 CURVE SMOOTH",
"623 102 OFFCURVE",
"604 125 OFFCURVE",
"583 135 CURVE",
"580 121 OFFCURVE",
"566 108 OFFCURVE",
"554 108 CURVE SMOOTH",
"541 108 OFFCURVE",
"525 119 OFFCURVE",
"513 142 CURVE SMOOTH",
"362 422 LINE",
"279 587 LINE SMOOTH",
"239 666 OFFCURVE",
"205 707 OFFCURVE",
"132 707 CURVE SMOOTH",
"56 707 OFFCURVE",
"29 664 OFFCURVE",
"29 622 CURVE SMOOTH",
"29 591 OFFCURVE",
"46 569 OFFCURVE",
"68 558 CURVE",
"71 572 OFFCURVE",
"85 585 OFFCURVE",
"100 585 CURVE SMOOTH",
"114 585 OFFCURVE",
"125 574 OFFCURVE",
"138 551 CURVE SMOOTH",
"272 300 LINE",
"373 106 LINE SMOOTH",
"412 32 OFFCURVE",
"443 -14 OFFCURVE",
"514 -14 CURVE SMOOTH"
);
},
{
closed = 1;
nodes = (
"131 -14 OFFCURVE",
"149 3 OFFCURVE",
"164 27 CURVE SMOOTH",
"341 316 LINE",
"283 372 LINE",
"127 153 LINE SMOOTH",
"99 114 OFFCURVE",
"71 83 OFFCURVE",
"23 70 CURVE",
"28 13 OFFCURVE",
"49 -14 OFFCURVE",
"95 -14 CURVE SMOOTH"
);
},
{
closed = 1;
nodes = (
"504 541 LINE SMOOTH",
"530 578 OFFCURVE",
"559 610 OFFCURVE",
"608 623 CURVE",
"602 682 OFFCURVE",
"580 707 OFFCURVE",
"535 707 CURVE SMOOTH",
"497 707 OFFCURVE",
"479 688 OFFCURVE",
"467 666 CURVE SMOOTH",
"305 382 LINE",
"350 327 LINE"
);
}
);
width = 640;
}
);
unicode = 0058;
},
{
glyphname = Y;
layers = (
{
anchors = (
{
name = bottom;
position = "{254, 0}";
},
{
name = top;
position = "{270, 688}";
},
{
name = topleft;
position = "{20, 688}";
}
);
layerId = "60CFBDE8-BC08-4808-BF41-F011F3E03A54";
paths = (
{
closed = 1;
nodes = (
"272 236 LINE",
"480 655 LINE SMOOTH",
"485 665 OFFCURVE",
"488 673 OFFCURVE",
"488 678 CURVE SMOOTH",
"488 692 OFFCURVE",
"480 700 OFFCURVE",
"468 700 CURVE SMOOTH",
"463 700 OFFCURVE",
"459 700 OFFCURVE",
"454 698 CURVE",
"456 694 OFFCURVE",
"456 688 OFFCURVE",
"456 683 CURVE SMOOTH",
"456 678 OFFCURVE",
"453 670 OFFCURVE",
"446 655 CURVE SMOOTH",
"251 253 LINE",
"266 253 LINE",
"63 686 LINE SMOOTH",
"59 695 OFFCURVE",
"52 700 OFFCURVE",
"43 700 CURVE SMOOTH",
"34 700 OFFCURVE",
"26 696 OFFCURVE",
"20 689 CURVE",
"25 683 OFFCURVE",
"36 672 OFFCURVE",
"41 661 CURVE SMOOTH",
"244 236 LINE SMOOTH",
"246 232 OFFCURVE",
"252 228 OFFCURVE",
"260 227 CURVE"
);
},
{
closed = 1;
nodes = (
"243 250 LINE",
"244 14 LINE SMOOTH",
"244 0 OFFCURVE",
"250 -8 OFFCURVE",
"261 -8 CURVE SMOOTH",
"270 -8 OFFCURVE",
"275 -4 OFFCURVE",
"279 0 CURVE",
"275 16 OFFCURVE",
"273 45 OFFCURVE",
"273 87 CURVE SMOOTH",
"272 249 LINE"
);
}
);
width = 512;
},
{
anchors = (
{
name = bottom;
position = "{318, 0}";
},
{
name = top;
position = "{321, 698}";
},
{
name = topleft;
position = "{20, 698}";
}
);
layerId = "EBFFFCD3-BAE4-48A5-9442-B72A90AD34A8";
paths = (
{
closed = 1;
nodes = (
"361 249 LINE",
"550 564 LINE SMOOTH",
"568 592 OFFCURVE",
"583 626 OFFCURVE",
"583 649 CURVE SMOOTH",
"582 680 OFFCURVE",
"564 708 OFFCURVE",
"519 708 CURVE SMOOTH",
"481 708 OFFCURVE",
"460 702 OFFCURVE",
"440 694 CURVE",
"448 685 OFFCURVE",
"454 671 OFFCURVE",
"454 657 CURVE SMOOTH",
"454 643 OFFCURVE",
"451 630 OFFCURVE",
"443 613 CURVE SMOOTH",
"292 277 LINE",
"348 308 LINE",
"200 630 LINE SMOOTH",
"179 676 OFFCURVE",
"159 708 OFFCURVE",
"103 708 CURVE SMOOTH",
"54 708 OFFCURVE",
"17 679 OFFCURVE",
"4 665 CURVE",
"28 642 OFFCURVE",
"46 612 OFFCURVE",
"55 595 CURVE SMOOTH",
"206 304 LINE SMOOTH",
"223 273 OFFCURVE",
"242 230 OFFCURVE",
"288 230 CURVE"
);
},
{
closed = 1;
nodes = (
"230 284 LINE",
"230 56 LINE SMOOTH",
"230 12 OFFCURVE",
"264 -15 OFFCURVE",
"310 -15 CURVE SMOOTH",
"348 -15 OFFCURVE",
"378 5 OFFCURVE",
"389 16 CURVE",
"372 60 OFFCURVE",
"369 108 OFFCURVE",
"369 146 CURVE SMOOTH",
"369 310 LINE"
);
}
);
width = 600;
}
);
leftKerningGroup = Y;
rightKerningGroup = Y;
unicode = 0059;
},
{
glyphname = Z;
layers = (
{
anchors = (
{
name = bottom;
position = "{283, 0}";
},
{
name = top;
position = "{283, 688}";
}
);
layerId = "60CFBDE8-BC08-4808-BF41-F011F3E03A54";
paths = (
{
closed = 1;
nodes = (
"103 0 OFFCURVE",
"147 0 OFFCURVE",
"187 0 CURVE SMOOTH",
"394 0 LINE SMOOTH",
"482 0 OFFCURVE",
"520 44 OFFCURVE",
"520 97 CURVE SMOOTH",
"520 131 OFFCURVE",
"502 189 OFFCURVE",
"463 189 CURVE SMOOTH",
"455 189 OFFCURVE",
"453 186 OFFCURVE",
"444 181 CURVE",
"468 167 OFFCURVE",
"491 136 OFFCURVE",
"490 95 CURVE SMOOTH",
"489 58 OFFCURVE",
"466 26 OFFCURVE",
"383 26 CURVE SMOOTH",
"78 26 LINE",
"78 13 LINE",
"477 633 LINE SMOOTH",
"485 646 OFFCURVE",
"492 663 OFFCURVE",
"492 685 CURVE",
"475 694 LINE",
"453 689 OFFCURVE",
"416 689 OFFCURVE",
"347 689 CURVE SMOOTH",
"173 689 LINE SMOOTH",
"100 689 OFFCURVE",
"59 649 OFFCURVE",
"59 603 CURVE SMOOTH",
"59 564 OFFCURVE",
"82 519 OFFCURVE",
"116 519 CURVE SMOOTH",
"126 519 OFFCURVE",
"133 523 OFFCURVE",
"136 529 CURVE",
"104 548 OFFCURVE",
"87 568 OFFCURVE",
"87 602 CURVE SMOOTH",
"87 635 OFFCURVE",
"111 663 OFFCURVE",
"176 663 CURVE SMOOTH",
"475 663 LINE",
"463 665 LINE",
"71 53 LINE SMOOTH",
"61 38 OFFCURVE",
"52 21 OFFCURVE",
"52 9 CURVE",
"63 -5 LINE"
);
}
);
width = 553;
},
{
anchors = (
{
name = bottom;
position = "{299, 0}";
},
{
name = top;
position = "{299, 698}";
}
);
layerId = "EBFFFCD3-BAE4-48A5-9442-B72A90AD34A8";
paths = (
{
closed = 1;
nodes = (
"98 5 OFFCURVE",
"116 6 OFFCURVE",
"153 5 CURVE SMOOTH",
"417 -2 LINE SMOOTH",
"524 -4 OFFCURVE",
"574 43 OFFCURVE",
"574 109 CURVE SMOOTH",
"574 156 OFFCURVE",
"548 190 OFFCURVE",
"508 206 CURVE SMOOTH",
"500 210 OFFCURVE",
"493 214 OFFCURVE",
"475 217 CURVE",
"479 200 OFFCURVE",
"478 181 OFFCURVE",
"465 162 CURVE SMOOTH",
"454 144 OFFCURVE",
"426 125 OFFCURVE",
"381 122 CURVE SMOOTH",
"119 103 LINE",
"137 67 LINE",
"516 557 LINE SMOOTH",
"545 593 OFFCURVE",
"551 619 OFFCURVE",
"551 664 CURVE",
"534 705 LINE",
"501 694 OFFCURVE",
"458 693 OFFCURVE",
"419 694 CURVE SMOOTH",
"216 701 LINE SMOOTH",
"92 705 OFFCURVE",
"40 653 OFFCURVE",
"40 587 CURVE SMOOTH",
"40 554 OFFCURVE",
"56 526 OFFCURVE",
"79 511 CURVE SMOOTH",
"96 498 OFFCURVE",
"119 489 OFFCURVE",
"142 485 CURVE",
"136 503 OFFCURVE",
"138 519 OFFCURVE",
"150 542 CURVE SMOOTH",
"163 565 OFFCURVE",
"196 575 OFFCURVE",
"228 577 CURVE SMOOTH",
"465 596 LINE",
"453 635 LINE",
"78 135 LINE SMOOTH",
"49 100 OFFCURVE",
"44 72 OFFCURVE",
"44 26 CURVE",
"62 -7 LINE"
);
}
);
width = 597;
}
);
leftKerningGroup = Z;
rightKerningGroup = Z;
unicode = 005A;
},
{
glyphname = a;
layers = (
{
anchors = (
{
name = bottom;
position = "{267, 0}";
},
{
name = ogonek;
position = "{479, -3}";
},
{
name = top;
position = "{253, 500}";
}
);
layerId = "60CFBDE8-BC08-4808-BF41-F011F3E03A54";
paths = (
{
closed = 1;
nodes = (
"495 -10 OFFCURVE",
"521 2 OFFCURVE",
"521 24 CURVE SMOOTH",
"521 30 OFFCURVE",
"519 37 OFFCURVE",
"512 45 CURVE",
"504 28 OFFCURVE",
"487 18 OFFCURVE",
"474 18 CURVE SMOOTH",
"450 18 OFFCURVE",
"436 34 OFFCURVE",
"436 71 CURVE SMOOTH",
"436 298 LINE SMOOTH",
"436 437 OFFCURVE",
"376 512 OFFCURVE",
"247 512 CURVE SMOOTH",
"143 512 OFFCURVE",
"76 474 OFFCURVE",
"76 395 CURVE SMOOTH",
"76 357 OFFCURVE",
"98 312 OFFCURVE",
"128 312 CURVE SMOOTH",
"134 312 OFFCURVE",
"147 315 OFFCURVE",
"155 328 CURVE",
"121 336 OFFCURVE",
"105 371 OFFCURVE",
"105 397 CURVE SMOOTH",
"105 468 OFFCURVE",
"182 484 OFFCURVE",
"241 484 CURVE SMOOTH",
"357 484 OFFCURVE",
"406 422 OFFCURVE",
"406 298 CURVE SMOOTH",
"406 272 LINE",
"344 279 OFFCURVE",
"270 274 OFFCURVE",
"212 259 CURVE SMOOTH",
"106 230 OFFCURVE",
"55 173 OFFCURVE",
"55 102 CURVE SMOOTH",
"55 38 OFFCURVE",
"93 -12 OFFCURVE",
"173 -12 CURVE SMOOTH",
"271 -12 OFFCURVE",
"373 63 OFFCURVE",
"420 194 CURVE",
"406 206 LINE",
"406 73 LINE SMOOTH",
"406 23 OFFCURVE",
"426 -10 OFFCURVE",
"473 -10 CURVE SMOOTH"
);
},
{
closed = 1;
nodes = (
"111 15 OFFCURVE",
"87 58 OFFCURVE",
"87 104 CURVE SMOOTH",
"87 166 OFFCURVE",
"133 208 OFFCURVE",
"214 232 CURVE SMOOTH",
"264 247 OFFCURVE",
"352 256 OFFCURVE",
"406 251 CURVE",
"403 136 OFFCURVE",
"281 15 OFFCURVE",
"179 15 CURVE SMOOTH"
);
}
);
width = 534;
},
{
anchors = (
{
name = bottom;
position = "{284, 0}";
},
{
name = ogonek;
position = "{471, -10}";
},
{
name = top;
position = "{274, 516}";
}
);
layerId = "EBFFFCD3-BAE4-48A5-9442-B72A90AD34A8";
paths = (
{
closed = 1;
nodes = (
"526 -10 OFFCURVE",
"562 23 OFFCURVE",
"562 62 CURVE SMOOTH",
"562 74 OFFCURVE",
"558 91 OFFCURVE",
"549 105 CURVE",
"542 95 OFFCURVE",
"529 92 OFFCURVE",
"522 92 CURVE SMOOTH",
"500 92 OFFCURVE",
"489 110 OFFCURVE",
"489 145 CURVE SMOOTH",
"489 314 LINE SMOOTH",
"489 470 OFFCURVE",
"422 531 OFFCURVE",
"273 531 CURVE SMOOTH",
"142 531 OFFCURVE",
"58 487 OFFCURVE",
"58 407 CURVE SMOOTH",
"58 355 OFFCURVE",
"95 314 OFFCURVE",
"160 314 CURVE SMOOTH",
"189 314 OFFCURVE",
"217 322 OFFCURVE",
"233 338 CURVE",
"205 354 OFFCURVE",
"198 385 OFFCURVE",
"198 412 CURVE SMOOTH",
"198 465 OFFCURVE",
"226 486 OFFCURVE",
"265 486 CURVE SMOOTH",
"328 486 OFFCURVE",
"348 431 OFFCURVE",
"348 323 CURVE SMOOTH",
"348 298 LINE",
"310 296 OFFCURVE",
"262 292 OFFCURVE",
"209 277 CURVE SMOOTH",
"126 253 OFFCURVE",
"34 204 OFFCURVE",
"34 108 CURVE SMOOTH",
"34 31 OFFCURVE",
"90 -10 OFFCURVE",
"166 -10 CURVE SMOOTH",
"285 -10 OFFCURVE",
"360 84 OFFCURVE",
"380 194 CURVE",
"356 199 LINE",
"356 161 LINE SMOOTH",
"356 33 OFFCURVE",
"398 -10 OFFCURVE",
"467 -10 CURVE SMOOTH"
);
},
{
closed = 1;
nodes = (
"200 75 OFFCURVE",
"185 108 OFFCURVE",
"185 142 CURVE SMOOTH",
"185 182 OFFCURVE",
"208 214 OFFCURVE",
"240 232 CURVE SMOOTH",
"271 250 OFFCURVE",
"313 254 OFFCURVE",
"352 254 CURVE",
"352 156 OFFCURVE",
"289 84 OFFCURVE",
"238 79 CURVE SMOOTH"
);
}
);
width = 568;
}
);
leftKerningGroup = a;
rightKerningGroup = a;
unicode = 0061;
},
{
glyphname = ae;
layers = (
{
anchors = (
{
name = top;
position = "{429, 500}";
}
);
layerId = "60CFBDE8-BC08-4808-BF41-F011F3E03A54";
paths = (
{
closed = 1;
nodes = (
"267 -12 OFFCURVE",
"366 57 OFFCURVE",
"415 177 CURVE",
"409 178 LINE",
"429 52 OFFCURVE",
"505 -12 OFFCURVE",
"620 -12 CURVE SMOOTH",
"696 -12 OFFCURVE",
"762 15 OFFCURVE",
"787 72 CURVE SMOOTH",
"799 100 OFFCURVE",
"791 110 OFFCURVE",
"779 115 CURVE",
"761 45 OFFCURVE",
"692 17 OFFCURVE",
"623 17 CURVE SMOOTH",
"530 17 OFFCURVE",
"442 68 OFFCURVE",
"437 234 CURVE",
"469 229 OFFCURVE",
"505 224 OFFCURVE",
"553 224 CURVE SMOOTH",
"706 224 OFFCURVE",
"790 274 OFFCURVE",
"790 375 CURVE SMOOTH",
"790 463 OFFCURVE",
"727 512 OFFCURVE",
"628 512 CURVE SMOOTH",
"525 512 OFFCURVE",
"455 460 OFFCURVE",
"425 370 CURVE",
"430 369 LINE",
"411 463 OFFCURVE",
"352 512 OFFCURVE",
"247 512 CURVE SMOOTH",
"143 512 OFFCURVE",
"76 474 OFFCURVE",
"76 395 CURVE SMOOTH",
"76 357 OFFCURVE",
"98 312 OFFCURVE",
"128 312 CURVE SMOOTH",
"134 312 OFFCURVE",
"147 315 OFFCURVE",
"155 328 CURVE",
"121 336 OFFCURVE",
"105 371 OFFCURVE",
"105 397 CURVE SMOOTH",
"105 468 OFFCURVE",
"182 484 OFFCURVE",
"241 484 CURVE SMOOTH",
"357 484 OFFCURVE",
"406 422 OFFCURVE",
"406 298 CURVE SMOOTH",
"406 272 LINE",
"344 279 OFFCURVE",
"270 274 OFFCURVE",
"212 259 CURVE SMOOTH",
"106 230 OFFCURVE",
"55 173 OFFCURVE",
"55 102 CURVE SMOOTH",
"55 38 OFFCURVE",
"93 -12 OFFCURVE",
"173 -12 CURVE SMOOTH"
);
},
{
closed = 1;
nodes = (
"111 15 OFFCURVE",
"87 58 OFFCURVE",
"87 104 CURVE SMOOTH",
"87 166 OFFCURVE",
"133 208 OFFCURVE",
"214 232 CURVE SMOOTH",
"266 248 OFFCURVE",
"359 257 OFFCURVE",
"412 250 CURVE",
"405 261 LINE",
"405 249 OFFCURVE",
"405 257 OFFCURVE",
"405 237 CURVE",
"393 126 OFFCURVE",
"277 15 OFFCURVE",
"179 15 CURVE SMOOTH"
);
},
{
closed = 1;
nodes = (
"528 249 OFFCURVE",
"475 253 OFFCURVE",
"437 259 CURVE",
"441 413 OFFCURVE",
"518 485 OFFCURVE",
"626 485 CURVE SMOOTH",
"690 485 OFFCURVE",
"759 460 OFFCURVE",
"759 375 CURVE SMOOTH",
"759 291 OFFCURVE",
"691 249 OFFCURVE",
"565 249 CURVE SMOOTH"
);
}
);
width = 849;
},
{
anchors = (
{
name = top;
position = "{432, 516}";
}
);
layerId = "EBFFFCD3-BAE4-48A5-9442-B72A90AD34A8";
paths = (
{
closed = 1;
nodes = (
"275 -10 OFFCURVE",
"348 69 OFFCURVE",
"378 167 CURVE",
"367 168 LINE",
"396 51 OFFCURVE",
"485 -14 OFFCURVE",
"611 -14 CURVE SMOOTH",
"706 -14 OFFCURVE",
"776 23 OFFCURVE",
"802 88 CURVE SMOOTH",
"817 125 OFFCURVE",
"807 140 OFFCURVE",
"793 146 CURVE",
"771 104 OFFCURVE",
"724 71 OFFCURVE",
"650 71 CURVE SMOOTH",
"567 71 OFFCURVE",
"515 112 OFFCURVE",
"505 230 CURVE",
"540 226 OFFCURVE",
"572 226 OFFCURVE",
"603 226 CURVE SMOOTH",
"730 226 OFFCURVE",
"818 280 OFFCURVE",
"818 379 CURVE SMOOTH",
"818 480 OFFCURVE",
"727 531 OFFCURVE",
"612 531 CURVE SMOOTH",
"528 531 OFFCURVE",
"463 505 OFFCURVE",
"420 456 CURVE",
"441 455 LINE",
"408 504 OFFCURVE",
"355 531 OFFCURVE",
"277 531 CURVE SMOOTH",
"142 531 OFFCURVE",
"58 487 OFFCURVE",
"58 407 CURVE SMOOTH",
"58 355 OFFCURVE",
"95 314 OFFCURVE",
"160 314 CURVE SMOOTH",
"189 314 OFFCURVE",
"217 322 OFFCURVE",
"233 338 CURVE",
"205 354 OFFCURVE",
"198 385 OFFCURVE",
"198 412 CURVE SMOOTH",
"198 465 OFFCURVE",
"226 486 OFFCURVE",
"269 486 CURVE SMOOTH",
"332 486 OFFCURVE",
"352 431 OFFCURVE",
"352 323 CURVE SMOOTH",
"352 298 LINE",
"310 296 OFFCURVE",
"262 292 OFFCURVE",
"209 277 CURVE SMOOTH",
"126 253 OFFCURVE",
"34 204 OFFCURVE",
"34 108 CURVE SMOOTH",
"34 31 OFFCURVE",
"90 -10 OFFCURVE",
"166 -10 CURVE SMOOTH"
);
},
{
closed = 1;
nodes = (
"200 75 OFFCURVE",
"185 108 OFFCURVE",
"185 142 CURVE SMOOTH",
"185 182 OFFCURVE",
"208 214 OFFCURVE",
"240 232 CURVE SMOOTH",
"276 253 OFFCURVE",
"326 255 OFFCURVE",
"375 254 CURVE",
"355 278 LINE",
"356 270 OFFCURVE",
"356 262 OFFCURVE",
"356 254 CURVE SMOOTH",
"356 156 OFFCURVE",
"289 84 OFFCURVE",
"238 79 CURVE SMOOTH"
);
},
{
closed = 1;
nodes = (
"515 276 OFFCURVE",
"509 276 OFFCURVE",
"503 277 CURVE",
"503 407 OFFCURVE",
"541 485 OFFCURVE",
"607 485 CURVE SMOOTH",
"639 485 OFFCURVE",
"670 469 OFFCURVE",
"670 402 CURVE SMOOTH",
"670 284 OFFCURVE",
"581 275 OFFCURVE",
"522 276 CURVE SMOOTH"
);
}
);
width = 849;
}
);
leftKerningGroup = a;
leftMetricsKey = a;
rightKerningGroup = e;
rightMetricsKey = e;
unicode = 00E6;
},
{
glyphname = b;
layers = (
{
anchors = (
{
name = bottom;
position = "{265, 0}";
},
{
name = top;
position = "{265, 500}";
}
);
layerId = "60CFBDE8-BC08-4808-BF41-F011F3E03A54";
paths = (
{
closed = 1;
nodes = (
"419 -12 OFFCURVE",
"476 126 OFFCURVE",
"476 275 CURVE SMOOTH",
"476 438 OFFCURVE",
"417 512 OFFCURVE",
"306 512 CURVE SMOOTH",
"214 512 OFFCURVE",
"145 443 OFFCURVE",
"119 365 CURVE",
"120 635 LINE SMOOTH",
"120 654 OFFCURVE",
"122 710 OFFCURVE",
"125 720 CURVE",
"121 724 OFFCURVE",
"116 728 OFFCURVE",
"107 728 CURVE SMOOTH",
"95 728 OFFCURVE",
"88 720 OFFCURVE",
"88 706 CURVE",
"88 56 LINE",
"135 -2 OFFCURVE",
"220 -12 OFFCURVE",
"267 -12 CURVE SMOOTH"
);
},
{
closed = 1;
nodes = (
"208 14 OFFCURVE",
"138 39 OFFCURVE",
"118 70 CURVE",
"118 220 LINE SMOOTH",
"118 314 OFFCURVE",
"162 484 OFFCURVE",
"308 484 CURVE SMOOTH",
"393 484 OFFCURVE",
"445 421 OFFCURVE",
"445 276 CURVE SMOOTH",
"445 170 OFFCURVE",
"419 20 OFFCURVE",
"270 16 CURVE SMOOTH"
);
}
);
width = 529;
},
{
anchors = (
{
name = bottom;
position = "{278, 0}";
},
{
name = top;
position = "{278, 516}";
}
);
layerId = "EBFFFCD3-BAE4-48A5-9442-B72A90AD34A8";
paths = (
{
closed = 1;
nodes = (
"450 -14 OFFCURVE",
"522 97 OFFCURVE",
"522 277 CURVE SMOOTH",
"522 460 OFFCURVE",
"449 531 OFFCURVE",
"344 531 CURVE SMOOTH",
"269 531 OFFCURVE",
"216 493 OFFCURVE",
"194 431 CURVE",
"194 485 LINE SMOOTH",
"194 534 OFFCURVE",
"197 625 OFFCURVE",
"216 703 CURVE",
"203 713 OFFCURVE",
"172 733 OFFCURVE",
"131 733 CURVE SMOOTH",
"90 733 OFFCURVE",
"58 707 OFFCURVE",
"58 662 CURVE",
"58 52 LINE",
"105 11 OFFCURVE",
"188 -14 OFFCURVE",
"277 -14 CURVE SMOOTH"
);
},
{
closed = 1;
nodes = (
"240 40 OFFCURVE",
"213 49 OFFCURVE",
"195 61 CURVE",
"195 248 LINE SMOOTH",
"195 363 OFFCURVE",
"233 460 OFFCURVE",
"311 460 CURVE SMOOTH",
"357 460 OFFCURVE",
"375 405 OFFCURVE",
"375 277 CURVE SMOOTH",
"375 149 OFFCURVE",
"359 41 OFFCURVE",
"267 40 CURVE SMOOTH"
);
}
);
width = 556;
}
);
leftKerningGroup = h;
rightKerningGroup = o;
rightMetricsKey = o;
unicode = 0062;
},
{
glyphname = c;
layers = (
{
anchors = (
{
name = bottom;
position = "{268, 0}";
},
{
name = top;
position = "{271, 500}";
}
);
layerId = "60CFBDE8-BC08-4808-BF41-F011F3E03A54";
paths = (
{
closed = 1;
nodes = (
"346 -12 OFFCURVE",
"410 21 OFFCURVE",
"435 92 CURVE SMOOTH",
"447 121 OFFCURVE",
"439 130 OFFCURVE",
"427 135 CURVE",
"408 48 OFFCURVE",
"339 17 OFFCURVE",
"268 17 CURVE SMOOTH",
"177 17 OFFCURVE",
"85 70 OFFCURVE",
"85 247 CURVE SMOOTH",
"85 408 OFFCURVE",
"165 486 OFFCURVE",
"272 486 CURVE SMOOTH",
"339 486 OFFCURVE",
"402 455 OFFCURVE",
"402 387 CURVE SMOOTH",
"402 359 OFFCURVE",
"391 335 OFFCURVE",
"365 335 CURVE",
"373 321 OFFCURVE",
"382 319 OFFCURVE",
"391 319 CURVE SMOOTH",
"417 319 OFFCURVE",
"434 347 OFFCURVE",
"434 387 CURVE SMOOTH",
"434 464 OFFCURVE",
"373 512 OFFCURVE",
"277 512 CURVE SMOOTH",
"135 512 OFFCURVE",
"53 409 OFFCURVE",
"53 243 CURVE SMOOTH",
"53 73 OFFCURVE",
"136 -12 OFFCURVE",
"265 -12 CURVE SMOOTH"
);
}
);
width = 499;
},
{
anchors = (
{
name = bottom;
position = "{280, 0}";
},
{
name = top;
position = "{278, 516}";
}
);
layerId = "EBFFFCD3-BAE4-48A5-9442-B72A90AD34A8";
paths = (
{
closed = 1;
nodes = (
"385 -14 OFFCURVE",
"458 28 OFFCURVE",
"477 99 CURVE SMOOTH",
"486 137 OFFCURVE",
"478 155 OFFCURVE",
"464 161 CURVE",
"450 110 OFFCURVE",
"401 71 OFFCURVE",
"330 71 CURVE SMOOTH",
"235 71 OFFCURVE",
"181 134 OFFCURVE",
"181 282 CURVE SMOOTH",
"181 411 OFFCURVE",
"218 485 OFFCURVE",
"280 485 CURVE SMOOTH",
"315 485 OFFCURVE",
"339 467 OFFCURVE",
"339 415 CURVE SMOOTH",
"339 380 OFFCURVE",
"330 356 OFFCURVE",
"311 338 CURVE",
"326 322 OFFCURVE",
"355 314 OFFCURVE",
"382 314 CURVE SMOOTH",
"437 314 OFFCURVE",
"476 348 OFFCURVE",
"476 403 CURVE SMOOTH",
"476 472 OFFCURVE",
"417 531 OFFCURVE",
"291 531 CURVE SMOOTH",
"125 531 OFFCURVE",
"34 428 OFFCURVE",
"34 260 CURVE SMOOTH",
"34 85 OFFCURVE",
"125 -14 OFFCURVE",
"288 -14 CURVE SMOOTH"
);
}
);
width = 513;
}
);
leftKerningGroup = o;
leftMetricsKey = o;
rightKerningGroup = c;
unicode = 0063;
},
{
glyphname = d;
layers = (
{
anchors = (
{
name = bottom;
position = "{274, 0}";
},
{
name = center;
position = "{274, 250}";
},
{
name = top;
position = "{274, 500}";
},
{
name = topright;
position = "{528, 500}";
}
);
layerId = "60CFBDE8-BC08-4808-BF41-F011F3E03A54";
paths = (
{
closed = 1;
nodes = (
"355 -12 OFFCURVE",
"417 112 OFFCURVE",
"434 229 CURVE",
"411 200 LINE",
"411 73 LINE SMOOTH",
"411 20 OFFCURVE",
"430 -7 OFFCURVE",
"468 -7 CURVE SMOOTH",
"492 -7 OFFCURVE",
"508 2 OFFCURVE",
"508 17 CURVE SMOOTH",
"508 24 OFFCURVE",
"505 31 OFFCURVE",
"498 39 CURVE",
"491 23 OFFCURVE",
"479 21 OFFCURVE",
"471 21 CURVE SMOOTH",
"453 21 OFFCURVE",
"441 34 OFFCURVE",
"441 71 CURVE SMOOTH",
"442 706 LINE SMOOTH",
"442 720 OFFCURVE",
"435 728 OFFCURVE",
"423 728 CURVE SMOOTH",
"414 728 OFFCURVE",
"409 724 OFFCURVE",
"405 720 CURVE",
"408 708 OFFCURVE",
"410 682 OFFCURVE",
"410 628 CURVE SMOOTH",
"411 414 LINE",
"389 476 OFFCURVE",
"335 512 OFFCURVE",
"259 512 CURVE SMOOTH",
"124 512 OFFCURVE",
"53 400 OFFCURVE",
"53 222 CURVE SMOOTH",
"53 144 OFFCURVE",
"67 -12 OFFCURVE",
"219 -12 CURVE SMOOTH"
);
},
{
closed = 1;
nodes = (
"97 16 OFFCURVE",
"85 150 OFFCURVE",
"85 224 CURVE SMOOTH",
"85 401 OFFCURVE",
"153 484 OFFCURVE",
"253 484 CURVE SMOOTH",
"381 484 OFFCURVE",
"411 375 OFFCURVE",
"411 286 CURVE SMOOTH",
"411 130 OFFCURVE",
"336 16 OFFCURVE",
"221 16 CURVE SMOOTH"
);
}
);
width = 544;
},
{
anchors = (
{
name = bottom;
position = "{296, 0}";
},
{
name = center;
position = "{296, 258}";
},
{
name = top;
position = "{296, 516}";
},
{
name = topright;
position = "{572, 516}";
}
);
layerId = "EBFFFCD3-BAE4-48A5-9442-B72A90AD34A8";
paths = (
{
closed = 1;
nodes = (
"315 -14 OFFCURVE",
"379 57 OFFCURVE",
"397 209 CURVE",
"376 220 LINE",
"376 174 LINE SMOOTH",
"376 62 OFFCURVE",
"409 -9 OFFCURVE",
"487 -9 CURVE SMOOTH",
"537 -9 OFFCURVE",
"576 20 OFFCURVE",
"576 61 CURVE SMOOTH",
"576 73 OFFCURVE",
"572 90 OFFCURVE",
"563 104 CURVE",
"557 95 OFFCURVE",
"544 93 OFFCURVE",
"537 93 CURVE SMOOTH",
"515 93 OFFCURVE",
"503 110 OFFCURVE",
"503 145 CURVE SMOOTH",
"504 662 LINE SMOOTH",
"504 707 OFFCURVE",
"469 733 OFFCURVE",
"425 733 CURVE SMOOTH",
"386 733 OFFCURVE",
"358 713 OFFCURVE",
"346 703 CURVE",
"366 635 OFFCURVE",
"369 559 OFFCURVE",
"369 513 CURVE SMOOTH",
"369 472 LINE",
"350 510 OFFCURVE",
"309 531 OFFCURVE",
"248 531 CURVE SMOOTH",
"111 531 OFFCURVE",
"34 426 OFFCURVE",
"34 240 CURVE SMOOTH",
"34 92 OFFCURVE",
"85 -14 OFFCURVE",
"212 -14 CURVE SMOOTH"
);
},
{
closed = 1;
nodes = (
"199 60 OFFCURVE",
"181 120 OFFCURVE",
"181 243 CURVE SMOOTH",
"181 381 OFFCURVE",
"208 463 OFFCURVE",
"283 463 CURVE SMOOTH",
"355 463 OFFCURVE",
"366 396 OFFCURVE",
"366 324 CURVE SMOOTH",
"366 193 OFFCURVE",
"333 60 OFFCURVE",
"254 60 CURVE SMOOTH"
);
}
);
width = 592;
}
);
leftKerningGroup = o;
leftMetricsKey = o;
rightKerningGroup = d;
unicode = 0064;
},
{
glyphname = eth;
layers = (
{
layerId = "60CFBDE8-BC08-4808-BF41-F011F3E03A54";
paths = (
{
closed = 1;
nodes = (
"395 -12 OFFCURVE",
"444 117 OFFCURVE",
"444 284 CURVE SMOOTH",
"444 523 OFFCURVE",
"343 728 OFFCURVE",
"165 728 CURVE SMOOTH",
"154 728 OFFCURVE",
"140 711 OFFCURVE",
"145 698 CURVE",
"148 698 OFFCURVE",
"159 699 OFFCURVE",
"170 699 CURVE SMOOTH",
"276 699 OFFCURVE",
"398 550 OFFCURVE",
"406 350 CURVE",
"417 371 LINE",
"411 454 OFFCURVE",
"337 493 OFFCURVE",
"258 493 CURVE SMOOTH",
"124 493 OFFCURVE",
"53 380 OFFCURVE",
"53 234 CURVE SMOOTH",
"53 149 OFFCURVE",
"72 -12 OFFCURVE",
"242 -12 CURVE SMOOTH"
);
},
{
closed = 1;
nodes = (
"111 16 OFFCURVE",
"85 150 OFFCURVE",
"85 246 CURVE SMOOTH",
"85 379 OFFCURVE",
"151 465 OFFCURVE",
"258 465 CURVE SMOOTH",
"380 465 OFFCURVE",
"411 354 OFFCURVE",
"411 266 CURVE SMOOTH",
"411 132 OFFCURVE",
"362 16 OFFCURVE",
"241 16 CURVE SMOOTH"
);
},
{
closed = 1;
nodes = (
"216 574 OFFCURVE",
"219 566 OFFCURVE",
"227 560 CURVE",
"429 667 LINE",
"429 677 OFFCURVE",
"426 685 OFFCURVE",
"418 689 CURVE",
"216 582 LINE"
);
}
);
width = 497;
},
{
layerId = "EBFFFCD3-BAE4-48A5-9442-B72A90AD34A8";
paths = (
{
closed = 1;
nodes = (
"433 -14 OFFCURVE",
"515 119 OFFCURVE",
"515 294 CURVE SMOOTH",
"515 536 OFFCURVE",
"413 734 OFFCURVE",
"232 734 CURVE SMOOTH",
"160 734 OFFCURVE",
"146 686 OFFCURVE",
"141 646 CURVE",
"146 647 OFFCURVE",
"154 648 OFFCURVE",
"163 648 CURVE SMOOTH",
"243 648 OFFCURVE",
"367 561 OFFCURVE",
"372 446 CURVE",
"393 425 LINE",
"377 466 OFFCURVE",
"331 506 OFFCURVE",
"247 506 CURVE SMOOTH",
"112 506 OFFCURVE",
"34 401 OFFCURVE",
"34 242 CURVE SMOOTH",
"34 93 OFFCURVE",
"86 -14 OFFCURVE",
"263 -14 CURVE SMOOTH"
);
},
{
closed = 1;
nodes = (
"201 60 OFFCURVE",
"181 120 OFFCURVE",
"181 247 CURVE SMOOTH",
"181 357 OFFCURVE",
"207 438 OFFCURVE",
"282 438 CURVE SMOOTH",
"350 438 OFFCURVE",
"366 370 OFFCURVE",
"366 277 CURVE SMOOTH",
"366 121 OFFCURVE",
"338 60 OFFCURVE",
"270 60 CURVE SMOOTH"
);
},
{
closed = 1;
nodes = (
"213 567 OFFCURVE",
"221 553 OFFCURVE",
"238 543 CURVE",
"472 683 LINE",
"471 704 OFFCURVE",
"462 719 OFFCURVE",
"445 727 CURVE",
"211 586 LINE"
);
}
);
width = 549;
}
);
leftKerningGroup = o;
unicode = 00F0;
},
{
glyphname = dcroat;
layers = (
{
components = (
{
name = d;
}
);
layerId = "60CFBDE8-BC08-4808-BF41-F011F3E03A54";
paths = (
{
closed = 1;
nodes = (
"285 605 OFFCURVE",
"285 596 OFFCURVE",
"289 588 CURVE",
"518 588 LINE",
"522 596 OFFCURVE",
"522 605 OFFCURVE",
"518 613 CURVE",
"289 613 LINE"
);
}
);
width = 548;
},
{
components = (
{
name = d;
}
);
layerId = "EBFFFCD3-BAE4-48A5-9442-B72A90AD34A8";
paths = (
{
closed = 1;
nodes = (
"264 610 OFFCURVE",
"264 594 OFFCURVE",
"269 576 CURVE",
"570 576 LINE",
"575 594 OFFCURVE",
"575 610 OFFCURVE",
"570 627 CURVE",
"269 627 LINE"
);
}
);
width = 592;
}
);
leftKerningGroup = o;
rightKerningGroup = d;
unicode = 0111;
},
{
glyphname = e;
layers = (
{
anchors = (
{
name = bottom;
position = "{249, 0}";
},
{
name = ogonek;
position = "{365, 17}";
},
{
name = top;
position = "{268, 500}";
}
);
layerId = "60CFBDE8-BC08-4808-BF41-F011F3E03A54";
paths = (
{
closed = 1;
nodes = (
"344 -12 OFFCURVE",
"410 15 OFFCURVE",
"435 72 CURVE SMOOTH",
"447 100 OFFCURVE",
"439 110 OFFCURVE",
"427 115 CURVE",
"409 45 OFFCURVE",
"340 17 OFFCURVE",
"271 17 CURVE SMOOTH",
"176 17 OFFCURVE",
"85 71 OFFCURVE",
"85 247 CURVE SMOOTH",
"85 409 OFFCURVE",
"163 485 OFFCURVE",
"274 485 CURVE SMOOTH",
"338 485 OFFCURVE",
"407 460 OFFCURVE",
"407 375 CURVE SMOOTH",
"407 291 OFFCURVE",
"339 249 OFFCURVE",
"213 249 CURVE SMOOTH",
"170 249 OFFCURVE",
"105 254 OFFCURVE",
"67 262 CURVE",
"67 237 LINE",
"104 231 OFFCURVE",
"144 224 OFFCURVE",
"201 224 CURVE SMOOTH",
"354 224 OFFCURVE",
"438 274 OFFCURVE",
"438 375 CURVE SMOOTH",
"438 463 OFFCURVE",
"375 512 OFFCURVE",
"276 512 CURVE SMOOTH",
"130 512 OFFCURVE",
"53 408 OFFCURVE",
"53 243 CURVE SMOOTH",
"53 73 OFFCURVE",
"134 -12 OFFCURVE",
"268 -12 CURVE SMOOTH"
);
}
);
width = 497;
},
{
anchors = (
{
name = bottom;
position = "{268, 0}";
},
{
name = ogonek;
position = "{365, 3.008}";
},
{
name = top;
position = "{272, 516}";
}
);
layerId = "EBFFFCD3-BAE4-48A5-9442-B72A90AD34A8";
paths = (
{
closed = 1;
nodes = (
"384 -14 OFFCURVE",
"454 23 OFFCURVE",
"480 88 CURVE SMOOTH",
"495 125 OFFCURVE",
"485 140 OFFCURVE",
"471 146 CURVE",
"449 104 OFFCURVE",
"402 71 OFFCURVE",
"328 71 CURVE SMOOTH",
"234 71 OFFCURVE",
"181 123 OFFCURVE",
"181 278 CURVE SMOOTH",
"181 407 OFFCURVE",
"219 485 OFFCURVE",
"285 485 CURVE SMOOTH",
"317 485 OFFCURVE",
"348 469 OFFCURVE",
"348 402 CURVE SMOOTH",
"348 284 OFFCURVE",
"259 275 OFFCURVE",
"200 276 CURVE SMOOTH",
"156 277 OFFCURVE",
"129 282 OFFCURVE",
"101 285 CURVE",
"97 244 LINE",
"167 227 OFFCURVE",
"227 226 OFFCURVE",
"281 226 CURVE SMOOTH",
"408 226 OFFCURVE",
"496 280 OFFCURVE",
"496 379 CURVE SMOOTH",
"496 480 OFFCURVE",
"405 531 OFFCURVE",
"290 531 CURVE SMOOTH",
"124 531 OFFCURVE",
"34 428 OFFCURVE",
"34 260 CURVE SMOOTH",
"34 85 OFFCURVE",
"134 -14 OFFCURVE",
"289 -14 CURVE SMOOTH"
);
}
);
width = 527;
}
);
leftKerningGroup = o;
leftMetricsKey = o;
rightKerningGroup = e;
unicode = 0065;
},
{
glyphname = schwa;
layers = (
{
layerId = "60CFBDE8-BC08-4808-BF41-F011F3E03A54";
paths = (
{
closed = 1;
nodes = (
"153 512 OFFCURVE",
"87 485 OFFCURVE",
"62 428 CURVE SMOOTH",
"50 400 OFFCURVE",
"58 390 OFFCURVE",
"70 385 CURVE",
"88 455 OFFCURVE",
"157 483 OFFCURVE",
"226 483 CURVE SMOOTH",
"321 483 OFFCURVE",
"412 429 OFFCURVE",
"412 253 CURVE SMOOTH",
"412 91 OFFCURVE",
"334 15 OFFCURVE",
"223 15 CURVE SMOOTH",
"159 15 OFFCURVE",
"90 40 OFFCURVE",
"90 125 CURVE SMOOTH",
"90 209 OFFCURVE",
"158 251 OFFCURVE",
"284 251 CURVE SMOOTH",
"327 251 OFFCURVE",
"392 246 OFFCURVE",
"430 238 CURVE",
"430 263 LINE",
"393 269 OFFCURVE",
"353 276 OFFCURVE",
"296 276 CURVE SMOOTH",
"143 276 OFFCURVE",
"59 226 OFFCURVE",
"59 125 CURVE SMOOTH",
"59 37 OFFCURVE",
"122 -12 OFFCURVE",
"221 -12 CURVE SMOOTH",
"367 -12 OFFCURVE",
"444 92 OFFCURVE",
"444 257 CURVE SMOOTH",
"444 427 OFFCURVE",
"363 512 OFFCURVE",
"229 512 CURVE SMOOTH"
);
}
);
width = 497;
},
{
layerId = "EBFFFCD3-BAE4-48A5-9442-B72A90AD34A8";
paths = (
{
closed = 1;
nodes = (
"150 531 OFFCURVE",
"81 493 OFFCURVE",
"54 429 CURVE SMOOTH",
"39 392 OFFCURVE",
"50 377 OFFCURVE",
"63 370 CURVE",
"85 412 OFFCURVE",
"132 445 OFFCURVE",
"207 445 CURVE SMOOTH",
"300 445 OFFCURVE",
"353 394 OFFCURVE",
"353 238 CURVE SMOOTH",
"353 109 OFFCURVE",
"316 31 OFFCURVE",
"249 31 CURVE SMOOTH",
"218 31 OFFCURVE",
"186 47 OFFCURVE",
"186 114 CURVE SMOOTH",
"186 233 OFFCURVE",
"275 241 OFFCURVE",
"335 240 CURVE SMOOTH",
"379 239 OFFCURVE",
"406 234 OFFCURVE",
"433 231 CURVE",
"438 272 LINE",
"367 290 OFFCURVE",
"307 291 OFFCURVE",
"254 291 CURVE SMOOTH",
"126 291 OFFCURVE",
"39 237 OFFCURVE",
"39 137 CURVE SMOOTH",
"39 36 OFFCURVE",
"129 -14 OFFCURVE",
"245 -14 CURVE SMOOTH",
"410 -14 OFFCURVE",
"501 89 OFFCURVE",
"501 256 CURVE SMOOTH",
"501 432 OFFCURVE",
"401 531 OFFCURVE",
"245 531 CURVE SMOOTH"
);
}
);
width = 535;
}
);
rightKerningGroup = o;
rightMetricsKey = o;
unicode = 0259;
},
{
glyphname = f;
layers = (
{
anchors = (
{
name = bottom;
position = "{190, 0}";
},
{
name = top;
position = "{190, 500}";
}
);
layerId = "60CFBDE8-BC08-4808-BF41-F011F3E03A54";
paths = (
{
closed = 1;
nodes = (
"144 -8 OFFCURVE",
"149 -4 OFFCURVE",
"153 0 CURVE",
"149 16 OFFCURVE",
"147 47 OFFCURVE",
"147 87 CURVE SMOOTH",
"148 574 LINE SMOOTH",
"148 640 OFFCURVE",
"162 712 OFFCURVE",
"257 712 CURVE SMOOTH",
"305 712 OFFCURVE",
"343 696 OFFCURVE",
"343 648 CURVE SMOOTH",
"343 635 OFFCURVE",
"341 615 OFFCURVE",
"323 593 CURVE",
"325 592 OFFCURVE",
"327 592 OFFCURVE",
"329 592 CURVE SMOOTH",
"344 592 OFFCURVE",
"372 613 OFFCURVE",
"372 656 CURVE SMOOTH",
"372 711 OFFCURVE",
"321 740 OFFCURVE",
"259 740 CURVE SMOOTH",
"135 740 OFFCURVE",
"117 643 OFFCURVE",
"117 577 CURVE SMOOTH",
"118 14 LINE SMOOTH",
"118 0 OFFCURVE",
"124 -8 OFFCURVE",
"135 -8 CURVE SMOOTH"
);
},
{
closed = 1;
nodes = (
"49 473 OFFCURVE",
"83 474 OFFCURVE",
"96 474 CURVE SMOOTH",
"293 474 LINE SMOOTH",
"299 474 OFFCURVE",
"303 480 OFFCURVE",
"304 488 CURVE SMOOTH",
"305 502 LINE",
"295 501 OFFCURVE",
"263 500 OFFCURVE",
"253 500 CURVE SMOOTH",
"48 500 LINE SMOOTH",
"42 500 OFFCURVE",
"38 494 OFFCURVE",
"37 486 CURVE SMOOTH",
"36 472 LINE"
);
}
);
width = 372;
},
{
anchors = (
{
name = bottom;
position = "{203.992, 0}";
},
{
name = top;
position = "{204, 516}";
}
);
layerId = "EBFFFCD3-BAE4-48A5-9442-B72A90AD34A8";
paths = (
{
closed = 1;
nodes = (
"193 -15 OFFCURVE",
"218 0 OFFCURVE",
"236 16 CURVE",
"219 60 OFFCURVE",
"216 116 OFFCURVE",
"216 146 CURVE SMOOTH",
"216 507 LINE SMOOTH",
"216 610 OFFCURVE",
"213 701 OFFCURVE",
"273 701 CURVE SMOOTH",
"299 701 OFFCURVE",
"310 689 OFFCURVE",
"310 661 CURVE SMOOTH",
"310 644 OFFCURVE",
"305 629 OFFCURVE",
"292 610 CURVE",
"304 596 OFFCURVE",
"327 589 OFFCURVE",
"354 589 CURVE SMOOTH",
"397 589 OFFCURVE",
"430 616 OFFCURVE",
"430 655 CURVE SMOOTH",
"430 711 OFFCURVE",
"374 743 OFFCURVE",
"275 743 CURVE SMOOTH",
"125 743 OFFCURVE",
"79 651 OFFCURVE",
"79 532 CURVE SMOOTH",
"79 56 LINE SMOOTH",
"79 12 OFFCURVE",
"113 -15 OFFCURVE",
"158 -15 CURVE SMOOTH"
);
},
{
closed = 1;
nodes = (
"24 453 OFFCURVE",
"58 455 OFFCURVE",
"71 455 CURVE SMOOTH",
"307 455 LINE SMOOTH",
"326 455 OFFCURVE",
"341 466 OFFCURVE",
"342 488 CURVE SMOOTH",
"343 520 LINE",
"333 518 OFFCURVE",
"238 516 OFFCURVE",
"228 516 CURVE SMOOTH",
"48 516 LINE SMOOTH",
"29 516 OFFCURVE",
"13 506 OFFCURVE",
"12 484 CURVE SMOOTH",
"11 451 LINE"
);
}
);
width = 406;
}
);
unicode = 0066;
},
{
glyphname = g;
layers = (
{
anchors = (
{
name = bottom;
position = "{265, 0}";
},
{
name = top;
position = "{265, 500}";
}
);
layerId = "60CFBDE8-BC08-4808-BF41-F011F3E03A54";
paths = (
{
closed = 1;
nodes = (
"343 -240 OFFCURVE",
"442 -170 OFFCURVE",
"442 46 CURVE SMOOTH",
"442 446 LINE",
"395 504 OFFCURVE",
"313 512 OFFCURVE",
"266 512 CURVE SMOOTH",
"73 512 OFFCURVE",
"53 341 OFFCURVE",
"53 247 CURVE SMOOTH",
"53 70 OFFCURVE",
"117 -10 OFFCURVE",
"229 -10 CURVE SMOOTH",
"318 -10 OFFCURVE",
"385 41 OFFCURVE",
"411 125 CURVE",
"411 102 OFFCURVE",
"411 81 OFFCURVE",
"411 62 CURVE SMOOTH",
"411 -126 OFFCURVE",
"352 -212 OFFCURVE",
"210 -212 CURVE SMOOTH",
"145 -212 OFFCURVE",
"85 -186 OFFCURVE",
"85 -113 CURVE SMOOTH",
"85 -89 OFFCURVE",
"92 -71 OFFCURVE",
"111 -60 CURVE",
"107 -54 OFFCURVE",
"101 -51 OFFCURVE",
"92 -51 CURVE SMOOTH",
"74 -51 OFFCURVE",
"56 -76 OFFCURVE",
"56 -116 CURVE SMOOTH",
"56 -199 OFFCURVE",
"126 -240 OFFCURVE",
"208 -240 CURVE SMOOTH"
);
},
{
closed = 1;
nodes = (
"137 18 OFFCURVE",
"85 87 OFFCURVE",
"85 245 CURVE SMOOTH",
"85 332 OFFCURVE",
"104 484 OFFCURVE",
"257 484 CURVE SMOOTH",
"323 484 OFFCURVE",
"384 468 OFFCURVE",
"412 433 CURVE",
"411 247 LINE SMOOTH",
"411 163 OFFCURVE",
"373 18 OFFCURVE",
"231 18 CURVE SMOOTH"
);
}
);
width = 529;
},
{
anchors = (
{
name = bottom;
position = "{274, 0}";
},
{
name = top;
position = "{286, 522}";
}
);
layerId = "EBFFFCD3-BAE4-48A5-9442-B72A90AD34A8";
paths = (
{
closed = 1;
nodes = (
"382 -224 OFFCURVE",
"495 -155 OFFCURVE",
"495 44 CURVE SMOOTH",
"495 465 LINE",
"446 506 OFFCURVE",
"367 531 OFFCURVE",
"280 531 CURVE SMOOTH",
"100 531 OFFCURVE",
"34 413 OFFCURVE",
"34 249 CURVE SMOOTH",
"34 68 OFFCURVE",
"107 2 OFFCURVE",
"212 2 CURVE SMOOTH",
"287 2 OFFCURVE",
"337 37 OFFCURVE",
"360 100 CURVE",
"359 76 OFFCURVE",
"359 43 OFFCURVE",
"359 25 CURVE SMOOTH",
"359 -98 OFFCURVE",
"317 -183 OFFCURVE",
"233 -183 CURVE SMOOTH",
"184 -183 OFFCURVE",
"165 -154 OFFCURVE",
"165 -117 CURVE SMOOTH",
"165 -91 OFFCURVE",
"175 -66 OFFCURVE",
"195 -48 CURVE",
"183 -33 OFFCURVE",
"161 -25 OFFCURVE",
"132 -25 CURVE SMOOTH",
"77 -25 OFFCURVE",
"38 -58 OFFCURVE",
"38 -109 CURVE SMOOTH",
"38 -192 OFFCURVE",
"128 -224 OFFCURVE",
"229 -224 CURVE SMOOTH"
);
},
{
closed = 1;
nodes = (
"197 65 OFFCURVE",
"180 109 OFFCURVE",
"180 235 CURVE SMOOTH",
"180 393 OFFCURVE",
"201 485 OFFCURVE",
"288 485 CURVE SMOOTH",
"315 485 OFFCURVE",
"342 477 OFFCURVE",
"359 464 CURVE",
"358 249 LINE SMOOTH",
"357 133 OFFCURVE",
"322 65 OFFCURVE",
"254 65 CURVE SMOOTH"
);
}
);
width = 547;
}
);
leftKerningGroup = o;
leftMetricsKey = o;
rightKerningGroup = g;
unicode = 0067;
},
{
glyphname = h;
layers = (
{
anchors = (
{
name = bottom;
position = "{279, 0}";
},
{
name = center;
position = "{279, 250}";
},
{
name = top;
position = "{116, 668}";
}
);
layerId = "60CFBDE8-BC08-4808-BF41-F011F3E03A54";
paths = (
{
closed = 1;
nodes = (
"124 -8 OFFCURVE",
"129 -4 OFFCURVE",
"133 0 CURVE",
"127 24 OFFCURVE",
"127 59 OFFCURVE",
"127 247 CURVE SMOOTH",
"127 433 OFFCURVE",
"233 484 OFFCURVE",
"301 484 CURVE SMOOTH",
"396 484 OFFCURVE",
"434 422 OFFCURVE",
"434 298 CURVE SMOOTH",
"435 14 LINE SMOOTH",
"435 0 OFFCURVE",
"441 -8 OFFCURVE",
"452 -8 CURVE SMOOTH",
"461 -8 OFFCURVE",
"466 -4 OFFCURVE",
"470 0 CURVE",
"466 16 OFFCURVE",
"464 47 OFFCURVE",
"464 87 CURVE SMOOTH",
"463 297 LINE SMOOTH",
"463 437 OFFCURVE",
"413 512 OFFCURVE",
"304 512 CURVE SMOOTH",
"210 512 OFFCURVE",
"122 439 OFFCURVE",
"114 319 CURVE",
"127 327 LINE",
"128 640 LINE SMOOTH",
"129 692 OFFCURVE",
"131 709 OFFCURVE",
"134 720 CURVE",
"130 724 OFFCURVE",
"125 728 OFFCURVE",
"116 728 CURVE SMOOTH",
"104 728 OFFCURVE",
"97 720 OFFCURVE",
"97 706 CURVE",
"98 14 LINE SMOOTH",
"98 0 OFFCURVE",
"104 -8 OFFCURVE",
"115 -8 CURVE SMOOTH"
);
}
);
width = 554;
},
{
anchors = (
{
name = bottom;
position = "{286, 0}";
},
{
name = center;
position = "{286, 258}";
},
{
name = top;
position = "{151, 694}";
}
);
layerId = "EBFFFCD3-BAE4-48A5-9442-B72A90AD34A8";
paths = (
{
closed = 1;
nodes = (
"183 -15 OFFCURVE",
"211 4 OFFCURVE",
"223 15 CURVE",
"200 69 OFFCURVE",
"200 105 OFFCURVE",
"200 235 CURVE SMOOTH",
"200 390 OFFCURVE",
"242 468 OFFCURVE",
"303 468 CURVE SMOOTH",
"361 468 OFFCURVE",
"374 410 OFFCURVE",
"374 309 CURVE SMOOTH",
"374 56 LINE SMOOTH",
"374 12 OFFCURVE",
"408 -15 OFFCURVE",
"453 -15 CURVE SMOOTH",
"488 -15 OFFCURVE",
"513 0 OFFCURVE",
"531 16 CURVE",
"514 60 OFFCURVE",
"511 116 OFFCURVE",
"511 146 CURVE SMOOTH",
"511 331 LINE SMOOTH",
"511 464 OFFCURVE",
"460 531 OFFCURVE",
"350 531 CURVE SMOOTH",
"244 531 OFFCURVE",
"191 460 OFFCURVE",
"176 340 CURVE",
"199 371 LINE",
"199 458 LINE SMOOTH",
"200 558 OFFCURVE",
"203 637 OFFCURVE",
"223 703 CURVE",
"210 713 OFFCURVE",
"172 736 OFFCURVE",
"129 732 CURVE SMOOTH",
"92 729 OFFCURVE",
"64 707 OFFCURVE",
"65 662 CURVE",
"65 63 LINE SMOOTH",
"65 15 OFFCURVE",
"100 -15 OFFCURVE",
"145 -15 CURVE SMOOTH"
);
}
);
width = 571;
}
);
leftKerningGroup = h;
rightKerningGroup = n;
rightMetricsKey = n;
unicode = 0068;
},
{
glyphname = hbar;
layers = (
{
components = (
{
name = h;
}
);
layerId = "60CFBDE8-BC08-4808-BF41-F011F3E03A54";
paths = (
{
closed = 1;
nodes = (
"26 605 OFFCURVE",
"26 596 OFFCURVE",
"30 588 CURVE",
"259 588 LINE",
"263 596 OFFCURVE",
"263 605 OFFCURVE",
"259 613 CURVE",
"30 613 LINE"
);
}
);
width = 564;
},
{
components = (
{
name = h;
}
);
layerId = "EBFFFCD3-BAE4-48A5-9442-B72A90AD34A8";
paths = (
{
closed = 1;
nodes = (
"-7 599 OFFCURVE",
"-7 583 OFFCURVE",
"-3 566 CURVE",
"309 566 LINE",
"314 583 OFFCURVE",
"314 599 OFFCURVE",
"309 616 CURVE",
"-3 616 LINE"
);
}
);
width = 573;
}
);
leftKerningGroup = h;
rightKerningGroup = n;
unicode = 0127;
},
{
glyphname = i;
layers = (
{
anchors = (
{
name = bottom;
position = "{124, 0}";
}
);
layerId = "60CFBDE8-BC08-4808-BF41-F011F3E03A54";
paths = (
{
closed = 1;
nodes = (
"138 626 OFFCURVE",
"154 642 OFFCURVE",
"154 660 CURVE SMOOTH",
"154 678 OFFCURVE",
"138 694 OFFCURVE",
"120 694 CURVE SMOOTH",
"102 694 OFFCURVE",
"86 678 OFFCURVE",
"86 660 CURVE SMOOTH",
"86 642 OFFCURVE",
"102 626 OFFCURVE",
"120 626 CURVE SMOOTH"
);
},
{
closed = 1;
nodes = (
"137 490 LINE SMOOTH",
"137 504 OFFCURVE",
"131 512 OFFCURVE",
"120 512 CURVE SMOOTH",
"111 512 OFFCURVE",
"106 508 OFFCURVE",
"102 504 CURVE",
"106 488 OFFCURVE",
"108 457 OFFCURVE",
"108 417 CURVE SMOOTH",
"110 14 LINE SMOOTH",
"110 0 OFFCURVE",
"116 -8 OFFCURVE",
"127 -8 CURVE SMOOTH",
"136 -8 OFFCURVE",
"141 -4 OFFCURVE",
"145 0 CURVE",
"141 16 OFFCURVE",
"139 47 OFFCURVE",
"139 87 CURVE SMOOTH"
);
}
);
width = 248;
},
{
anchors = (
{
name = bottom;
position = "{146, 0}";
}
);
layerId = "EBFFFCD3-BAE4-48A5-9442-B72A90AD34A8";
paths = (
{
closed = 1;
nodes = (
"179 576 OFFCURVE",
"213 610 OFFCURVE",
"213 653 CURVE SMOOTH",
"213 697 OFFCURVE",
"179 731 OFFCURVE",
"136 731 CURVE SMOOTH",
"92 731 OFFCURVE",
"58 697 OFFCURVE",
"58 653 CURVE SMOOTH",
"58 610 OFFCURVE",
"92 576 OFFCURVE",
"136 576 CURVE SMOOTH"
);
},
{
closed = 1;
nodes = (
"208 461 LINE SMOOTH",
"208 506 OFFCURVE",
"175 532 OFFCURVE",
"130 532 CURVE SMOOTH",
"92 532 OFFCURVE",
"65 512 OFFCURVE",
"53 502 CURVE",
"70 457 OFFCURVE",
"73 409 OFFCURVE",
"73 371 CURVE SMOOTH",
"73 56 LINE SMOOTH",
"73 12 OFFCURVE",
"107 -15 OFFCURVE",
"150 -15 CURVE SMOOTH",
"189 -15 OFFCURVE",
"217 5 OFFCURVE",
"229 16 CURVE",
"211 60 OFFCURVE",
"209 108 OFFCURVE",
"209 146 CURVE SMOOTH"
);
}
);
width = 274;
}
);
leftKerningGroup = i;
rightKerningGroup = i;
unicode = 0069;
},
{
glyphname = idotless;
layers = (
{
anchors = (
{
name = bottom;
position = "{111, 0}";
},
{
name = ogonek;
position = "{125, -4}";
},
{
name = top;
position = "{105, 500}";
}
);
layerId = "60CFBDE8-BC08-4808-BF41-F011F3E03A54";
paths = (
{
closed = 1;
nodes = (
"121 490 LINE SMOOTH",
"121 504 OFFCURVE",
"115 512 OFFCURVE",
"104 512 CURVE SMOOTH",
"95 512 OFFCURVE",
"90 508 OFFCURVE",
"86 504 CURVE",
"90 488 OFFCURVE",
"92 457 OFFCURVE",
"92 417 CURVE SMOOTH",
"94 14 LINE SMOOTH",
"94 0 OFFCURVE",
"100 -8 OFFCURVE",
"111 -8 CURVE SMOOTH",
"120 -8 OFFCURVE",
"125 -4 OFFCURVE",
"129 0 CURVE",
"125 16 OFFCURVE",
"123 47 OFFCURVE",
"123 87 CURVE SMOOTH"
);
}
);
width = 223;
},
{
anchors = (
{
name = bottom;
position = "{151, 0}";
},
{
name = ogonek;
position = "{179, 10}";
},
{
name = top;
position = "{129, 516}";
}
);
layerId = "EBFFFCD3-BAE4-48A5-9442-B72A90AD34A8";
paths = (
{
closed = 1;
nodes = (
"208 461 LINE SMOOTH",
"208 506 OFFCURVE",
"175 532 OFFCURVE",
"130 532 CURVE SMOOTH",
"92 532 OFFCURVE",
"65 512 OFFCURVE",
"53 502 CURVE",
"70 457 OFFCURVE",
"73 409 OFFCURVE",
"73 371 CURVE SMOOTH",
"73 56 LINE SMOOTH",
"73 12 OFFCURVE",
"107 -15 OFFCURVE",
"150 -15 CURVE SMOOTH",
"189 -15 OFFCURVE",
"217 5 OFFCURVE",
"229 16 CURVE",
"211 60 OFFCURVE",
"209 108 OFFCURVE",
"209 146 CURVE SMOOTH"
);
}
);
width = 274;
}
);
leftKerningGroup = i;
leftMetricsKey = i;
rightKerningGroup = i;
rightMetricsKey = i;
unicode = 0131;
},
{
glyphname = j;
layers = (
{
layerId = "60CFBDE8-BC08-4808-BF41-F011F3E03A54";
paths = (
{
closed = 1;
nodes = (
"136 -236 OFFCURVE",
"148 -145 OFFCURVE",
"148 -83 CURVE SMOOTH",
"147 490 LINE SMOOTH",
"147 504 OFFCURVE",
"141 512 OFFCURVE",
"130 512 CURVE SMOOTH",
"121 512 OFFCURVE",
"116 508 OFFCURVE",
"112 504 CURVE",
"116 488 OFFCURVE",
"118 455 OFFCURVE",
"118 417 CURVE SMOOTH",
"117 -80 LINE SMOOTH",
"117 -160 OFFCURVE",
"101 -208 OFFCURVE",
"32 -208 CURVE SMOOTH",
"7 -208 OFFCURVE",
"-30 -202 OFFCURVE",
"-30 -154 CURVE SMOOTH",
"-30 -147 OFFCURVE",
"-30 -140 OFFCURVE",
"-28 -132 CURVE",
"-29 -132 OFFCURVE",
"-30 -132 OFFCURVE",
"-31 -132 CURVE SMOOTH",
"-49 -132 OFFCURVE",
"-55 -150 OFFCURVE",
"-55 -164 CURVE SMOOTH",
"-55 -209 OFFCURVE",
"-24 -236 OFFCURVE",
"34 -236 CURVE SMOOTH"
);
},
{
closed = 1;
nodes = (
"148 626 OFFCURVE",
"164 642 OFFCURVE",
"164 660 CURVE SMOOTH",
"164 678 OFFCURVE",
"148 694 OFFCURVE",
"130 694 CURVE SMOOTH",
"112 694 OFFCURVE",
"96 678 OFFCURVE",
"96 660 CURVE SMOOTH",
"96 642 OFFCURVE",
"112 626 OFFCURVE",
"130 626 CURVE SMOOTH"
);
}
);
width = 254;
},
{
layerId = "EBFFFCD3-BAE4-48A5-9442-B72A90AD34A8";
paths = (
{
closed = 1;
nodes = (
"157 -227 OFFCURVE",
"208 -134 OFFCURVE",
"208 -17 CURVE SMOOTH",
"208 460 LINE SMOOTH",
"208 505 OFFCURVE",
"174 531 OFFCURVE",
"130 531 CURVE SMOOTH",
"99 531 OFFCURVE",
"72 518 OFFCURVE",
"53 501 CURVE",
"70 456 OFFCURVE",
"73 400 OFFCURVE",
"73 370 CURVE SMOOTH",
"72 8 LINE SMOOTH",
"72 -92 OFFCURVE",
"73 -185 OFFCURVE",
"26 -185 CURVE SMOOTH",
"9 -185 OFFCURVE",
"-5 -173 OFFCURVE",
"-5 -149 CURVE SMOOTH",
"-5 -135 OFFCURVE",
"1 -117 OFFCURVE",
"11 -102 CURVE",
"0 -80 OFFCURVE",
"-14 -71 OFFCURVE",
"-39 -71 CURVE SMOOTH",
"-87 -71 OFFCURVE",
"-110 -104 OFFCURVE",
"-110 -139 CURVE SMOOTH",
"-110 -188 OFFCURVE",
"-70 -227 OFFCURVE",
"20 -227 CURVE SMOOTH"
);
},
{
closed = 1;
nodes = (
"176 587 OFFCURVE",
"209 620 OFFCURVE",
"209 662 CURVE SMOOTH",
"209 704 OFFCURVE",
"176 737 OFFCURVE",
"134 737 CURVE SMOOTH",
"92 737 OFFCURVE",
"59 704 OFFCURVE",
"59 662 CURVE SMOOTH",
"59 620 OFFCURVE",
"92 587 OFFCURVE",
"134 587 CURVE SMOOTH"
);
}
);
width = 268;
}
);
leftKerningGroup = j;
rightKerningGroup = j;
unicode = 006A;
},
{
glyphname = jdotless;
layers = (
{
anchors = (
{
name = bottom;
position = "{130, 0}";
},
{
name = top;
position = "{130, 500}";
}
);
layerId = "60CFBDE8-BC08-4808-BF41-F011F3E03A54";
paths = (
{
closed = 1;
nodes = (
"136 -236 OFFCURVE",
"148 -145 OFFCURVE",
"148 -83 CURVE SMOOTH",
"147 490 LINE SMOOTH",
"147 504 OFFCURVE",
"141 512 OFFCURVE",
"130 512 CURVE SMOOTH",
"121 512 OFFCURVE",
"116 508 OFFCURVE",
"112 504 CURVE",
"116 488 OFFCURVE",
"118 455 OFFCURVE",
"118 417 CURVE SMOOTH",
"117 -80 LINE SMOOTH",
"117 -160 OFFCURVE",
"101 -208 OFFCURVE",
"32 -208 CURVE SMOOTH",
"7 -208 OFFCURVE",
"-30 -202 OFFCURVE",
"-30 -154 CURVE SMOOTH",
"-30 -147 OFFCURVE",
"-30 -140 OFFCURVE",
"-28 -132 CURVE",
"-29 -132 OFFCURVE",
"-30 -132 OFFCURVE",
"-31 -132 CURVE SMOOTH",
"-49 -132 OFFCURVE",
"-55 -150 OFFCURVE",
"-55 -164 CURVE SMOOTH",
"-55 -209 OFFCURVE",
"-24 -236 OFFCURVE",
"34 -236 CURVE SMOOTH"
);
}
);
width = 238;
},
{
anchors = (
{
name = bottom;
position = "{132, 0}";
},
{
name = top;
position = "{132, 516}";
}
);
layerId = "EBFFFCD3-BAE4-48A5-9442-B72A90AD34A8";
paths = (
{
closed = 1;
nodes = (
"157 -227 OFFCURVE",
"208 -134 OFFCURVE",
"208 -17 CURVE SMOOTH",
"208 460 LINE SMOOTH",
"208 505 OFFCURVE",
"174 531 OFFCURVE",
"130 531 CURVE SMOOTH",
"99 531 OFFCURVE",
"72 518 OFFCURVE",
"53 501 CURVE",
"70 456 OFFCURVE",
"73 400 OFFCURVE",
"73 370 CURVE SMOOTH",
"72 8 LINE SMOOTH",
"72 -92 OFFCURVE",
"73 -185 OFFCURVE",
"26 -185 CURVE SMOOTH",
"9 -185 OFFCURVE",
"-5 -173 OFFCURVE",
"-5 -149 CURVE SMOOTH",
"-5 -135 OFFCURVE",
"1 -117 OFFCURVE",
"11 -102 CURVE",
"0 -80 OFFCURVE",
"-14 -71 OFFCURVE",
"-39 -71 CURVE SMOOTH",
"-87 -71 OFFCURVE",
"-110 -104 OFFCURVE",
"-110 -139 CURVE SMOOTH",
"-110 -188 OFFCURVE",
"-70 -227 OFFCURVE",
"20 -227 CURVE SMOOTH"
);
}
);
width = 267;
}
);
leftMetricsKey = j;
rightMetricsKey = j;
unicode = 0237;
},
{
glyphname = k;
layers = (
{
anchors = (
{
name = bottom;
position = "{269, 0}";
},
{
name = top;
position = "{269, 500}";
}
);
layerId = "60CFBDE8-BC08-4808-BF41-F011F3E03A54";
paths = (
{
closed = 1;
nodes = (
"124 -8 OFFCURVE",
"129 -4 OFFCURVE",
"133 0 CURVE",
"128 21 OFFCURVE",
"127 30 OFFCURVE",
"127 161 CURVE",
"176 174 OFFCURVE",
"243 194 OFFCURVE",
"304 218 CURVE",
"409 31 LINE SMOOTH",
"420 11 OFFCURVE",
"439 -8 OFFCURVE",
"462 -8 CURVE SMOOTH",
"477 -8 OFFCURVE",
"502 1 OFFCURVE",
"502 22 CURVE SMOOTH",
"502 27 OFFCURVE",
"501 32 OFFCURVE",
"497 37 CURVE",
"488 22 OFFCURVE",
"475 20 OFFCURVE",
"468 20 CURVE SMOOTH",
"453 20 OFFCURVE",
"444 28 OFFCURVE",
"433 47 CURVE SMOOTH",
"345 205 LINE",
"340 213 OFFCURVE",
"336 221 OFFCURVE",
"329 229 CURVE",
"398 260 OFFCURVE",
"464 312 OFFCURVE",
"464 395 CURVE SMOOTH",
"464 472 OFFCURVE",
"415 512 OFFCURVE",
"342 512 CURVE SMOOTH",
"232 512 OFFCURVE",
"147 432 OFFCURVE",
"122 315 CURVE",
"127 312 LINE",
"128 640 LINE SMOOTH",
"128 675 OFFCURVE",
"131 711 OFFCURVE",
"134 720 CURVE",
"130 724 OFFCURVE",
"125 728 OFFCURVE",
"116 728 CURVE SMOOTH",
"104 728 OFFCURVE",
"97 720 OFFCURVE",
"97 706 CURVE SMOOTH",
"98 14 LINE SMOOTH",
"98 0 OFFCURVE",
"104 -8 OFFCURVE",
"115 -8 CURVE SMOOTH"
);
},
{
closed = 1;
nodes = (
"127 364 OFFCURVE",
"208 484 OFFCURVE",
"340 484 CURVE SMOOTH",
"394 484 OFFCURVE",
"434 458 OFFCURVE",
"434 394 CURVE SMOOTH",
"434 279 OFFCURVE",
"280 229 OFFCURVE",
"127 185 CURVE"
);
}
);
width = 540;
},
{
anchors = (
{
name = bottom;
position = "{276, 0}";
},
{
name = top;
position = "{276, 516}";
}
);
layerId = "EBFFFCD3-BAE4-48A5-9442-B72A90AD34A8";
paths = (
{
closed = 1;
nodes = (
"185 -15 OFFCURVE",
"208 2 OFFCURVE",
"224 15 CURVE",
"202 65 OFFCURVE",
"201 94 OFFCURVE",
"201 201 CURVE",
"222 204 OFFCURVE",
"242 209 OFFCURVE",
"268 216 CURVE",
"330 66 LINE SMOOTH",
"352 9 OFFCURVE",
"393 -15 OFFCURVE",
"438 -15 CURVE SMOOTH",
"495 -15 OFFCURVE",
"537 21 OFFCURVE",
"537 64 CURVE SMOOTH",
"537 79 OFFCURVE",
"532 95 OFFCURVE",
"519 109 CURVE",
"509 102 OFFCURVE",
"499 100 OFFCURVE",
"491 100 CURVE SMOOTH",
"470 100 OFFCURVE",
"464 114 OFFCURVE",
"447 143 CURVE SMOOTH",
"421 187 LINE",
"402 218 OFFCURVE",
"384 240 OFFCURVE",
"359 245 CURVE",
"432 280 OFFCURVE",
"503 337 OFFCURVE",
"503 420 CURVE SMOOTH",
"503 479 OFFCURVE",
"468 531 OFFCURVE",
"376 531 CURVE SMOOTH",
"279 531 OFFCURVE",
"219 475 OFFCURVE",
"192 392 CURVE",
"199 379 LINE",
"200 456 LINE SMOOTH",
"204 542 OFFCURVE",
"198 583 OFFCURVE",
"221 703 CURVE",
"210 713 OFFCURVE",
"183 733 OFFCURVE",
"143 733 CURVE SMOOTH",
"98 733 OFFCURVE",
"64 707 OFFCURVE",
"65 662 CURVE SMOOTH",
"65 63 LINE SMOOTH",
"65 20 OFFCURVE",
"78 -15 OFFCURVE",
"141 -15 CURVE SMOOTH"
);
},
{
closed = 1;
nodes = (
"201 366 OFFCURVE",
"254 463 OFFCURVE",
"321 463 CURVE SMOOTH",
"345 463 OFFCURVE",
"363 450 OFFCURVE",
"363 411 CURVE SMOOTH",
"363 327 OFFCURVE",
"275 272 OFFCURVE",
"201 250 CURVE"
);
}
);
width = 552;
}
);
leftKerningGroup = h;
leftMetricsKey = h;
rightKerningGroup = k;
unicode = 006B;
},
{
glyphname = kgreenlandic;
layers = (
{
anchors = (
{
name = bottom;
position = "{285, 0}";
},
{
name = top;
position = "{285, 500}";
}
);
layerId = "60CFBDE8-BC08-4808-BF41-F011F3E03A54";
paths = (
{
closed = 1;
nodes = (
"491 -8 OFFCURVE",
"518 1 OFFCURVE",
"518 23 CURVE SMOOTH",
"518 27 OFFCURVE",
"517 32 OFFCURVE",
"513 37 CURVE",
"507 26 OFFCURVE",
"493 20 OFFCURVE",
"480 20 CURVE SMOOTH",
"465 20 OFFCURVE",
"451 28 OFFCURVE",
"442 61 CURVE SMOOTH",
"417 153 LINE SMOOTH",
"399 217 OFFCURVE",
"368 255 OFFCURVE",
"279 261 CURVE",
"273 252 LINE",
"391 274 OFFCURVE",
"445 356 OFFCURVE",
"445 440 CURVE SMOOTH",
"445 480 OFFCURVE",
"437 512 OFFCURVE",
"419 512 CURVE SMOOTH",
"412 512 OFFCURVE",
"403 509 OFFCURVE",
"399 500 CURVE",
"406 490 OFFCURVE",
"413 464 OFFCURVE",
"413 433 CURVE SMOOTH",
"413 352 OFFCURVE",
"338 267 OFFCURVE",
"208 267 CURVE SMOOTH",
"182 267 OFFCURVE",
"144 267 OFFCURVE",
"117 267 CURVE",
"118 241 LINE",
"218 241 LINE SMOOTH",
"347 241 OFFCURVE",
"370 204 OFFCURVE",
"386 151 CURVE SMOOTH",
"416 45 LINE SMOOTH",
"426 11 OFFCURVE",
"453 -8 OFFCURVE",
"476 -8 CURVE SMOOTH"
);
},
{
closed = 1;
nodes = (
"122 -8 OFFCURVE",
"127 -4 OFFCURVE",
"131 0 CURVE",
"127 16 OFFCURVE",
"125 47 OFFCURVE",
"125 87 CURVE",
"125 490 LINE SMOOTH",
"125 504 OFFCURVE",
"119 512 OFFCURVE",
"108 512 CURVE SMOOTH",
"98 512 OFFCURVE",
"92 508 OFFCURVE",
"88 504 CURVE",
"92 488 OFFCURVE",
"94 457 OFFCURVE",
"94 417 CURVE SMOOTH",
"94 14 LINE SMOOTH",
"94 0 OFFCURVE",
"102 -8 OFFCURVE",
"113 -8 CURVE SMOOTH"
);
}
);
width = 563;
},
{
anchors = (
{
name = bottom;
position = "{295, 0}";
},
{
name = top;
position = "{295, 516}";
}
);
layerId = "EBFFFCD3-BAE4-48A5-9442-B72A90AD34A8";
paths = (
{
closed = 1;
nodes = (
"541 -14 OFFCURVE",
"564 17 OFFCURVE",
"564 55 CURVE SMOOTH",
"564 67 OFFCURVE",
"562 80 OFFCURVE",
"556 94 CURVE",
"549 89 OFFCURVE",
"542 86 OFFCURVE",
"532 87 CURVE SMOOTH",
"518 88 OFFCURVE",
"497 95 OFFCURVE",
"478 149 CURVE SMOOTH",
"467 183 LINE SMOOTH",
"443 251 OFFCURVE",
"377 308 OFFCURVE",
"312 279 CURVE",
"310 268 LINE",
"426 278 OFFCURVE",
"524 353 OFFCURVE",
"524 443 CURVE SMOOTH",
"524 514 OFFCURVE",
"460 531 OFFCURVE",
"426 531 CURVE SMOOTH",
"407 531 OFFCURVE",
"391 527 OFFCURVE",
"371 518 CURVE",
"378 508 OFFCURVE",
"389 475 OFFCURVE",
"389 445 CURVE SMOOTH",
"389 386 OFFCURVE",
"346 319 OFFCURVE",
"249 295 CURVE SMOOTH",
"237 293 OFFCURVE",
"212 288 OFFCURVE",
"203 287 CURVE",
"204 239 LINE",
"244 239 LINE SMOOTH",
"308 239 OFFCURVE",
"334 186 OFFCURVE",
"346 144 CURVE SMOOTH",
"364 82 LINE SMOOTH",
"379 29 OFFCURVE",
"420 -14 OFFCURVE",
"485 -14 CURVE SMOOTH"
);
},
{
closed = 1;
nodes = (
"197 -15 OFFCURVE",
"226 5 OFFCURVE",
"238 16 CURVE",
"220 60 OFFCURVE",
"218 108 OFFCURVE",
"218 146 CURVE",
"218 460 LINE SMOOTH",
"218 505 OFFCURVE",
"184 531 OFFCURVE",
"138 531 CURVE SMOOTH",
"99 531 OFFCURVE",
"70 511 OFFCURVE",
"58 501 CURVE",
"75 456 OFFCURVE",
"78 408 OFFCURVE",
"78 370 CURVE SMOOTH",
"78 56 LINE SMOOTH",
"78 12 OFFCURVE",
"112 -15 OFFCURVE",
"158 -15 CURVE SMOOTH"
);
}
);
width = 596;
}
);
leftKerningGroup = i;
leftMetricsKey = b;
unicode = 0138;
},
{
glyphname = l;
layers = (
{
anchors = (
{
name = bottom;
position = "{156, 0}";
},
{
name = center;
position = "{125, 262}";
},
{
name = top;
position = "{128, 705}";
},
{
name = topright;
position = "{191, 688}";
}
);
layerId = "60CFBDE8-BC08-4808-BF41-F011F3E03A54";
paths = (
{
closed = 1;
nodes = (
"192 -10 OFFCURVE",
"218 2 OFFCURVE",
"218 24 CURVE SMOOTH",
"218 30 OFFCURVE",
"216 37 OFFCURVE",
"209 45 CURVE",
"201 28 OFFCURVE",
"184 18 OFFCURVE",
"165 18 CURVE SMOOTH",
"138 18 OFFCURVE",
"124 38 OFFCURVE",
"124 71 CURVE SMOOTH",
"125 524 LINE SMOOTH",
"125 644 OFFCURVE",
"125 705 OFFCURVE",
"131 720 CURVE",
"127 724 OFFCURVE",
"122 728 OFFCURVE",
"113 728 CURVE SMOOTH",
"101 728 OFFCURVE",
"94 720 OFFCURVE",
"94 706 CURVE SMOOTH",
"94 73 LINE SMOOTH",
"94 19 OFFCURVE",
"122 -10 OFFCURVE",
"164 -10 CURVE SMOOTH"
);
}
);
width = 250;
},
{
anchors = (
{
name = bottom;
position = "{173, 0}";
},
{
name = center;
position = "{146, 260}";
},
{
name = top;
position = "{147, 710}";
},
{
name = topright;
position = "{266, 550}";
}
);
layerId = "EBFFFCD3-BAE4-48A5-9442-B72A90AD34A8";
paths = (
{
closed = 1;
nodes = (
"237 -10 OFFCURVE",
"279 20 OFFCURVE",
"279 62 CURVE SMOOTH",
"279 74 OFFCURVE",
"275 91 OFFCURVE",
"265 105 CURVE",
"259 95 OFFCURVE",
"245 92 OFFCURVE",
"236 92 CURVE SMOOTH",
"213 92 OFFCURVE",
"201 110 OFFCURVE",
"201 145 CURVE SMOOTH",
"201 508 LINE SMOOTH",
"201 591 OFFCURVE",
"204 639 OFFCURVE",
"221 703 CURVE",
"210 713 OFFCURVE",
"183 733 OFFCURVE",
"143 733 CURVE SMOOTH",
"98 733 OFFCURVE",
"64 707 OFFCURVE",
"64 662 CURVE SMOOTH",
"64 133 LINE SMOOTH",
"64 45 OFFCURVE",
"107 -10 OFFCURVE",
"188 -10 CURVE SMOOTH"
);
}
);
width = 293;
}
);
leftKerningGroup = h;
rightKerningGroup = l;
unicode = 006C;
},
{
glyphname = lslash;
layers = (
{
components = (
{
name = l;
}
);
layerId = "60CFBDE8-BC08-4808-BF41-F011F3E03A54";
paths = (
{
closed = 1;
nodes = (
"35 164 LINE",
"208 405 LINE",
"188 420 LINE",
"15 178 LINE"
);
}
);
width = 251;
},
{
components = (
{
name = l;
}
);
layerId = "EBFFFCD3-BAE4-48A5-9442-B72A90AD34A8";
paths = (
{
closed = 1;
nodes = (
"14 141 LINE",
"311 532 LINE",
"270 561 LINE",
"-28 170 LINE"
);
}
);
width = 293;
}
);
leftKerningGroup = h;
rightKerningGroup = l;
unicode = 0142;
},
{
glyphname = m;
layers = (
{
anchors = (
{
name = bottom;
position = "{455, 0}";
},
{
name = top;
position = "{438, 500}";
}
);
layerId = "60CFBDE8-BC08-4808-BF41-F011F3E03A54";
paths = (
{
closed = 1;
nodes = (
"782 297 LINE SMOOTH",
"782 437 OFFCURVE",
"737 512 OFFCURVE",
"630 512 CURVE SMOOTH",
"544 512 OFFCURVE",
"469 445 OFFCURVE",
"455 338 CURVE",
"466 335 LINE",
"460 448 OFFCURVE",
"413 512 OFFCURVE",
"314 512 CURVE SMOOTH",
"234 512 OFFCURVE",
"160 447 OFFCURVE",
"141 339 CURVE",
"150 330 LINE",
"150 427 LINE SMOOTH",
"150 481 OFFCURVE",
"122 510 OFFCURVE",
"80 510 CURVE SMOOTH",
"60 510 OFFCURVE",
"36 498 OFFCURVE",
"36 476 CURVE SMOOTH",
"36 470 OFFCURVE",
"38 463 OFFCURVE",
"45 455 CURVE",
"51 472 OFFCURVE",
"64 482 OFFCURVE",
"79 482 CURVE SMOOTH",
"106 482 OFFCURVE",
"120 462 OFFCURVE",
"120 429 CURVE SMOOTH",
"121 14 LINE SMOOTH",
"121 0 OFFCURVE",
"127 -8 OFFCURVE",
"138 -8 CURVE SMOOTH",
"147 -8 OFFCURVE",
"152 -4 OFFCURVE",
"156 0 CURVE",
"150 23 OFFCURVE",
"150 57 OFFCURVE",
"150 237 CURVE SMOOTH",
"150 431 OFFCURVE",
"247 484 OFFCURVE",
"311 484 CURVE SMOOTH",
"404 484 OFFCURVE",
"437 422 OFFCURVE",
"437 298 CURVE SMOOTH",
"438 14 LINE SMOOTH",
"438 0 OFFCURVE",
"444 -8 OFFCURVE",
"455 -8 CURVE SMOOTH",
"464 -8 OFFCURVE",
"469 -4 OFFCURVE",
"473 0 CURVE",
"469 16 OFFCURVE",
"467 47 OFFCURVE",
"467 87 CURVE SMOOTH",
"466 267 LINE SMOOTH",
"471 437 OFFCURVE",
"565 484 OFFCURVE",
"627 484 CURVE SMOOTH",
"720 484 OFFCURVE",
"753 422 OFFCURVE",
"753 298 CURVE SMOOTH",
"754 14 LINE SMOOTH",
"754 0 OFFCURVE",
"760 -8 OFFCURVE",
"771 -8 CURVE SMOOTH",
"780 -8 OFFCURVE",
"785 -4 OFFCURVE",
"789 0 CURVE",
"785 16 OFFCURVE",
"783 47 OFFCURVE",
"783 87 CURVE SMOOTH"
);
}
);
width = 873;
},
{
anchors = (
{
name = bottom;
position = "{462, 0}";
},
{
name = top;
position = "{436, 516}";
}
);
layerId = "EBFFFCD3-BAE4-48A5-9442-B72A90AD34A8";
paths = (
{
closed = 1;
nodes = (
"810 331 LINE SMOOTH",
"810 463 OFFCURVE",
"760 531 OFFCURVE",
"658 531 CURVE SMOOTH",
"566 531 OFFCURVE",
"512 471 OFFCURVE",
"493 383 CURVE",
"508 379 LINE",
"496 479 OFFCURVE",
"452 531 OFFCURVE",
"360 531 CURVE SMOOTH",
"262 531 OFFCURVE",
"213 470 OFFCURVE",
"193 379 CURVE",
"202 356 LINE",
"202 388 LINE SMOOTH",
"202 485 OFFCURVE",
"163 531 OFFCURVE",
"98 531 CURVE SMOOTH",
"46 531 OFFCURVE",
"15 500 OFFCURVE",
"15 458 CURVE SMOOTH",
"15 443 OFFCURVE",
"19 429 OFFCURVE",
"28 415 CURVE",
"34 425 OFFCURVE",
"47 429 OFFCURVE",
"55 429 CURVE SMOOTH",
"73 429 OFFCURVE",
"83 413 OFFCURVE",
"83 376 CURVE SMOOTH",
"84 63 LINE SMOOTH",
"84 15 OFFCURVE",
"118 -15 OFFCURVE",
"163 -15 CURVE SMOOTH",
"206 -15 OFFCURVE",
"230 4 OFFCURVE",
"242 15 CURVE",
"219 69 OFFCURVE",
"219 105 OFFCURVE",
"219 233 CURVE SMOOTH",
"219 391 OFFCURVE",
"258 468 OFFCURVE",
"313 468 CURVE SMOOTH",
"368 468 OFFCURVE",
"379 410 OFFCURVE",
"379 309 CURVE SMOOTH",
"379 56 LINE SMOOTH",
"379 12 OFFCURVE",
"412 -15 OFFCURVE",
"455 -15 CURVE SMOOTH",
"491 -15 OFFCURVE",
"514 0 OFFCURVE",
"532 16 CURVE",
"515 60 OFFCURVE",
"512 116 OFFCURVE",
"512 146 CURVE SMOOTH",
"512 238 LINE SMOOTH",
"513 391 OFFCURVE",
"560 468 OFFCURVE",
"613 468 CURVE SMOOTH",
"669 468 OFFCURVE",
"672 393 OFFCURVE",
"672 309 CURVE SMOOTH",
"672 56 LINE SMOOTH",
"672 12 OFFCURVE",
"706 -15 OFFCURVE",
"751 -15 CURVE SMOOTH",
"787 -15 OFFCURVE",
"812 0 OFFCURVE",
"830 16 CURVE",
"813 60 OFFCURVE",
"810 116 OFFCURVE",
"810 146 CURVE SMOOTH"
);
}
);
width = 870;
}
);
leftKerningGroup = n;
leftMetricsKey = n;
rightKerningGroup = n;
rightMetricsKey = n;
unicode = 006D;
},
{
glyphname = n;
layers = (
{
anchors = (
{
name = bottom;
position = "{283, 0}";
},
{
name = top;
position = "{283, 500}";
}
);
layerId = "60CFBDE8-BC08-4808-BF41-F011F3E03A54";
paths = (
{
closed = 1;
nodes = (
"130 -8 OFFCURVE",
"135 -4 OFFCURVE",
"139 0 CURVE",
"133 24 OFFCURVE",
"133 59 OFFCURVE",
"133 247 CURVE SMOOTH",
"133 433 OFFCURVE",
"239 484 OFFCURVE",
"307 484 CURVE SMOOTH",
"402 484 OFFCURVE",
"440 422 OFFCURVE",
"441 298 CURVE SMOOTH",
"441 14 LINE SMOOTH",
"441 0 OFFCURVE",
"448 -8 OFFCURVE",
"460 -8 CURVE SMOOTH",
"469 -8 OFFCURVE",
"474 -4 OFFCURVE",
"478 0 CURVE",
"474 16 OFFCURVE",
"472 47 OFFCURVE",
"471 87 CURVE SMOOTH",
"471 297 LINE SMOOTH",
"471 437 OFFCURVE",
"420 512 OFFCURVE",
"310 512 CURVE SMOOTH",
"216 512 OFFCURVE",
"128 439 OFFCURVE",
"120 319 CURVE",
"133 327 LINE",
"133 431 LINE SMOOTH",
"133 483 OFFCURVE",
"117 510 OFFCURVE",
"76 510 CURVE SMOOTH",
"52 510 OFFCURVE",
"36 501 OFFCURVE",
"36 486 CURVE SMOOTH",
"36 479 OFFCURVE",
"39 472 OFFCURVE",
"46 464 CURVE",
"53 480 OFFCURVE",
"65 482 OFFCURVE",
"73 482 CURVE SMOOTH",
"94 482 OFFCURVE",
"102 469 OFFCURVE",
"103 432 CURVE SMOOTH",
"103 14 LINE SMOOTH",
"103 0 OFFCURVE",
"109 -8 OFFCURVE",
"121 -8 CURVE SMOOTH"
);
}
);
width = 562;
},
{
anchors = (
{
name = bottom;
position = "{312, 0}";
},
{
name = top;
position = "{312, 516}";
}
);
layerId = "EBFFFCD3-BAE4-48A5-9442-B72A90AD34A8";
paths = (
{
closed = 1;
nodes = (
"198 -15 OFFCURVE",
"227 4 OFFCURVE",
"239 15 CURVE",
"216 69 OFFCURVE",
"216 105 OFFCURVE",
"216 235 CURVE SMOOTH",
"216 387 OFFCURVE",
"258 463 OFFCURVE",
"319 463 CURVE SMOOTH",
"377 463 OFFCURVE",
"389 406 OFFCURVE",
"390 309 CURVE SMOOTH",
"390 56 LINE SMOOTH",
"390 12 OFFCURVE",
"424 -15 OFFCURVE",
"469 -15 CURVE SMOOTH",
"503 -15 OFFCURVE",
"529 -1 OFFCURVE",
"548 16 CURVE",
"530 60 OFFCURVE",
"528 116 OFFCURVE",
"527 146 CURVE SMOOTH",
"527 331 LINE SMOOTH",
"527 464 OFFCURVE",
"476 531 OFFCURVE",
"366 531 CURVE SMOOTH",
"254 531 OFFCURVE",
"199 460 OFFCURVE",
"183 340 CURVE",
"200 371 LINE",
"200 401 LINE SMOOTH",
"200 489 OFFCURVE",
"159 531 OFFCURVE",
"97 531 CURVE SMOOTH",
"44 531 OFFCURVE",
"15 501 OFFCURVE",
"15 460 CURVE SMOOTH",
"15 444 OFFCURVE",
"19 431 OFFCURVE",
"28 417 CURVE",
"34 427 OFFCURVE",
"47 429 OFFCURVE",
"54 429 CURVE SMOOTH",
"71 429 OFFCURVE",
"79 414 OFFCURVE",
"80 376 CURVE SMOOTH",
"80 63 LINE SMOOTH",
"80 15 OFFCURVE",
"114 -15 OFFCURVE",
"161 -15 CURVE SMOOTH"
);
}
);
width = 588;
}
);
leftKerningGroup = n;
rightKerningGroup = n;
unicode = 006E;
},
{
glyphname = o;
layers = (
{
anchors = (
{
name = bottom;
position = "{267, 0}";
},
{
name = center;
position = "{267, 250}";
},
{
name = ogonek;
position = "{481, 10}";
},
{
name = top;
position = "{267, 500}";
},
{
name = topright;
position = "{372, 490}";
}
);
layerId = "60CFBDE8-BC08-4808-BF41-F011F3E03A54";
paths = (
{
closed = 1;
nodes = (
"402 -12 OFFCURVE",
"481 85 OFFCURVE",
"481 250 CURVE SMOOTH",
"481 415 OFFCURVE",
"402 512 OFFCURVE",
"267 512 CURVE SMOOTH",
"132 512 OFFCURVE",
"53 415 OFFCURVE",
"53 250 CURVE SMOOTH",
"53 85 OFFCURVE",
"132 -12 OFFCURVE",
"267 -12 CURVE SMOOTH"
);
},
{
closed = 1;
nodes = (
"153 16 OFFCURVE",
"85 103 OFFCURVE",
"85 250 CURVE SMOOTH",
"85 397 OFFCURVE",
"153 484 OFFCURVE",
"267 484 CURVE SMOOTH",
"381 484 OFFCURVE",
"449 397 OFFCURVE",
"449 250 CURVE SMOOTH",
"449 103 OFFCURVE",
"381 16 OFFCURVE",
"267 16 CURVE SMOOTH"
);
}
);
width = 534;
},
{
anchors = (
{
name = bottom;
position = "{280.992, 0}";
},
{
name = center;
position = "{281, 258}";
},
{
name = ogonek;
position = "{506, 10}";
},
{
name = top;
position = "{281, 516}";
},
{
name = topright;
position = "{406, 502}";
}
);
layerId = "EBFFFCD3-BAE4-48A5-9442-B72A90AD34A8";
paths = (
{
closed = 1;
nodes = (
"437 -14 OFFCURVE",
"528 87 OFFCURVE",
"528 258 CURVE SMOOTH",
"528 430 OFFCURVE",
"437 531 OFFCURVE",
"281 531 CURVE SMOOTH",
"125 531 OFFCURVE",
"34 430 OFFCURVE",
"34 258 CURVE SMOOTH",
"34 87 OFFCURVE",
"125 -14 OFFCURVE",
"281 -14 CURVE SMOOTH"
);
},
{
closed = 1;
nodes = (
"212 32 OFFCURVE",
"181 108 OFFCURVE",
"181 258 CURVE SMOOTH",
"181 409 OFFCURVE",
"212 485 OFFCURVE",
"281 485 CURVE SMOOTH",
"349 485 OFFCURVE",
"380 409 OFFCURVE",
"380 258 CURVE SMOOTH",
"380 108 OFFCURVE",
"349 32 OFFCURVE",
"281 32 CURVE SMOOTH"
);
}
);
width = 562;
}
);
leftKerningGroup = o;
rightKerningGroup = o;
unicode = 006F;
},
{
glyphname = ohorn;
layers = (
{
anchors = (
{
name = bottom;
position = "{268, 0}";
},
{
name = center;
position = "{267, 250}";
},
{
name = ogonek;
position = "{481, 10}";
},
{
name = top;
position = "{267, 500}";
},
{
name = topright;
position = "{371, 490}";
}
);
layerId = "60CFBDE8-BC08-4808-BF41-F011F3E03A54";
paths = (
{
closed = 1;
nodes = (
"402 -12 OFFCURVE",
"481 85 OFFCURVE",
"481 250 CURVE SMOOTH",
"481 415 OFFCURVE",
"402 512 OFFCURVE",
"267 512 CURVE SMOOTH",
"132 512 OFFCURVE",
"53 415 OFFCURVE",
"53 250 CURVE SMOOTH",
"53 85 OFFCURVE",
"132 -12 OFFCURVE",
"267 -12 CURVE SMOOTH"
);
},
{
closed = 1;
nodes = (
"153 16 OFFCURVE",
"85 103 OFFCURVE",
"85 250 CURVE SMOOTH",
"85 397 OFFCURVE",
"153 484 OFFCURVE",
"267 484 CURVE SMOOTH",
"381 484 OFFCURVE",
"449 397 OFFCURVE",
"449 250 CURVE SMOOTH",
"449 103 OFFCURVE",
"381 16 OFFCURVE",
"267 16 CURVE SMOOTH"
);
},
{
closed = 1;
nodes = (
"404 485 OFFCURVE",
"433 510 OFFCURVE",
"433 553 CURVE SMOOTH",
"433 570 OFFCURVE",
"427 595 OFFCURVE",
"410 613 CURVE",
"397 608 OFFCURVE",
"385 599 OFFCURVE",
"377 592 CURVE",
"393 573 OFFCURVE",
"395 556 OFFCURVE",
"395 547 CURVE SMOOTH",
"395 522 OFFCURVE",
"380 506 OFFCURVE",
"344 493 CURVE",
"353 470 LINE"
);
}
);
width = 534;
},
{
anchors = (
{
name = bottom;
position = "{284, 0}";
},
{
name = center;
position = "{281, 258}";
},
{
name = ogonek;
position = "{506, 10}";
},
{
name = top;
position = "{280, 516}";
},
{
name = topright;
position = "{411, 502}";
}
);
layerId = "EBFFFCD3-BAE4-48A5-9442-B72A90AD34A8";
paths = (
{
closed = 1;
nodes = (
"437 -14 OFFCURVE",
"528 87 OFFCURVE",
"528 258 CURVE SMOOTH",
"528 430 OFFCURVE",
"437 531 OFFCURVE",
"281 531 CURVE SMOOTH",
"125 531 OFFCURVE",
"34 430 OFFCURVE",
"34 258 CURVE SMOOTH",
"34 87 OFFCURVE",
"125 -14 OFFCURVE",
"281 -14 CURVE SMOOTH"
);
},
{
closed = 1;
nodes = (
"212 32 OFFCURVE",
"181 108 OFFCURVE",
"181 258 CURVE SMOOTH",
"181 409 OFFCURVE",
"212 485 OFFCURVE",
"281 485 CURVE SMOOTH",
"349 485 OFFCURVE",
"380 409 OFFCURVE",
"380 258 CURVE SMOOTH",
"380 108 OFFCURVE",
"349 32 OFFCURVE",
"281 32 CURVE SMOOTH"
);
},
{
closed = 1;
nodes = (
"462 494 OFFCURVE",
"527 536 OFFCURVE",
"527 591 CURVE SMOOTH",
"527 625 OFFCURVE",
"511 661 OFFCURVE",
"499 674 CURVE",
"474 671 OFFCURVE",
"425 649 OFFCURVE",
"407 636 CURVE",
"418 624 OFFCURVE",
"430 601 OFFCURVE",
"430 578 CURVE SMOOTH",
"430 553 OFFCURVE",
"417 528 OFFCURVE",
"372 512 CURVE",
"389 469 LINE"
);
}
);
width = 562;
}
);
leftKerningGroup = o;
rightKerningGroup = o;
unicode = 01A1;
},
{
glyphname = oslash;
layers = (
{
anchors = (
{
name = bottom;
position = "{267, 0}";
},
{
name = center;
position = "{267, 250}";
},
{
name = ogonek;
position = "{481, 10}";
},
{
name = top;
position = "{267, 500}";
},
{
name = topright;
position = "{372, 490}";
}
);
layerId = "60CFBDE8-BC08-4808-BF41-F011F3E03A54";
paths = (
{
closed = 1;
nodes = (
"427 507 OFFCURVE",
"419 512 OFFCURVE",
"409 512 CURVE",
"388 477 LINE",
"355 500 OFFCURVE",
"315 512 OFFCURVE",
"267 512 CURVE SMOOTH",
"132 512 OFFCURVE",
"53 415 OFFCURVE",
"53 250 CURVE SMOOTH",
"53 155 OFFCURVE",
"79 83 OFFCURVE",
"127 38 CURVE",
"106 3 LINE",
"111 -5 OFFCURVE",
"117 -8 OFFCURVE",
"127 -9 CURVE",
"146 23 LINE",
"179 0 OFFCURVE",
"219 -12 OFFCURVE",
"267 -12 CURVE SMOOTH",
"402 -12 OFFCURVE",
"481 85 OFFCURVE",
"481 250 CURVE SMOOTH",
"481 344 OFFCURVE",
"455 416 OFFCURVE",
"408 461 CURVE",
"431 499 LINE"
);
},
{
closed = 1;
nodes = (
"85 397 OFFCURVE",
"153 484 OFFCURVE",
"267 484 CURVE SMOOTH",
"309 484 OFFCURVE",
"344 472 OFFCURVE",
"372 451 CURVE",
"143 66 LINE",
"106 106 OFFCURVE",
"85 169 OFFCURVE",
"85 250 CURVE SMOOTH"
);
},
{
closed = 1;
nodes = (
"226 16 OFFCURVE",
"190 28 OFFCURVE",
"162 49 CURVE",
"392 433 LINE",
"429 393 OFFCURVE",
"449 330 OFFCURVE",
"449 250 CURVE SMOOTH",
"449 103 OFFCURVE",
"381 16 OFFCURVE",
"267 16 CURVE SMOOTH"
);
}
);
width = 534;
},
{
anchors = (
{
name = bottom;
position = "{280.992, 0}";
},
{
name = center;
position = "{281, 258}";
},
{
name = ogonek;
position = "{506, 10}";
},
{
name = top;
position = "{281, 516}";
},
{
name = topright;
position = "{406, 502}";
}
);
layerId = "EBFFFCD3-BAE4-48A5-9442-B72A90AD34A8";
paths = (
{
closed = 1;
nodes = (
"461 519 OFFCURVE",
"446 528 OFFCURVE",
"427 528 CURVE",
"410 501 LINE",
"374 521 OFFCURVE",
"331 531 OFFCURVE",
"281 531 CURVE SMOOTH",
"125 531 OFFCURVE",
"34 430 OFFCURVE",
"34 258 CURVE SMOOTH",
"34 161 OFFCURVE",
"63 87 OFFCURVE",
"116 41 CURVE",
"91 1 LINE",
"99 -16 OFFCURVE",
"114 -24 OFFCURVE",
"135 -25 CURVE",
"159 12 LINE",
"193 -5 OFFCURVE",
"234 -14 OFFCURVE",
"281 -14 CURVE SMOOTH",
"437 -14 OFFCURVE",
"528 87 OFFCURVE",
"528 258 CURVE SMOOTH",
"528 352 OFFCURVE",
"501 425 OFFCURVE",
"451 471 CURVE",
"471 503 LINE"
);
},
{
closed = 1;
nodes = (
"181 409 OFFCURVE",
"212 485 OFFCURVE",
"281 485 CURVE SMOOTH",
"317 485 OFFCURVE",
"343 464 OFFCURVE",
"359 421 CURVE",
"188 153 LINE",
"183 183 OFFCURVE",
"181 218 OFFCURVE",
"181 258 CURVE SMOOTH"
);
},
{
closed = 1;
nodes = (
"247 32 OFFCURVE",
"222 50 OFFCURVE",
"206 87 CURVE",
"375 352 LINE",
"378 325 OFFCURVE",
"380 293 OFFCURVE",
"380 258 CURVE SMOOTH",
"380 108 OFFCURVE",
"349 32 OFFCURVE",
"281 32 CURVE SMOOTH"
);
}
);
width = 562;
}
);
leftKerningGroup = o;
rightKerningGroup = o;
unicode = 00F8;
},
{
glyphname = oe;
layers = (
{
anchors = (
{
name = top;
position = "{464, 500}";
}
);
layerId = "60CFBDE8-BC08-4808-BF41-F011F3E03A54";
paths = (
{
closed = 1;
nodes = (
"368 -12 OFFCURVE",
"439 43 OFFCURVE",
"467 141 CURVE",
"461 141 LINE",
"488 39 OFFCURVE",
"561 -12 OFFCURVE",
"664 -12 CURVE SMOOTH",
"740 -12 OFFCURVE",
"806 15 OFFCURVE",
"831 72 CURVE SMOOTH",
"843 100 OFFCURVE",
"835 110 OFFCURVE",
"823 115 CURVE",
"805 45 OFFCURVE",
"736 17 OFFCURVE",
"667 17 CURVE SMOOTH",
"574 17 OFFCURVE",
"486 68 OFFCURVE",
"481 234 CURVE",
"513 229 OFFCURVE",
"549 224 OFFCURVE",
"597 224 CURVE SMOOTH",
"750 224 OFFCURVE",
"834 274 OFFCURVE",
"834 375 CURVE SMOOTH",
"834 463 OFFCURVE",
"771 512 OFFCURVE",
"672 512 CURVE SMOOTH",
"563 512 OFFCURVE",
"491 453 OFFCURVE",
"463 354 CURVE",
"469 353 LINE",
"442 454 OFFCURVE",
"370 512 OFFCURVE",
"267 512 CURVE SMOOTH",
"132 512 OFFCURVE",
"53 415 OFFCURVE",
"53 250 CURVE SMOOTH",
"53 85 OFFCURVE",
"132 -12 OFFCURVE",
"267 -12 CURVE SMOOTH"
);
},
{
closed = 1;
nodes = (
"153 16 OFFCURVE",
"85 103 OFFCURVE",
"85 250 CURVE SMOOTH",
"85 397 OFFCURVE",
"153 484 OFFCURVE",
"267 484 CURVE SMOOTH",
"381 484 OFFCURVE",
"449 397 OFFCURVE",
"449 250 CURVE SMOOTH",
"449 103 OFFCURVE",
"381 16 OFFCURVE",
"267 16 CURVE SMOOTH"
);
},
{
closed = 1;
nodes = (
"485 413 OFFCURVE",
"562 485 OFFCURVE",
"670 485 CURVE SMOOTH",
"734 485 OFFCURVE",
"803 460 OFFCURVE",
"803 375 CURVE SMOOTH",
"803 291 OFFCURVE",
"735 249 OFFCURVE",
"609 249 CURVE SMOOTH",
"572 249 OFFCURVE",
"519 253 OFFCURVE",
"481 259 CURVE"
);
}
);
width = 893;
},
{
anchors = (
{
name = top;
position = "{457, 516}";
}
);
layerId = "EBFFFCD3-BAE4-48A5-9442-B72A90AD34A8";
paths = (
{
closed = 1;
nodes = (
"364 -14 OFFCURVE",
"432 24 OFFCURVE",
"466 82 CURVE",
"449 82 LINE",
"479 24 OFFCURVE",
"553 -14 OFFCURVE",
"636 -14 CURVE SMOOTH",
"731 -14 OFFCURVE",
"800 23 OFFCURVE",
"827 88 CURVE SMOOTH",
"842 125 OFFCURVE",
"832 140 OFFCURVE",
"818 146 CURVE",
"796 104 OFFCURVE",
"749 71 OFFCURVE",
"674 71 CURVE SMOOTH",
"592 71 OFFCURVE",
"539 112 OFFCURVE",
"529 230 CURVE",
"564 227 OFFCURVE",
"596 226 OFFCURVE",
"627 226 CURVE SMOOTH",
"755 226 OFFCURVE",
"842 280 OFFCURVE",
"842 379 CURVE SMOOTH",
"842 480 OFFCURVE",
"752 531 OFFCURVE",
"637 531 CURVE SMOOTH",
"550 531 OFFCURVE",
"476 490 OFFCURVE",
"447 435 CURVE",
"464 434 LINE",
"432 492 OFFCURVE",
"362 531 OFFCURVE",
"281 531 CURVE SMOOTH",
"125 531 OFFCURVE",
"34 430 OFFCURVE",
"34 258 CURVE SMOOTH",
"34 87 OFFCURVE",
"125 -14 OFFCURVE",
"281 -14 CURVE SMOOTH"
);
},
{
closed = 1;
nodes = (
"212 32 OFFCURVE",
"181 108 OFFCURVE",
"181 258 CURVE SMOOTH",
"181 409 OFFCURVE",
"212 485 OFFCURVE",
"281 485 CURVE SMOOTH",
"349 485 OFFCURVE",
"380 409 OFFCURVE",
"380 258 CURVE SMOOTH",
"380 108 OFFCURVE",
"349 32 OFFCURVE",
"281 32 CURVE SMOOTH"
);
},
{
closed = 1;
nodes = (
"525 397 OFFCURVE",
"567 485 OFFCURVE",
"633 485 CURVE SMOOTH",
"664 485 OFFCURVE",
"696 469 OFFCURVE",
"696 402 CURVE SMOOTH",
"696 312 OFFCURVE",
"633 276 OFFCURVE",
"562 276 CURVE SMOOTH",
"551 276 OFFCURVE",
"542 277 OFFCURVE",
"529 278 CURVE"
);
}
);
width = 873;
}
);
leftKerningGroup = o;
leftMetricsKey = o;
rightKerningGroup = e;
rightMetricsKey = e;
unicode = 0153;
},
{
glyphname = p;
layers = (
{
anchors = (
{
name = bottom;
position = "{270, 0}";
},
{
name = top;
position = "{270, 500}";
}
);
layerId = "60CFBDE8-BC08-4808-BF41-F011F3E03A54";
paths = (
{
closed = 1;
nodes = (
"189 512 OFFCURVE",
"127 388 OFFCURVE",
"110 271 CURVE",
"133 300 LINE",
"133 431 LINE SMOOTH",
"133 483 OFFCURVE",
"117 510 OFFCURVE",
"76 510 CURVE SMOOTH",
"52 510 OFFCURVE",
"36 501 OFFCURVE",
"36 486 CURVE SMOOTH",
"36 479 OFFCURVE",
"39 472 OFFCURVE",
"46 464 CURVE",
"53 480 OFFCURVE",
"65 482 OFFCURVE",
"73 482 CURVE SMOOTH",
"95 482 OFFCURVE",
"103 469 OFFCURVE",
"103 432 CURVE SMOOTH",
"102 -206 LINE SMOOTH",
"102 -220 OFFCURVE",
"109 -228 OFFCURVE",
"121 -228 CURVE SMOOTH",
"130 -228 OFFCURVE",
"135 -224 OFFCURVE",
"139 -220 CURVE",
"136 -206 OFFCURVE",
"133 -146 OFFCURVE",
"133 -106 CURVE SMOOTH",
"133 86 LINE",
"155 24 OFFCURVE",
"209 -12 OFFCURVE",
"285 -12 CURVE SMOOTH",
"420 -12 OFFCURVE",
"491 100 OFFCURVE",
"491 278 CURVE SMOOTH",
"491 356 OFFCURVE",
"477 512 OFFCURVE",
"325 512 CURVE SMOOTH"
);
},
{
closed = 1;
nodes = (
"447 484 OFFCURVE",
"459 350 OFFCURVE",
"459 276 CURVE SMOOTH",
"459 99 OFFCURVE",
"391 16 OFFCURVE",
"282 16 CURVE SMOOTH",
"157 16 OFFCURVE",
"133 125 OFFCURVE",
"133 214 CURVE SMOOTH",
"133 370 OFFCURVE",
"208 484 OFFCURVE",
"323 484 CURVE SMOOTH"
);
}
);
width = 544;
},
{
anchors = (
{
name = bottom;
position = "{292, 0}";
},
{
name = top;
position = "{292, 516}";
}
);
layerId = "EBFFFCD3-BAE4-48A5-9442-B72A90AD34A8";
paths = (
{
closed = 1;
nodes = (
"268 531 OFFCURVE",
"204 460 OFFCURVE",
"186 307 CURVE",
"207 297 LINE",
"207 343 LINE SMOOTH",
"207 455 OFFCURVE",
"174 526 OFFCURVE",
"98 526 CURVE SMOOTH",
"49 526 OFFCURVE",
"15 497 OFFCURVE",
"15 456 CURVE SMOOTH",
"15 444 OFFCURVE",
"19 427 OFFCURVE",
"28 413 CURVE",
"34 422 OFFCURVE",
"47 424 OFFCURVE",
"54 424 CURVE SMOOTH",
"72 424 OFFCURVE",
"80 408 OFFCURVE",
"80 372 CURVE SMOOTH",
"79 -150 LINE SMOOTH",
"79 -194 OFFCURVE",
"114 -220 OFFCURVE",
"158 -220 CURVE SMOOTH",
"197 -220 OFFCURVE",
"225 -201 OFFCURVE",
"237 -190 CURVE",
"218 -124 OFFCURVE",
"215 -41 OFFCURVE",
"215 4 CURVE SMOOTH",
"215 44 LINE",
"234 6 OFFCURVE",
"276 -14 OFFCURVE",
"334 -14 CURVE SMOOTH",
"466 -14 OFFCURVE",
"551 86 OFFCURVE",
"551 277 CURVE SMOOTH",
"551 416 OFFCURVE",
"504 531 OFFCURVE",
"371 531 CURVE SMOOTH"
);
},
{
closed = 1;
nodes = (
"389 458 OFFCURVE",
"404 390 OFFCURVE",
"404 278 CURVE SMOOTH",
"404 137 OFFCURVE",
"375 56 OFFCURVE",
"299 56 CURVE SMOOTH",
"239 56 OFFCURVE",
"217 104 OFFCURVE",
"217 207 CURVE SMOOTH",
"217 325 OFFCURVE",
"250 458 OFFCURVE",
"329 458 CURVE SMOOTH"
);
}
);
width = 585;
}
);
leftKerningGroup = n;
leftMetricsKey = n;
rightKerningGroup = o;
rightMetricsKey = o;
unicode = 0070;
},
{
glyphname = thorn;
layers = (
{
anchors = (
{
name = bottom;
position = "{291, 0}";
},
{
name = top;
position = "{291, 500}";
}
);
layerId = "60CFBDE8-BC08-4808-BF41-F011F3E03A54";
paths = (
{
closed = 1;
nodes = (
"125 -228 OFFCURVE",
"130 -224 OFFCURVE",
"134 -220 CURVE",
"131 -206 OFFCURVE",
"128 -146 OFFCURVE",
"128 -106 CURVE SMOOTH",
"128 86 LINE",
"150 26 OFFCURVE",
"204 -9 OFFCURVE",
"280 -9 CURVE SMOOTH",
"415 -9 OFFCURVE",
"486 102 OFFCURVE",
"486 278 CURVE SMOOTH",
"486 356 OFFCURVE",
"472 512 OFFCURVE",
"320 512 CURVE SMOOTH",
"184 512 OFFCURVE",
"122 388 OFFCURVE",
"105 271 CURVE",
"128 300 LINE",
"128 640 LINE SMOOTH",
"129 692 OFFCURVE",
"131 709 OFFCURVE",
"134 720 CURVE",
"130 724 OFFCURVE",
"125 728 OFFCURVE",
"116 728 CURVE SMOOTH",
"104 728 OFFCURVE",
"97 720 OFFCURVE",
"97 706 CURVE SMOOTH",
"97 -206 LINE SMOOTH",
"97 -220 OFFCURVE",
"104 -228 OFFCURVE",
"116 -228 CURVE SMOOTH"
);
},
{
closed = 1;
nodes = (
"152 19 OFFCURVE",
"128 126 OFFCURVE",
"128 214 CURVE SMOOTH",
"128 370 OFFCURVE",
"203 484 OFFCURVE",
"318 484 CURVE SMOOTH",
"442 484 OFFCURVE",
"454 350 OFFCURVE",
"454 276 CURVE SMOOTH",
"454 101 OFFCURVE",
"386 19 OFFCURVE",
"277 19 CURVE SMOOTH"
);
}
);
width = 539;
},
{
anchors = (
{
name = bottom;
position = "{284, 0}";
},
{
name = top;
position = "{284, 516}";
}
);
layerId = "EBFFFCD3-BAE4-48A5-9442-B72A90AD34A8";
paths = (
{
closed = 1;
nodes = (
"183 -220 OFFCURVE",
"211 -201 OFFCURVE",
"223 -190 CURVE",
"204 -124 OFFCURVE",
"201 -41 OFFCURVE",
"201 4 CURVE SMOOTH",
"201 44 LINE",
"220 6 OFFCURVE",
"262 -14 OFFCURVE",
"320 -14 CURVE SMOOTH",
"452 -14 OFFCURVE",
"536 86 OFFCURVE",
"536 277 CURVE SMOOTH",
"536 416 OFFCURVE",
"489 531 OFFCURVE",
"356 531 CURVE SMOOTH",
"254 531 OFFCURVE",
"190 460 OFFCURVE",
"172 307 CURVE",
"196 297 LINE",
"196 458 LINE SMOOTH",
"196 558 OFFCURVE",
"200 637 OFFCURVE",
"220 703 CURVE",
"207 713 OFFCURVE",
"169 736 OFFCURVE",
"126 732 CURVE SMOOTH",
"89 729 OFFCURVE",
"65 707 OFFCURVE",
"65 662 CURVE SMOOTH",
"65 -150 LINE SMOOTH",
"65 -194 OFFCURVE",
"99 -220 OFFCURVE",
"144 -220 CURVE SMOOTH"
);
},
{
closed = 1;
nodes = (
"224 56 OFFCURVE",
"202 104 OFFCURVE",
"202 207 CURVE SMOOTH",
"202 325 OFFCURVE",
"235 458 OFFCURVE",
"314 458 CURVE SMOOTH",
"374 458 OFFCURVE",
"389 390 OFFCURVE",
"389 278 CURVE SMOOTH",
"389 137 OFFCURVE",
"360 56 OFFCURVE",
"284 56 CURVE SMOOTH"
);
}
);
width = 570;
}
);
leftKerningGroup = h;
leftMetricsKey = h;
rightKerningGroup = o;
rightMetricsKey = p;
unicode = 00FE;
},
{
glyphname = q;
layers = (
{
anchors = (
{
name = bottom;
position = "{227, 284}";
},
{
name = top;
position = "{227, -216}";
}
);
layerId = "60CFBDE8-BC08-4808-BF41-F011F3E03A54";
paths = (
{
closed = 1;
nodes = (
"435 -228 OFFCURVE",
"442 -220 OFFCURVE",
"442 -206 CURVE SMOOTH",
"442 444 LINE",
"409 484 OFFCURVE",
"341 512 OFFCURVE",
"257 512 CURVE SMOOTH",
"92 512 OFFCURVE",
"53 334 OFFCURVE",
"53 237 CURVE SMOOTH",
"53 68 OFFCURVE",
"113 -13 OFFCURVE",
"226 -13 CURVE SMOOTH",
"315 -13 OFFCURVE",
"386 54 OFFCURVE",
"411 139 CURVE",
"411 -84 LINE SMOOTH",
"411 -160 OFFCURVE",
"409 -204 OFFCURVE",
"405 -220 CURVE",
"409 -224 OFFCURVE",
"414 -228 OFFCURVE",
"423 -228 CURVE SMOOTH"
);
},
{
closed = 1;
nodes = (
"137 15 OFFCURVE",
"85 79 OFFCURVE",
"85 234 CURVE SMOOTH",
"85 298 OFFCURVE",
"101 484 OFFCURVE",
"259 484 CURVE SMOOTH",
"326 484 OFFCURVE",
"390 457 OFFCURVE",
"412 433 CURVE",
"412 274 LINE SMOOTH",
"412 196 OFFCURVE",
"368 15 OFFCURVE",
"229 15 CURVE SMOOTH"
);
}
);
width = 532;
},
{
anchors = (
{
name = bottom;
position = "{268, 50}";
},
{
name = top;
position = "{268, 390}";
}
);
layerId = "EBFFFCD3-BAE4-48A5-9442-B72A90AD34A8";
paths = (
{
closed = 1;
nodes = (
"467 -219 OFFCURVE",
"497 -191 OFFCURVE",
"497 -149 CURVE SMOOTH",
"497 465 LINE",
"452 502 OFFCURVE",
"368 531 OFFCURVE",
"276 531 CURVE SMOOTH",
"102 531 OFFCURVE",
"34 412 OFFCURVE",
"34 242 CURVE SMOOTH",
"34 57 OFFCURVE",
"106 -15 OFFCURVE",
"209 -15 CURVE SMOOTH",
"283 -15 OFFCURVE",
"337 23 OFFCURVE",
"359 86 CURVE",
"359 43 LINE SMOOTH",
"359 -17 OFFCURVE",
"363 -112 OFFCURVE",
"337 -189 CURVE",
"354 -204 OFFCURVE",
"378 -221 OFFCURVE",
"416 -220 CURVE SMOOTH"
);
},
{
closed = 1;
nodes = (
"197 57 OFFCURVE",
"182 123 OFFCURVE",
"181 239 CURVE SMOOTH",
"180 389 OFFCURVE",
"201 476 OFFCURVE",
"283 476 CURVE SMOOTH",
"314 476 OFFCURVE",
"342 466 OFFCURVE",
"360 455 CURVE",
"360 267 LINE SMOOTH",
"360 166 OFFCURVE",
"321 57 OFFCURVE",
"247 57 CURVE SMOOTH"
);
}
);
width = 550;
}
);
leftKerningGroup = o;
leftMetricsKey = o;
rightKerningGroup = g;
unicode = 0071;
},
{
glyphname = r;
layers = (
{
anchors = (
{
name = bottom;
position = "{119, 0}";
},
{
name = top;
position = "{186, 500}";
}
);
layerId = "60CFBDE8-BC08-4808-BF41-F011F3E03A54";
paths = (
{
closed = 1;
nodes = (
"129 -8 OFFCURVE",
"135 -4 OFFCURVE",
"139 0 CURVE",
"133 24 OFFCURVE",
"134 59 OFFCURVE",
"134 247 CURVE SMOOTH",
"134 433 OFFCURVE",
"207 484 OFFCURVE",
"266 484 CURVE SMOOTH",
"311 484 OFFCURVE",
"339 464 OFFCURVE",
"339 414 CURVE SMOOTH",
"339 396 OFFCURVE",
"337 377 OFFCURVE",
"319 355 CURVE",
"321 354 OFFCURVE",
"325 353 OFFCURVE",
"331 354 CURVE SMOOTH",
"347 357 OFFCURVE",
"368 380 OFFCURVE",
"368 418 CURVE SMOOTH",
"368 480 OFFCURVE",
"326 512 OFFCURVE",
"266 512 CURVE SMOOTH",
"186 512 OFFCURVE",
"128 443 OFFCURVE",
"120 319 CURVE",
"132 327 LINE",
"132 427 LINE SMOOTH",
"132 482 OFFCURVE",
"116 510 OFFCURVE",
"76 510 CURVE SMOOTH",
"52 510 OFFCURVE",
"36 501 OFFCURVE",
"36 486 CURVE SMOOTH",
"36 479 OFFCURVE",
"39 472 OFFCURVE",
"46 464 CURVE",
"53 480 OFFCURVE",
"65 482 OFFCURVE",
"73 482 CURVE SMOOTH",
"94 482 OFFCURVE",
"103 469 OFFCURVE",
"103 432 CURVE SMOOTH",
"103 14 LINE SMOOTH",
"103 0 OFFCURVE",
"109 -8 OFFCURVE",
"120 -8 CURVE SMOOTH"
);
}
);
width = 413;
},
{
anchors = (
{
name = bottom;
position = "{159, 0}";
},
{
name = top;
position = "{217, 516}";
}
);
layerId = "EBFFFCD3-BAE4-48A5-9442-B72A90AD34A8";
paths = (
{
closed = 1;
nodes = (
"199 -10 OFFCURVE",
"227 8 OFFCURVE",
"239 19 CURVE",
"216 73 OFFCURVE",
"216 109 OFFCURVE",
"216 235 CURVE SMOOTH",
"216 391 OFFCURVE",
"244 468 OFFCURVE",
"291 468 CURVE SMOOTH",
"319 468 OFFCURVE",
"332 449 OFFCURVE",
"332 416 CURVE SMOOTH",
"332 389 OFFCURVE",
"328 373 OFFCURVE",
"314 347 CURVE",
"326 333 OFFCURVE",
"349 325 OFFCURVE",
"377 325 CURVE SMOOTH",
"425 326 OFFCURVE",
"461 364 OFFCURVE",
"461 416 CURVE SMOOTH",
"461 488 OFFCURVE",
"407 531 OFFCURVE",
"331 531 CURVE SMOOTH",
"253 531 OFFCURVE",
"207 481 OFFCURVE",
"188 376 CURVE",
"200 366 LINE",
"200 392 LINE SMOOTH",
"203 486 OFFCURVE",
"161 531 OFFCURVE",
"97 531 CURVE SMOOTH",
"44 531 OFFCURVE",
"15 501 OFFCURVE",
"15 460 CURVE SMOOTH",
"15 444 OFFCURVE",
"19 431 OFFCURVE",
"28 417 CURVE",
"34 427 OFFCURVE",
"47 429 OFFCURVE",
"54 429 CURVE SMOOTH",
"71 429 OFFCURVE",
"80 414 OFFCURVE",
"80 376 CURVE SMOOTH",
"80 67 LINE SMOOTH",
"80 17 OFFCURVE",
"118 -11 OFFCURVE",
"160 -11 CURVE SMOOTH"
);
}
);
width = 473;
}
);
leftKerningGroup = n;
leftMetricsKey = n;
rightKerningGroup = r;
unicode = 0072;
},
{
glyphname = s;
layers = (
{
anchors = (
{
name = bottom;
position = "{230, 0}";
},
{
name = top;
position = "{230, 500}";
}
);
layerId = "60CFBDE8-BC08-4808-BF41-F011F3E03A54";
paths = (
{
closed = 1;
nodes = (
"378 -12 OFFCURVE",
"414 58 OFFCURVE",
"414 113 CURVE SMOOTH",
"414 205 OFFCURVE",
"319 231 OFFCURVE",
"237 269 CURVE SMOOTH",
"166 302 OFFCURVE",
"101 327 OFFCURVE",
"101 403 CURVE SMOOTH",
"101 465 OFFCURVE",
"163 485 OFFCURVE",
"229 485 CURVE SMOOTH",
"314 485 OFFCURVE",
"366 460 OFFCURVE",
"366 404 CURVE SMOOTH",
"366 396 OFFCURVE",
"365 387 OFFCURVE",
"361 378 CURVE",
"370 375 OFFCURVE",
"378 375 OFFCURVE",
"384 379 CURVE SMOOTH",
"394 385 OFFCURVE",
"397 395 OFFCURVE",
"397 410 CURVE SMOOTH",
"397 473 OFFCURVE",
"341 513 OFFCURVE",
"231 513 CURVE SMOOTH",
"144 513 OFFCURVE",
"69 482 OFFCURVE",
"69 400 CURVE SMOOTH",
"69 308 OFFCURVE",
"143 280 OFFCURVE",
"221 242 CURVE SMOOTH",
"299 204 OFFCURVE",
"382 186 OFFCURVE",
"382 111 CURVE SMOOTH",
"382 50 OFFCURVE",
"317 16 OFFCURVE",
"224 16 CURVE SMOOTH",
"137 16 OFFCURVE",
"76 49 OFFCURVE",
"76 124 CURVE SMOOTH",
"76 138 OFFCURVE",
"78 146 OFFCURVE",
"82 156 CURVE",
"56 159 OFFCURVE",
"45 145 OFFCURVE",
"45 114 CURVE SMOOTH",
"45 47 OFFCURVE",
"94 -12 OFFCURVE",
"227 -12 CURVE SMOOTH"
);
}
);
width = 460;
},
{
anchors = (
{
name = bottom;
position = "{238, 0}";
},
{
name = top;
position = "{238, 517}";
}
);
layerId = "EBFFFCD3-BAE4-48A5-9442-B72A90AD34A8";
paths = (
{
closed = 1;
nodes = (
"391 -14 OFFCURVE",
"454 68 OFFCURVE",
"454 149 CURVE SMOOTH",
"454 241 OFFCURVE",
"366 283 OFFCURVE",
"289 320 CURVE SMOOTH",
"226 351 OFFCURVE",
"168 378 OFFCURVE",
"168 431 CURVE SMOOTH",
"168 469 OFFCURVE",
"203 485 OFFCURVE",
"241 485 CURVE SMOOTH",
"282 485 OFFCURVE",
"309 464 OFFCURVE",
"320 434 CURVE SMOOTH",
"329 417 OFFCURVE",
"330 393 OFFCURVE",
"329 374 CURVE",
"340 372 OFFCURVE",
"350 371 OFFCURVE",
"364 372 CURVE SMOOTH",
"413 373 OFFCURVE",
"430 404 OFFCURVE",
"430 435 CURVE SMOOTH",
"430 500 OFFCURVE",
"353 532 OFFCURVE",
"246 532 CURVE SMOOTH",
"139 532 OFFCURVE",
"45 489 OFFCURVE",
"45 384 CURVE SMOOTH",
"45 275 OFFCURVE",
"133 234 OFFCURVE",
"210 198 CURVE SMOOTH",
"270 169 OFFCURVE",
"326 146 OFFCURVE",
"326 95 CURVE SMOOTH",
"326 53 OFFCURVE",
"288 35 OFFCURVE",
"240 35 CURVE SMOOTH",
"171 35 OFFCURVE",
"139 78 OFFCURVE",
"132 118 CURVE SMOOTH",
"127 136 OFFCURVE",
"126 153 OFFCURVE",
"130 172 CURVE",
"52 185 OFFCURVE",
"29 138 OFFCURVE",
"29 102 CURVE SMOOTH",
"29 34 OFFCURVE",
"91 -14 OFFCURVE",
"221 -14 CURVE SMOOTH"
);
}
);
width = 477;
}
);
leftKerningGroup = s;
rightKerningGroup = s;
unicode = 0073;
},
{
glyphname = germandbls;
layers = (
{
anchors = (
{
name = bottom;
position = "{269, 0}";
},
{
name = top;
position = "{269, 500}";
}
);
layerId = "60CFBDE8-BC08-4808-BF41-F011F3E03A54";
paths = (
{
closed = 1;
nodes = (
"122 -8 OFFCURVE",
"129 -2 OFFCURVE",
"131 0 CURVE",
"126 26 OFFCURVE",
"125 45 OFFCURVE",
"126 446 CURVE SMOOTH",
"126 593 OFFCURVE",
"161 700 OFFCURVE",
"295 700 CURVE SMOOTH",
"368 700 OFFCURVE",
"424 668 OFFCURVE",
"424 590 CURVE SMOOTH",
"424 464 OFFCURVE",
"278 468 OFFCURVE",
"278 367 CURVE SMOOTH",
"278 318 OFFCURVE",
"312 283 OFFCURVE",
"398 239 CURVE SMOOTH",
"449 213 OFFCURVE",
"511 185 OFFCURVE",
"511 116 CURVE SMOOTH",
"511 49 OFFCURVE",
"454 16 OFFCURVE",
"379 16 CURVE SMOOTH",
"316 16 OFFCURVE",
"258 39 OFFCURVE",
"258 114 CURVE SMOOTH",
"258 128 OFFCURVE",
"260 146 OFFCURVE",
"264 156 CURVE",
"258 157 OFFCURVE",
"254 158 OFFCURVE",
"246 156 CURVE SMOOTH",
"226 151 OFFCURVE",
"224 133 OFFCURVE",
"224 118 CURVE SMOOTH",
"224 47 OFFCURVE",
"267 -12 OFFCURVE",
"381 -12 CURVE SMOOTH",
"506 -12 OFFCURVE",
"543 58 OFFCURVE",
"543 118 CURVE SMOOTH",
"543 198 OFFCURVE",
"479 233 OFFCURVE",
"416 267 CURVE SMOOTH",
"355 300 OFFCURVE",
"310 325 OFFCURVE",
"310 371 CURVE SMOOTH",
"310 453 OFFCURVE",
"456 447 OFFCURVE",
"456 593 CURVE SMOOTH",
"456 688 OFFCURVE",
"395 728 OFFCURVE",
"300 728 CURVE SMOOTH",
"169 728 OFFCURVE",
"97 651 OFFCURVE",
"97 456 CURVE SMOOTH",
"97 14 LINE SMOOTH",
"97 -1 OFFCURVE",
"98 -8 OFFCURVE",
"110 -8 CURVE SMOOTH"
);
}
);
width = 589;
},
{
anchors = (
{
name = bottom;
position = "{295, 0}";
},
{
name = top;
position = "{295, 516}";
}
);
layerId = "EBFFFCD3-BAE4-48A5-9442-B72A90AD34A8";
paths = (
{
closed = 1;
nodes = (
"180 -11 OFFCURVE",
"214 10 OFFCURVE",
"225 19 CURVE",
"199 79 OFFCURVE",
"201 86 OFFCURVE",
"201 429 CURVE SMOOTH",
"201 553 OFFCURVE",
"201 688 OFFCURVE",
"328 688 CURVE SMOOTH",
"404 688 OFFCURVE",
"437 638 OFFCURVE",
"437 593 CURVE SMOOTH",
"437 498 OFFCURVE",
"281 475 OFFCURVE",
"281 344 CURVE SMOOTH",
"281 269 OFFCURVE",
"332 242 OFFCURVE",
"384 211 CURVE SMOOTH",
"419 190 OFFCURVE",
"452 168 OFFCURVE",
"452 118 CURVE SMOOTH",
"452 79 OFFCURVE",
"430 47 OFFCURVE",
"387 47 CURVE SMOOTH",
"345 47 OFFCURVE",
"322 78 OFFCURVE",
"322 123 CURVE SMOOTH",
"322 134 OFFCURVE",
"323 146 OFFCURVE",
"325 157 CURVE",
"319 158 OFFCURVE",
"313 159 OFFCURVE",
"305 158 CURVE SMOOTH",
"258 158 OFFCURVE",
"252 114 OFFCURVE",
"252 92 CURVE SMOOTH",
"252 31 OFFCURVE",
"298 -12 OFFCURVE",
"400 -12 CURVE SMOOTH",
"538 -12 OFFCURVE",
"594 66 OFFCURVE",
"594 149 CURVE SMOOTH",
"594 224 OFFCURVE",
"548 262 OFFCURVE",
"502 293 CURVE SMOOTH",
"458 323 OFFCURVE",
"415 344 OFFCURVE",
"415 381 CURVE SMOOTH",
"415 438 OFFCURVE",
"518 475 OFFCURVE",
"518 584 CURVE SMOOTH",
"518 667 OFFCURVE",
"458 733 OFFCURVE",
"325 733 CURVE SMOOTH",
"158 733 OFFCURVE",
"63 628 OFFCURVE",
"65 399 CURVE SMOOTH",
"66 67 LINE SMOOTH",
"66 17 OFFCURVE",
"104 -11 OFFCURVE",
"144 -11 CURVE SMOOTH"
);
}
);
width = 617;
}
);
leftMetricsKey = h;
rightMetricsKey = s;
unicode = 00DF;
},
{
glyphname = t;
layers = (
{
anchors = (
{
name = bottom;
position = "{183, 0}";
},
{
name = center;
position = "{167, 250}";
},
{
name = top;
position = "{124, 566}";
},
{
name = topright;
position = "{305, 500}";
}
);
layerId = "60CFBDE8-BC08-4808-BF41-F011F3E03A54";
paths = (
{
closed = 1;
nodes = (
"223 -12 OFFCURVE",
"254 0 OFFCURVE",
"254 22 CURVE SMOOTH",
"254 28 OFFCURVE",
"252 35 OFFCURVE",
"245 43 CURVE",
"237 26 OFFCURVE",
"214 16 OFFCURVE",
"191 16 CURVE SMOOTH",
"157 16 OFFCURVE",
"140 38 OFFCURVE",
"140 71 CURVE SMOOTH",
"141 428 LINE SMOOTH",
"141 548 OFFCURVE",
"141 609 OFFCURVE",
"147 624 CURVE",
"143 628 OFFCURVE",
"138 632 OFFCURVE",
"129 632 CURVE SMOOTH",
"117 632 OFFCURVE",
"110 624 OFFCURVE",
"110 610 CURVE SMOOTH",
"110 71 LINE SMOOTH",
"110 17 OFFCURVE",
"142 -12 OFFCURVE",
"190 -12 CURVE SMOOTH"
);
},
{
closed = 1;
nodes = (
"49 473 OFFCURVE",
"83 474 OFFCURVE",
"96 474 CURVE SMOOTH",
"258 474 LINE SMOOTH",
"264 474 OFFCURVE",
"268 480 OFFCURVE",
"269 488 CURVE SMOOTH",
"270 502 LINE",
"260 501 OFFCURVE",
"228 500 OFFCURVE",
"218 500 CURVE SMOOTH",
"48 500 LINE SMOOTH",
"42 500 OFFCURVE",
"38 494 OFFCURVE",
"37 486 CURVE SMOOTH",
"36 472 LINE"
);
}
);
width = 325;
},
{
anchors = (
{
name = bottom;
position = "{196, 0}";
},
{
name = center;
position = "{179, 258}";
},
{
name = top;
position = "{161, 600}";
},
{
name = topright;
position = "{335, 516}";
}
);
layerId = "EBFFFCD3-BAE4-48A5-9442-B72A90AD34A8";
paths = (
{
closed = 1;
nodes = (
"271 -10 OFFCURVE",
"313 20 OFFCURVE",
"313 62 CURVE SMOOTH",
"313 74 OFFCURVE",
"309 91 OFFCURVE",
"299 105 CURVE",
"294 95 OFFCURVE",
"273 92 OFFCURVE",
"260 92 CURVE SMOOTH",
"230 92 OFFCURVE",
"215 110 OFFCURVE",
"215 145 CURVE SMOOTH",
"215 426 LINE SMOOTH",
"215 508 OFFCURVE",
"218 556 OFFCURVE",
"235 620 CURVE",
"224 630 OFFCURVE",
"197 650 OFFCURVE",
"157 650 CURVE SMOOTH",
"112 650 OFFCURVE",
"78 624 OFFCURVE",
"78 580 CURVE SMOOTH",
"78 133 LINE SMOOTH",
"78 45 OFFCURVE",
"122 -10 OFFCURVE",
"203 -10 CURVE SMOOTH"
);
},
{
closed = 1;
nodes = (
"16 453 OFFCURVE",
"50 455 OFFCURVE",
"63 455 CURVE SMOOTH",
"301 455 LINE SMOOTH",
"320 455 OFFCURVE",
"335 466 OFFCURVE",
"336 488 CURVE SMOOTH",
"337 520 LINE",
"327 518 OFFCURVE",
"224 516 OFFCURVE",
"214 516 CURVE SMOOTH",
"40 516 LINE SMOOTH",
"21 516 OFFCURVE",
"5 506 OFFCURVE",
"4 484 CURVE SMOOTH",
"3 451 LINE"
);
}
);
width = 355;
}
);
leftKerningGroup = t;
rightKerningGroup = t;
unicode = 0074;
},
{
glyphname = u;
layers = (
{
anchors = (
{
name = bottom;
position = "{286, 0}";
},
{
name = ogonek;
position = "{492, 8}";
},
{
name = top;
position = "{265, 500}";
},
{
name = topright;
position = "{447, 490}";
}
);
layerId = "60CFBDE8-BC08-4808-BF41-F011F3E03A54";
paths = (
{
closed = 1;
nodes = (
"421 512 OFFCURVE",
"416 508 OFFCURVE",
"412 504 CURVE",
"418 480 OFFCURVE",
"418 445 OFFCURVE",
"418 257 CURVE SMOOTH",
"418 68 OFFCURVE",
"314 16 OFFCURVE",
"248 16 CURVE SMOOTH",
"156 16 OFFCURVE",
"119 59 OFFCURVE",
"119 206 CURVE SMOOTH",
"118 490 LINE SMOOTH",
"118 504 OFFCURVE",
"112 512 OFFCURVE",
"101 512 CURVE SMOOTH",
"92 512 OFFCURVE",
"87 508 OFFCURVE",
"83 504 CURVE",
"87 488 OFFCURVE",
"89 457 OFFCURVE",
"89 417 CURVE SMOOTH",
"90 207 LINE SMOOTH",
"91 44 OFFCURVE",
"139 -12 OFFCURVE",
"245 -12 CURVE SMOOTH",
"337 -12 OFFCURVE",
"423 63 OFFCURVE",
"431 185 CURVE",
"418 177 LINE",
"418 73 LINE SMOOTH",
"418 21 OFFCURVE",
"434 -6 OFFCURVE",
"475 -6 CURVE SMOOTH",
"499 -6 OFFCURVE",
"515 3 OFFCURVE",
"515 18 CURVE SMOOTH",
"515 25 OFFCURVE",
"512 32 OFFCURVE",
"505 40 CURVE",
"498 24 OFFCURVE",
"486 22 OFFCURVE",
"478 22 CURVE SMOOTH",
"456 22 OFFCURVE",
"448 35 OFFCURVE",
"448 72 CURVE SMOOTH",
"447 490 LINE SMOOTH",
"447 504 OFFCURVE",
"441 512 OFFCURVE",
"430 512 CURVE SMOOTH"
);
}
);
width = 551;
},
{
anchors = (
{
name = bottom;
position = "{294, 0}";
},
{
name = ogonek;
position = "{476, -21}";
},
{
name = top;
position = "{273, 516}";
},
{
name = topright;
position = "{488, 501}";
}
);
layerId = "EBFFFCD3-BAE4-48A5-9442-B72A90AD34A8";
paths = (
{
closed = 1;
nodes = (
"387 531 OFFCURVE",
"359 512 OFFCURVE",
"347 502 CURVE",
"370 447 OFFCURVE",
"370 411 OFFCURVE",
"370 282 CURVE SMOOTH",
"370 126 OFFCURVE",
"330 48 OFFCURVE",
"270 48 CURVE SMOOTH",
"215 48 OFFCURVE",
"203 103 OFFCURVE",
"203 208 CURVE SMOOTH",
"203 460 LINE SMOOTH",
"203 505 OFFCURVE",
"169 531 OFFCURVE",
"124 531 CURVE SMOOTH",
"88 531 OFFCURVE",
"63 516 OFFCURVE",
"45 501 CURVE",
"62 456 OFFCURVE",
"65 400 OFFCURVE",
"65 370 CURVE SMOOTH",
"65 186 LINE SMOOTH",
"65 40 OFFCURVE",
"116 -15 OFFCURVE",
"223 -15 CURVE SMOOTH",
"333 -15 OFFCURVE",
"387 56 OFFCURVE",
"403 176 CURVE",
"386 146 LINE",
"386 115 LINE SMOOTH",
"386 28 OFFCURVE",
"426 -14 OFFCURVE",
"489 -14 CURVE SMOOTH",
"542 -14 OFFCURVE",
"571 15 OFFCURVE",
"571 57 CURVE SMOOTH",
"571 72 OFFCURVE",
"567 85 OFFCURVE",
"558 99 CURVE",
"551 90 OFFCURVE",
"539 88 OFFCURVE",
"532 88 CURVE SMOOTH",
"515 88 OFFCURVE",
"506 102 OFFCURVE",
"506 140 CURVE SMOOTH",
"505 453 LINE SMOOTH",
"505 502 OFFCURVE",
"470 531 OFFCURVE",
"426 531 CURVE SMOOTH"
);
}
);
width = 584;
}
);
leftKerningGroup = u;
rightKerningGroup = d;
unicode = 0075;
},
{
glyphname = uhorn;
layers = (
{
anchors = (
{
name = bottom;
position = "{249, 0}";
},
{
name = ogonek;
position = "{492, 8}";
},
{
name = top;
position = "{276, 500}";
},
{
name = topright;
position = "{446, 490}";
}
);
layerId = "60CFBDE8-BC08-4808-BF41-F011F3E03A54";
paths = (
{
closed = 1;
nodes = (
"421 512 OFFCURVE",
"416 508 OFFCURVE",
"412 504 CURVE",
"418 480 OFFCURVE",
"418 445 OFFCURVE",
"418 257 CURVE SMOOTH",
"418 68 OFFCURVE",
"314 16 OFFCURVE",
"248 16 CURVE SMOOTH",
"156 16 OFFCURVE",
"120 59 OFFCURVE",
"119 206 CURVE SMOOTH",
"118 490 LINE SMOOTH",
"118 504 OFFCURVE",
"112 512 OFFCURVE",
"101 512 CURVE SMOOTH",
"92 512 OFFCURVE",
"87 508 OFFCURVE",
"83 504 CURVE",
"87 488 OFFCURVE",
"89 457 OFFCURVE",
"89 417 CURVE SMOOTH",
"90 207 LINE SMOOTH",
"91 44 OFFCURVE",
"139 -12 OFFCURVE",
"245 -12 CURVE SMOOTH",
"337 -12 OFFCURVE",
"423 63 OFFCURVE",
"431 185 CURVE",
"418 177 LINE",
"418 73 LINE SMOOTH",
"418 21 OFFCURVE",
"434 -6 OFFCURVE",
"475 -6 CURVE SMOOTH",
"499 -6 OFFCURVE",
"515 3 OFFCURVE",
"515 18 CURVE SMOOTH",
"515 25 OFFCURVE",
"512 32 OFFCURVE",
"505 40 CURVE",
"498 24 OFFCURVE",
"486 22 OFFCURVE",
"478 22 CURVE SMOOTH",
"456 22 OFFCURVE",
"448 35 OFFCURVE",
"448 72 CURVE SMOOTH",
"447 490 LINE SMOOTH",
"447 504 OFFCURVE",
"441 512 OFFCURVE",
"430 512 CURVE SMOOTH"
);
},
{
closed = 1;
nodes = (
"479 485 OFFCURVE",
"508 510 OFFCURVE",
"508 553 CURVE SMOOTH",
"508 570 OFFCURVE",
"502 595 OFFCURVE",
"485 613 CURVE",
"472 608 OFFCURVE",
"460 599 OFFCURVE",
"452 592 CURVE",
"468 573 OFFCURVE",
"470 556 OFFCURVE",
"470 547 CURVE SMOOTH",
"470 522 OFFCURVE",
"455 506 OFFCURVE",
"419 493 CURVE",
"428 470 LINE"
);
}
);
width = 551;
},
{
anchors = (
{
name = bottom;
position = "{291, 0}";
},
{
name = ogonek;
position = "{476, -21}";
},
{
name = top;
position = "{271, 516}";
},
{
name = topright;
position = "{493, 501}";
}
);
layerId = "EBFFFCD3-BAE4-48A5-9442-B72A90AD34A8";
paths = (
{
closed = 1;
nodes = (
"387 531 OFFCURVE",
"359 512 OFFCURVE",
"347 502 CURVE",
"370 447 OFFCURVE",
"370 411 OFFCURVE",
"370 282 CURVE SMOOTH",
"370 126 OFFCURVE",
"330 48 OFFCURVE",
"270 48 CURVE SMOOTH",
"215 48 OFFCURVE",
"203 103 OFFCURVE",
"203 208 CURVE SMOOTH",
"203 460 LINE SMOOTH",
"203 505 OFFCURVE",
"169 531 OFFCURVE",
"124 531 CURVE SMOOTH",
"88 531 OFFCURVE",
"63 516 OFFCURVE",
"45 501 CURVE",
"62 456 OFFCURVE",
"65 400 OFFCURVE",
"65 370 CURVE SMOOTH",
"65 186 LINE SMOOTH",
"65 40 OFFCURVE",
"116 -15 OFFCURVE",
"223 -15 CURVE SMOOTH",
"333 -15 OFFCURVE",
"387 56 OFFCURVE",
"403 176 CURVE",
"386 146 LINE",
"386 115 LINE SMOOTH",
"386 28 OFFCURVE",
"426 -14 OFFCURVE",
"489 -14 CURVE SMOOTH",
"542 -14 OFFCURVE",
"571 15 OFFCURVE",
"571 57 CURVE SMOOTH",
"571 72 OFFCURVE",
"567 85 OFFCURVE",
"558 99 CURVE",
"551 90 OFFCURVE",
"539 88 OFFCURVE",
"532 88 CURVE SMOOTH",
"515 88 OFFCURVE",
"506 102 OFFCURVE",
"506 140 CURVE SMOOTH",
"505 453 LINE SMOOTH",
"505 502 OFFCURVE",
"470 531 OFFCURVE",
"426 531 CURVE SMOOTH"
);
},
{
closed = 1;
nodes = (
"544 493 OFFCURVE",
"609 535 OFFCURVE",
"609 590 CURVE SMOOTH",
"609 624 OFFCURVE",
"593 660 OFFCURVE",
"581 673 CURVE",
"556 670 OFFCURVE",
"507 648 OFFCURVE",
"489 635 CURVE",
"500 623 OFFCURVE",
"512 600 OFFCURVE",
"512 577 CURVE SMOOTH",
"512 552 OFFCURVE",
"499 527 OFFCURVE",
"454 511 CURVE",
"471 468 LINE"
);
}
);
width = 584;
}
);
leftKerningGroup = u;
rightKerningGroup = d;
unicode = 01B0;
},
{
glyphname = v;
layers = (
{
anchors = (
{
name = bottom;
position = "{230, 0}";
},
{
name = top;
position = "{230, 500}";
}
);
layerId = "60CFBDE8-BC08-4808-BF41-F011F3E03A54";
paths = (
{
closed = 1;
nodes = (
"242 -8 OFFCURVE",
"249 -6 OFFCURVE",
"257 0 CURVE",
"439 458 LINE SMOOTH",
"442 465 OFFCURVE",
"445 475 OFFCURVE",
"445 482 CURVE SMOOTH",
"446 493 OFFCURVE",
"437 500 OFFCURVE",
"424 500 CURVE SMOOTH",
"419 500 OFFCURVE",
"415 500 OFFCURVE",
"410 498 CURVE",
"412 494 OFFCURVE",
"412 488 OFFCURVE",
"412 484 CURVE SMOOTH",
"412 478 OFFCURVE",
"409 468 OFFCURVE",
"407 463 CURVE SMOOTH",
"231 6 LINE",
"241 6 LINE",
"55 486 LINE SMOOTH",
"52 495 OFFCURVE",
"44 500 OFFCURVE",
"35 500 CURVE SMOOTH",
"28 500 OFFCURVE",
"22 498 OFFCURVE",
"15 491 CURVE",
"20 485 OFFCURVE",
"28 469 OFFCURVE",
"31 461 CURVE SMOOTH",
"210 9 LINE SMOOTH",
"214 -2 OFFCURVE",
"223 -8 OFFCURVE",
"235 -8 CURVE SMOOTH"
);
}
);
width = 464;
},
{
anchors = (
{
name = bottom;
position = "{257, 0}";
},
{
name = top;
position = "{257, 516}";
}
);
layerId = "EBFFFCD3-BAE4-48A5-9442-B72A90AD34A8";
paths = (
{
closed = 1;
nodes = (
"276 -15 OFFCURVE",
"306 -8 OFFCURVE",
"337 5 CURVE",
"486 401 LINE SMOOTH",
"497 427 OFFCURVE",
"500 454 OFFCURVE",
"500 472 CURVE SMOOTH",
"500 513 OFFCURVE",
"478 530 OFFCURVE",
"425 530 CURVE SMOOTH",
"392 530 OFFCURVE",
"373 523 OFFCURVE",
"354 515 CURVE",
"360 508 OFFCURVE",
"363 498 OFFCURVE",
"363 482 CURVE SMOOTH",
"363 466 OFFCURVE",
"360 452 OFFCURVE",
"357 436 CURVE SMOOTH",
"262 41 LINE",
"277 39 LINE",
"167 476 LINE SMOOTH",
"159 512 OFFCURVE",
"128 530 OFFCURVE",
"86 530 CURVE SMOOTH",
"43 530 OFFCURVE",
"20 513 OFFCURVE",
"8 499 CURVE",
"25 481 OFFCURVE",
"34 450 OFFCURVE",
"40 434 CURVE SMOOTH",
"173 30 LINE SMOOTH",
"184 -4 OFFCURVE",
"213 -15 OFFCURVE",
"245 -15 CURVE SMOOTH"
);
}
);
width = 514;
}
);
unicode = 0076;
},
{
glyphname = w;
layers = (
{
anchors = (
{
name = bottom;
position = "{365, 0}";
},
{
name = top;
position = "{365, 500}";
}
);
layerId = "60CFBDE8-BC08-4808-BF41-F011F3E03A54";
paths = (
{
closed = 1;
nodes = (
"216 -8 OFFCURVE",
"225 -6 OFFCURVE",
"233 0 CURVE",
"370 461 LINE",
"503 9 LINE SMOOTH",
"506 -2 OFFCURVE",
"518 -8 OFFCURVE",
"530 -8 CURVE SMOOTH",
"537 -8 OFFCURVE",
"543 -6 OFFCURVE",
"551 0 CURVE",
"703 458 LINE",
"706 465 OFFCURVE",
"709 475 OFFCURVE",
"709 482 CURVE",
"710 493 OFFCURVE",
"701 500 OFFCURVE",
"688 500 CURVE SMOOTH",
"683 500 OFFCURVE",
"679 500 OFFCURVE",
"674 498 CURVE",
"676 494 OFFCURVE",
"676 488 OFFCURVE",
"676 484 CURVE SMOOTH",
"676 478 OFFCURVE",
"673 468 OFFCURVE",
"671 463 CURVE",
"528 19 LINE",
"385 500 LINE",
"380 503 OFFCURVE",
"376 504 OFFCURVE",
"370 504 CURVE SMOOTH",
"361 504 OFFCURVE",
"351 501 OFFCURVE",
"346 498 CURVE",
"348 494 OFFCURVE",
"348 488 OFFCURVE",
"348 484 CURVE SMOOTH",
"348 478 OFFCURVE",
"345 467 OFFCURVE",
"344 463 CURVE SMOOTH",
"211 19 LINE",
"60 486 LINE SMOOTH",
"57 495 OFFCURVE",
"49 500 OFFCURVE",
"40 500 CURVE SMOOTH",
"33 500 OFFCURVE",
"27 498 OFFCURVE",
"20 491 CURVE",
"25 485 OFFCURVE",
"33 469 OFFCURVE",
"36 461 CURVE",
"185 9 LINE SMOOTH",
"189 -2 OFFCURVE",
"197 -8 OFFCURVE",
"209 -8 CURVE SMOOTH"
);
}
);
width = 733;
},
{
anchors = (
{
name = bottom;
position = "{418, 0}";
},
{
name = top;
position = "{418, 516}";
}
);
layerId = "EBFFFCD3-BAE4-48A5-9442-B72A90AD34A8";
paths = (
{
closed = 1;
nodes = (
"269 -15 OFFCURVE",
"302 -8 OFFCURVE",
"335 5 CURVE",
"419 395 LINE",
"504 30 LINE SMOOTH",
"512 -4 OFFCURVE",
"545 -15 OFFCURVE",
"576 -15 CURVE SMOOTH",
"607 -15 OFFCURVE",
"637 -8 OFFCURVE",
"669 5 CURVE",
"804 401 LINE",
"814 427 OFFCURVE",
"818 454 OFFCURVE",
"818 472 CURVE",
"818 513 OFFCURVE",
"796 530 OFFCURVE",
"743 530 CURVE SMOOTH",
"710 530 OFFCURVE",
"691 523 OFFCURVE",
"672 515 CURVE",
"677 508 OFFCURVE",
"681 498 OFFCURVE",
"681 482 CURVE SMOOTH",
"681 466 OFFCURVE",
"678 452 OFFCURVE",
"675 436 CURVE",
"600 78 LINE",
"512 479 LINE",
"502 519 OFFCURVE",
"459 530 OFFCURVE",
"419 530 CURVE SMOOTH",
"395 529 OFFCURVE",
"359 527 OFFCURVE",
"330 515 CURVE",
"336 508 OFFCURVE",
"339 498 OFFCURVE",
"339 482 CURVE SMOOTH",
"339 466 OFFCURVE",
"337 451 OFFCURVE",
"334 436 CURVE SMOOTH",
"260 78 LINE",
"171 476 LINE SMOOTH",
"163 512 OFFCURVE",
"132 530 OFFCURVE",
"90 530 CURVE SMOOTH",
"47 530 OFFCURVE",
"24 513 OFFCURVE",
"12 499 CURVE",
"29 481 OFFCURVE",
"38 450 OFFCURVE",
"44 434 CURVE",
"164 30 LINE SMOOTH",
"175 -4 OFFCURVE",
"204 -15 OFFCURVE",
"236 -15 CURVE SMOOTH"
);
}
);
width = 836;
}
);
leftKerningGroup = w;
rightKerningGroup = w;
unicode = 0077;
},
{
glyphname = x;
layers = (
{
anchors = (
{
name = bottom;
position = "{241, 0}";
},
{
name = top;
position = "{241, 500}";
}
);
layerId = "60CFBDE8-BC08-4808-BF41-F011F3E03A54";
paths = (
{
closed = 1;
nodes = (
"452 -13 OFFCURVE",
"470 6 OFFCURVE",
"470 24 CURVE SMOOTH",
"470 37 OFFCURVE",
"462 47 OFFCURVE",
"447 48 CURVE",
"451 35 OFFCURVE",
"444 16 OFFCURVE",
"421 16 CURVE SMOOTH",
"398 16 OFFCURVE",
"385 34 OFFCURVE",
"371 58 CURVE SMOOTH",
"250 267 LINE",
"143 455 LINE SMOOTH",
"127 483 OFFCURVE",
"104 512 OFFCURVE",
"66 512 CURVE SMOOTH",
"36 512 OFFCURVE",
"17 493 OFFCURVE",
"17 474 CURVE SMOOTH",
"17 462 OFFCURVE",
"25 452 OFFCURVE",
"40 451 CURVE",
"37 467 OFFCURVE",
"44 483 OFFCURVE",
"67 483 CURVE SMOOTH",
"87 483 OFFCURVE",
"99 470 OFFCURVE",
"116 441 CURVE SMOOTH",
"224 253 LINE",
"344 44 LINE SMOOTH",
"361 14 OFFCURVE",
"383 -13 OFFCURVE",
"421 -13 CURVE SMOOTH"
);
},
{
closed = 1;
nodes = (
"58 -12 OFFCURVE",
"64 -8 OFFCURVE",
"69 -1 CURVE SMOOTH",
"250 256 LINE",
"233 280 LINE",
"84 73 LINE SMOOTH",
"56 34 OFFCURVE",
"41 15 OFFCURVE",
"33 8 CURVE",
"35 -7 OFFCURVE",
"43 -12 OFFCURVE",
"51 -12 CURVE SMOOTH"
);
},
{
closed = 1;
nodes = (
"384 426 LINE SMOOTH",
"407 457 OFFCURVE",
"423 481 OFFCURVE",
"436 492 CURVE",
"433 506 OFFCURVE",
"427 512 OFFCURVE",
"418 512 CURVE SMOOTH",
"411 512 OFFCURVE",
"405 508 OFFCURVE",
"400 501 CURVE SMOOTH",
"235 273 LINE",
"252 251 LINE"
);
}
);
width = 483;
},
{
anchors = (
{
name = bottom;
position = "{261, 0}";
},
{
name = top;
position = "{261, 516}";
}
);
layerId = "EBFFFCD3-BAE4-48A5-9442-B72A90AD34A8";
paths = (
{
closed = 1;
nodes = (
"479 -15 OFFCURVE",
"516 28 OFFCURVE",
"516 70 CURVE SMOOTH",
"516 102 OFFCURVE",
"494 124 OFFCURVE",
"473 134 CURVE",
"469 120 OFFCURVE",
"454 107 OFFCURVE",
"444 107 CURVE SMOOTH",
"433 107 OFFCURVE",
"416 118 OFFCURVE",
"403 141 CURVE SMOOTH",
"310 301 LINE",
"253 409 LINE SMOOTH",
"206 499 OFFCURVE",
"187 531 OFFCURVE",
"124 531 CURVE SMOOTH",
"51 531 OFFCURVE",
"19 487 OFFCURVE",
"19 446 CURVE SMOOTH",
"19 414 OFFCURVE",
"38 393 OFFCURVE",
"61 382 CURVE",
"65 396 OFFCURVE",
"79 409 OFFCURVE",
"93 409 CURVE SMOOTH",
"105 409 OFFCURVE",
"117 398 OFFCURVE",
"131 374 CURVE SMOOTH",
"214 232 LINE",
"282 107 LINE SMOOTH",
"323 29 OFFCURVE",
"349 -15 OFFCURVE",
"414 -15 CURVE SMOOTH"
);
},
{
closed = 1;
nodes = (
"133 -14 OFFCURVE",
"154 4 OFFCURVE",
"166 26 CURVE SMOOTH",
"270 211 LINE",
"219 281 LINE",
"131 151 LINE SMOOTH",
"106 112 OFFCURVE",
"75 82 OFFCURVE",
"21 69 CURVE",
"26 7 OFFCURVE",
"60 -14 OFFCURVE",
"98 -14 CURVE SMOOTH"
);
},
{
closed = 1;
nodes = (
"396 363 LINE SMOOTH",
"422 400 OFFCURVE",
"451 433 OFFCURVE",
"506 447 CURVE",
"500 506 OFFCURVE",
"474 531 OFFCURVE",
"427 531 CURVE SMOOTH",
"388 531 OFFCURVE",
"368 512 OFFCURVE",
"356 489 CURVE SMOOTH",
"256 310 LINE",
"309 242 LINE"
);
}
);
width = 522;
}
);
unicode = 0078;
},
{
glyphname = y;
layers = (
{
anchors = (
{
name = bottom;
position = "{256, -212}";
},
{
name = top;
position = "{276, 500}";
}
);
layerId = "60CFBDE8-BC08-4808-BF41-F011F3E03A54";
paths = (
{
closed = 1;
nodes = (
"358 -240 OFFCURVE",
"449 -170 OFFCURVE",
"449 46 CURVE",
"447 490 LINE SMOOTH",
"447 504 OFFCURVE",
"441 512 OFFCURVE",
"430 512 CURVE SMOOTH",
"421 512 OFFCURVE",
"416 508 OFFCURVE",
"412 504 CURVE",
"418 481 OFFCURVE",
"418 447 OFFCURVE",
"418 267 CURVE SMOOTH",
"418 71 OFFCURVE",
"319 18 OFFCURVE",
"237 18 CURVE SMOOTH",
"155 18 OFFCURVE",
"119 70 OFFCURVE",
"119 206 CURVE SMOOTH",
"118 490 LINE SMOOTH",
"118 504 OFFCURVE",
"112 512 OFFCURVE",
"101 512 CURVE SMOOTH",
"92 512 OFFCURVE",
"87 508 OFFCURVE",
"83 504 CURVE",
"87 488 OFFCURVE",
"89 460 OFFCURVE",
"89 417 CURVE SMOOTH",
"90 207 LINE SMOOTH",
"91 46 OFFCURVE",
"143 -10 OFFCURVE",
"236 -10 CURVE SMOOTH",
"346 -10 OFFCURVE",
"422 71 OFFCURVE",
"431 195 CURVE",
"418 187 LINE",
"418 145 OFFCURVE",
"418 104 OFFCURVE",
"418 62 CURVE",
"418 -129 OFFCURVE",
"365 -212 OFFCURVE",
"233 -212 CURVE SMOOTH",
"183 -212 OFFCURVE",
"112 -195 OFFCURVE",
"112 -123 CURVE SMOOTH",
"112 -114 OFFCURVE",
"113 -90 OFFCURVE",
"132 -80 CURVE",
"128 -74 OFFCURVE",
"121 -71 OFFCURVE",
"114 -71 CURVE SMOOTH",
"94 -71 OFFCURVE",
"83 -99 OFFCURVE",
"83 -130 CURVE SMOOTH",
"83 -209 OFFCURVE",
"163 -240 OFFCURVE",
"235 -240 CURVE SMOOTH"
);
}
);
width = 536;
},
{
anchors = (
{
name = bottom;
position = "{269, -214}";
},
{
name = top;
position = "{281, 516}";
}
);
layerId = "EBFFFCD3-BAE4-48A5-9442-B72A90AD34A8";
paths = (
{
closed = 1;
nodes = (
"396 -224 OFFCURVE",
"506 -153 OFFCURVE",
"506 53 CURVE",
"505 453 LINE SMOOTH",
"505 502 OFFCURVE",
"470 531 OFFCURVE",
"426 531 CURVE SMOOTH",
"387 531 OFFCURVE",
"359 512 OFFCURVE",
"347 502 CURVE",
"370 447 OFFCURVE",
"370 412 OFFCURVE",
"370 283 CURVE SMOOTH",
"370 134 OFFCURVE",
"330 57 OFFCURVE",
"268 57 CURVE SMOOTH",
"215 57 OFFCURVE",
"203 113 OFFCURVE",
"203 216 CURVE SMOOTH",
"203 460 LINE SMOOTH",
"203 505 OFFCURVE",
"169 531 OFFCURVE",
"124 531 CURVE SMOOTH",
"88 531 OFFCURVE",
"63 516 OFFCURVE",
"45 501 CURVE",
"62 456 OFFCURVE",
"65 401 OFFCURVE",
"65 370 CURVE SMOOTH",
"65 194 LINE SMOOTH",
"65 48 OFFCURVE",
"117 -7 OFFCURVE",
"222 -7 CURVE SMOOTH",
"334 -7 OFFCURVE",
"386 66 OFFCURVE",
"403 186 CURVE",
"395 160 LINE",
"388 126 OFFCURVE",
"378 58 OFFCURVE",
"378 32 CURVE",
"378 -96 OFFCURVE",
"333 -183 OFFCURVE",
"248 -183 CURVE SMOOTH",
"202 -183 OFFCURVE",
"180 -155 OFFCURVE",
"180 -119 CURVE SMOOTH",
"180 -102 OFFCURVE",
"189 -82 OFFCURVE",
"209 -68 CURVE",
"197 -53 OFFCURVE",
"175 -45 OFFCURVE",
"147 -45 CURVE SMOOTH",
"91 -45 OFFCURVE",
"53 -75 OFFCURVE",
"53 -119 CURVE SMOOTH",
"53 -202 OFFCURVE",
"145 -224 OFFCURVE",
"245 -224 CURVE SMOOTH"
);
}
);
width = 558;
}
);
leftKerningGroup = u;
rightKerningGroup = g;
rightMetricsKey = g;
unicode = 0079;
},
{
glyphname = z;
layers = (
{
anchors = (
{
name = bottom;
position = "{239, 0}";
},
{
name = top;
position = "{239, 500}";
}
);
layerId = "60CFBDE8-BC08-4808-BF41-F011F3E03A54";
paths = (
{
closed = 1;
nodes = (
"79 0 OFFCURVE",
"116 0 OFFCURVE",
"146 0 CURVE SMOOTH",
"333 0 LINE SMOOTH",
"397 0 OFFCURVE",
"439 38 OFFCURVE",
"439 94 CURVE SMOOTH",
"439 120 OFFCURVE",
"430 164 OFFCURVE",
"395 164 CURVE SMOOTH",
"390 164 OFFCURVE",
"384 162 OFFCURVE",
"377 158 CURVE",
"395 148 OFFCURVE",
"409 124 OFFCURVE",
"409 97 CURVE SMOOTH",
"409 62 OFFCURVE",
"388 27 OFFCURVE",
"322 27 CURVE SMOOTH",
"65 27 LINE",
"70 17 LINE",
"398 448 LINE SMOOTH",
"411 466 OFFCURVE",
"413 481 OFFCURVE",
"413 497 CURVE",
"403 504 LINE",
"387 500 OFFCURVE",
"359 500 OFFCURVE",
"308 500 CURVE SMOOTH",
"144 500 LINE SMOOTH",
"80 500 OFFCURVE",
"44 463 OFFCURVE",
"44 420 CURVE SMOOTH",
"44 391 OFFCURVE",
"60 358 OFFCURVE",
"90 358 CURVE SMOOTH",
"96 358 OFFCURVE",
"102 361 OFFCURVE",
"105 366 CURVE",
"88 378 OFFCURVE",
"74 394 OFFCURVE",
"74 418 CURVE SMOOTH",
"74 445 OFFCURVE",
"93 472 OFFCURVE",
"146 472 CURVE SMOOTH",
"395 472 LINE",
"390 482 LINE",
"55 40 LINE SMOOTH",
"47 29 OFFCURVE",
"41 16 OFFCURVE",
"41 7 CURVE",
"49 -4 LINE"
);
}
);
width = 476;
},
{
anchors = (
{
name = bottom;
position = "{252.992, 0}";
},
{
name = top;
position = "{253, 518}";
}
);
layerId = "EBFFFCD3-BAE4-48A5-9442-B72A90AD34A8";
paths = (
{
closed = 1;
nodes = (
"74 0 OFFCURVE",
"110 1 OFFCURVE",
"138 0 CURVE SMOOTH",
"353 -6 LINE SMOOTH",
"446 -8 OFFCURVE",
"496 34 OFFCURVE",
"496 87 CURVE SMOOTH",
"496 113 OFFCURVE",
"479 155 OFFCURVE",
"436 176 CURVE SMOOTH",
"426 180 OFFCURVE",
"416 183 OFFCURVE",
"403 186 CURVE",
"404 173 OFFCURVE",
"401 158 OFFCURVE",
"390 146 CURVE SMOOTH",
"377 130 OFFCURVE",
"355 118 OFFCURVE",
"324 116 CURVE SMOOTH",
"130 106 LINE",
"153 79 LINE",
"437 404 LINE SMOOTH",
"463 434 OFFCURVE",
"466 456 OFFCURVE",
"466 493 CURVE",
"453 528 LINE",
"426 518 OFFCURVE",
"391 517 OFFCURVE",
"362 518 CURVE SMOOTH",
"176 525 LINE SMOOTH",
"66 529 OFFCURVE",
"23 486 OFFCURVE",
"23 432 CURVE SMOOTH",
"23 409 OFFCURVE",
"41 370 OFFCURVE",
"82 350 CURVE SMOOTH",
"92 344 OFFCURVE",
"104 341 OFFCURVE",
"116 339 CURVE",
"114 354 OFFCURVE",
"121 370 OFFCURVE",
"135 383 CURVE SMOOTH",
"148 395 OFFCURVE",
"169 406 OFFCURVE",
"194 409 CURVE SMOOTH",
"383 428 LINE",
"361 442 LINE",
"60 107 LINE SMOOTH",
"34 80 OFFCURVE",
"30 57 OFFCURVE",
"30 18 CURVE",
"46 -11 LINE"
);
}
);
width = 506;
}
);
leftKerningGroup = z;
rightKerningGroup = z;
unicode = 007A;
},
{
glyphname = a.ss01;
layers = (
{
anchors = (
{
name = bottom;
position = "{274, 0}";
},
{
name = top;
position = "{274, 500}";
}
);
layerId = "60CFBDE8-BC08-4808-BF41-F011F3E03A54";
paths = (
{
closed = 1;
nodes = (
"355 -12 OFFCURVE",
"417 112 OFFCURVE",
"434 229 CURVE",
"411 200 LINE",
"411 73 LINE SMOOTH",
"411 20 OFFCURVE",
"430 -7 OFFCURVE",
"468 -7 CURVE SMOOTH",
"492 -7 OFFCURVE",
"508 2 OFFCURVE",
"508 17 CURVE SMOOTH",
"508 24 OFFCURVE",
"505 31 OFFCURVE",
"498 39 CURVE",
"491 23 OFFCURVE",
"479 21 OFFCURVE",
"471 21 CURVE SMOOTH",
"453 21 OFFCURVE",
"441 34 OFFCURVE",
"441 71 CURVE SMOOTH",
"442 488 LINE SMOOTH",
"442 499 OFFCURVE",
"438 510 OFFCURVE",
"422 510 CURVE SMOOTH",
"415 510 OFFCURVE",
"413 508 OFFCURVE",
"409 504 CURVE",
"412 494 OFFCURVE",
"413 447 OFFCURVE",
"411 418 CURVE",
"389 478 OFFCURVE",
"334 509 OFFCURVE",
"261 509 CURVE SMOOTH",
"123 509 OFFCURVE",
"53 398 OFFCURVE",
"53 222 CURVE SMOOTH",
"53 144 OFFCURVE",
"67 -12 OFFCURVE",
"219 -12 CURVE SMOOTH"
);
},
{
closed = 1;
nodes = (
"97 16 OFFCURVE",
"85 150 OFFCURVE",
"85 225 CURVE SMOOTH",
"85 401 OFFCURVE",
"151 481 OFFCURVE",
"259 481 CURVE SMOOTH",
"387 481 OFFCURVE",
"411 368 OFFCURVE",
"411 282 CURVE SMOOTH",
"411 131 OFFCURVE",
"336 16 OFFCURVE",
"221 16 CURVE SMOOTH"
);
}
);
width = 544;
},
{
anchors = (
{
name = bottom;
position = "{294, 0}";
},
{
name = top;
position = "{294, 516}";
}
);
layerId = "EBFFFCD3-BAE4-48A5-9442-B72A90AD34A8";
paths = (
{
closed = 1;
nodes = (
"315 -14 OFFCURVE",
"379 57 OFFCURVE",
"397 209 CURVE",
"376 220 LINE",
"376 174 LINE SMOOTH",
"376 62 OFFCURVE",
"409 -9 OFFCURVE",
"487 -9 CURVE SMOOTH",
"537 -9 OFFCURVE",
"576 20 OFFCURVE",
"576 61 CURVE SMOOTH",
"576 73 OFFCURVE",
"572 90 OFFCURVE",
"563 104 CURVE",
"557 95 OFFCURVE",
"544 93 OFFCURVE",
"537 93 CURVE SMOOTH",
"515 93 OFFCURVE",
"503 110 OFFCURVE",
"503 145 CURVE SMOOTH",
"504 460 LINE SMOOTH",
"504 504 OFFCURVE",
"471 531 OFFCURVE",
"422 531 CURVE SMOOTH",
"406 531 OFFCURVE",
"390 528 OFFCURVE",
"378 517 CURVE",
"376 501 OFFCURVE",
"373 487 OFFCURVE",
"369 473 CURVE",
"350 510 OFFCURVE",
"309 530 OFFCURVE",
"249 530 CURVE SMOOTH",
"111 530 OFFCURVE",
"34 426 OFFCURVE",
"34 240 CURVE SMOOTH",
"34 92 OFFCURVE",
"85 -14 OFFCURVE",
"212 -14 CURVE SMOOTH"
);
},
{
closed = 1;
nodes = (
"199 60 OFFCURVE",
"181 120 OFFCURVE",
"181 243 CURVE SMOOTH",
"181 381 OFFCURVE",
"207 462 OFFCURVE",
"284 462 CURVE SMOOTH",
"356 462 OFFCURVE",
"366 394 OFFCURVE",
"366 323 CURVE SMOOTH",
"366 193 OFFCURVE",
"333 60 OFFCURVE",
"254 60 CURVE SMOOTH"
);
}
);
width = 592;
}
);
leftKerningGroup = o;
leftMetricsKey = d;
rightKerningGroup = d;
rightMetricsKey = d;
},
{
glyphname = fi;
layers = (
{
anchors = (
{
name = caret_1;
position = "{314, 0}";
}
);
layerId = "60CFBDE8-BC08-4808-BF41-F011F3E03A54";
paths = (
{
closed = 1;
nodes = (
"144 -8 OFFCURVE",
"149 -4 OFFCURVE",
"153 0 CURVE",
"149 16 OFFCURVE",
"147 48 OFFCURVE",
"147 87 CURVE SMOOTH",
"148 534 LINE SMOOTH",
"148 641 OFFCURVE",
"176 712 OFFCURVE",
"308 712 CURVE SMOOTH",
"375 712 OFFCURVE",
"443 694 OFFCURVE",
"443 636 CURVE SMOOTH",
"443 626 OFFCURVE",
"441 605 OFFCURVE",
"423 583 CURVE",
"425 582 OFFCURVE",
"427 582 OFFCURVE",
"429 582 CURVE SMOOTH",
"444 582 OFFCURVE",
"472 605 OFFCURVE",
"472 643 CURVE SMOOTH",
"472 708 OFFCURVE",
"393 740 OFFCURVE",
"306 740 CURVE SMOOTH",
"136 740 OFFCURVE",
"117 619 OFFCURVE",
"117 537 CURVE SMOOTH",
"118 14 LINE SMOOTH",
"118 0 OFFCURVE",
"124 -8 OFFCURVE",
"135 -8 CURVE SMOOTH"
);
},
{
closed = 1;
nodes = (
"49 473 OFFCURVE",
"83 474 OFFCURVE",
"96 474 CURVE SMOOTH",
"293 474 LINE SMOOTH",
"299 474 OFFCURVE",
"303 480 OFFCURVE",
"304 488 CURVE SMOOTH",
"305 502 LINE",
"295 501 OFFCURVE",
"263 500 OFFCURVE",
"253 500 CURVE SMOOTH",
"48 500 LINE SMOOTH",
"42 500 OFFCURVE",
"38 494 OFFCURVE",
"37 486 CURVE SMOOTH",
"36 472 LINE"
);
},
{
closed = 1;
nodes = (
"469 490 LINE SMOOTH",
"469 504 OFFCURVE",
"463 512 OFFCURVE",
"452 512 CURVE SMOOTH",
"443 512 OFFCURVE",
"438 508 OFFCURVE",
"434 504 CURVE",
"438 488 OFFCURVE",
"440 460 OFFCURVE",
"440 417 CURVE SMOOTH",
"442 14 LINE SMOOTH",
"442 0 OFFCURVE",
"448 -8 OFFCURVE",
"459 -8 CURVE SMOOTH",
"468 -8 OFFCURVE",
"473 -4 OFFCURVE",
"477 0 CURVE",
"473 16 OFFCURVE",
"471 44 OFFCURVE",
"471 87 CURVE SMOOTH"
);
}
);
width = 571;
},
{
anchors = (
{
name = caret_1;
position = "{324, 0}";
}
);
layerId = "EBFFFCD3-BAE4-48A5-9442-B72A90AD34A8";
paths = (
{
closed = 1;
nodes = (
"193 -15 OFFCURVE",
"218 0 OFFCURVE",
"236 16 CURVE",
"219 60 OFFCURVE",
"216 116 OFFCURVE",
"216 146 CURVE SMOOTH",
"216 499 LINE SMOOTH",
"216 611 OFFCURVE",
"210 701 OFFCURVE",
"315 701 CURVE SMOOTH",
"354 701 OFFCURVE",
"393 689 OFFCURVE",
"393 659 CURVE SMOOTH",
"393 642 OFFCURVE",
"391 625 OFFCURVE",
"375 609 CURVE",
"388 594 OFFCURVE",
"410 587 OFFCURVE",
"438 587 CURVE SMOOTH",
"485 587 OFFCURVE",
"522 615 OFFCURVE",
"522 653 CURVE SMOOTH",
"522 710 OFFCURVE",
"447 743 OFFCURVE",
"316 743 CURVE SMOOTH",
"133 743 OFFCURVE",
"79 647 OFFCURVE",
"79 525 CURVE SMOOTH",
"79 56 LINE SMOOTH",
"79 12 OFFCURVE",
"113 -15 OFFCURVE",
"158 -15 CURVE SMOOTH"
);
},
{
closed = 1;
nodes = (
"24 453 OFFCURVE",
"58 455 OFFCURVE",
"71 455 CURVE SMOOTH",
"282 455 LINE SMOOTH",
"301 455 OFFCURVE",
"317 466 OFFCURVE",
"317.992 488 CURVE SMOOTH",
"319 520 LINE",
"309 518 OFFCURVE",
"236 516 OFFCURVE",
"228 516 CURVE SMOOTH",
"48 516 LINE SMOOTH",
"29 516 OFFCURVE",
"13 506 OFFCURVE",
"12 484 CURVE SMOOTH",
"11 451 LINE"
);
},
{
closed = 1;
nodes = (
"525 461 LINE SMOOTH",
"525 506 OFFCURVE",
"492 532 OFFCURVE",
"447 532 CURVE SMOOTH",
"409 532 OFFCURVE",
"382 512 OFFCURVE",
"370 502 CURVE",
"387 457 OFFCURVE",
"390 410 OFFCURVE",
"390 371 CURVE SMOOTH",
"390 56 LINE SMOOTH",
"390 12 OFFCURVE",
"424 -15 OFFCURVE",
"467 -15 CURVE SMOOTH",
"506 -15 OFFCURVE",
"534 5 OFFCURVE",
"546 16 CURVE",
"528 60 OFFCURVE",
"526 107 OFFCURVE",
"526 146 CURVE SMOOTH"
);
}
);
width = 591;
}
);
leftKerningGroup = f;
leftMetricsKey = f;
rightKerningGroup = i;
rightMetricsKey = i;
unicode = FB01;
},
{
glyphname = fl;
layers = (
{
anchors = (
{
name = caret_1;
position = "{330, 0}";
}
);
layerId = "60CFBDE8-BC08-4808-BF41-F011F3E03A54";
paths = (
{
closed = 1;
nodes = (
"144 -8 OFFCURVE",
"149 -4 OFFCURVE",
"153 0 CURVE",
"149 16 OFFCURVE",
"147 48 OFFCURVE",
"147 87 CURVE SMOOTH",
"148 574 LINE SMOOTH",
"148 650 OFFCURVE",
"170 712 OFFCURVE",
"292 712 CURVE SMOOTH",
"378 712 OFFCURVE",
"442 681 OFFCURVE",
"442 578 CURVE SMOOTH",
"442 73 LINE SMOOTH",
"442 19 OFFCURVE",
"470 -10 OFFCURVE",
"512 -10 CURVE SMOOTH",
"540 -10 OFFCURVE",
"566 2 OFFCURVE",
"566 24 CURVE SMOOTH",
"566 30 OFFCURVE",
"564 37 OFFCURVE",
"557 45 CURVE",
"549 28 OFFCURVE",
"532 18 OFFCURVE",
"513 18 CURVE SMOOTH",
"486 18 OFFCURVE",
"472 38 OFFCURVE",
"472 71 CURVE SMOOTH",
"472 586 LINE SMOOTH",
"472 678 OFFCURVE",
"410 740 OFFCURVE",
"289 740 CURVE SMOOTH",
"146 740 OFFCURVE",
"117 653 OFFCURVE",
"117 577 CURVE SMOOTH",
"118 14 LINE SMOOTH",
"118 0 OFFCURVE",
"124 -8 OFFCURVE",
"135 -8 CURVE SMOOTH"
);
},
{
closed = 1;
nodes = (
"49 473 OFFCURVE",
"83 474 OFFCURVE",
"96 474 CURVE SMOOTH",
"293 474 LINE SMOOTH",
"299 474 OFFCURVE",
"303 480 OFFCURVE",
"304 488 CURVE SMOOTH",
"305 502 LINE",
"295 501 OFFCURVE",
"263 500 OFFCURVE",
"253 500 CURVE SMOOTH",
"48 500 LINE SMOOTH",
"42 500 OFFCURVE",
"38 494 OFFCURVE",
"37 486 CURVE SMOOTH",
"36 472 LINE"
);
}
);
width = 598;
},
{
anchors = (
{
name = caret_1;
position = "{344, 0}";
}
);
layerId = "EBFFFCD3-BAE4-48A5-9442-B72A90AD34A8";
paths = (
{
closed = 1;
nodes = (
"193 -15 OFFCURVE",
"218 0 OFFCURVE",
"236 16 CURVE",
"219 60 OFFCURVE",
"216 116 OFFCURVE",
"216 146 CURVE SMOOTH",
"216 507 LINE SMOOTH",
"216 612 OFFCURVE",
"210 701 OFFCURVE",
"309 701 CURVE SMOOTH",
"370 701 OFFCURVE",
"404 670 OFFCURVE",
"404 590 CURVE SMOOTH",
"404 133 LINE SMOOTH",
"404 45 OFFCURVE",
"447 -10 OFFCURVE",
"527 -10 CURVE SMOOTH",
"577 -10 OFFCURVE",
"619 20 OFFCURVE",
"619 62 CURVE SMOOTH",
"619 74 OFFCURVE",
"615 91 OFFCURVE",
"605 105 CURVE",
"599 95 OFFCURVE",
"585 92 OFFCURVE",
"576 92 CURVE SMOOTH",
"553 92 OFFCURVE",
"541 110 OFFCURVE",
"541 145 CURVE SMOOTH",
"541 596 LINE SMOOTH",
"541 688 OFFCURVE",
"461 743 OFFCURVE",
"309 743 CURVE SMOOTH",
"134 743 OFFCURVE",
"79 653 OFFCURVE",
"79 532 CURVE SMOOTH",
"79 56 LINE SMOOTH",
"79 12 OFFCURVE",
"113 -15 OFFCURVE",
"158 -15 CURVE SMOOTH"
);
},
{
closed = 1;
nodes = (
"24 453 OFFCURVE",
"58 455 OFFCURVE",
"71 455 CURVE SMOOTH",
"274 455 LINE SMOOTH",
"293 455 OFFCURVE",
"308 466 OFFCURVE",
"309 488 CURVE SMOOTH",
"310 520 LINE",
"300 518 OFFCURVE",
"236 516 OFFCURVE",
"228 516 CURVE SMOOTH",
"48 516 LINE SMOOTH",
"29 516 OFFCURVE",
"13 506 OFFCURVE",
"12 484 CURVE SMOOTH",
"11 451 LINE"
);
}
);
width = 633;
}
);
leftKerningGroup = f;
leftMetricsKey = f;
rightKerningGroup = l;
rightMetricsKey = l;
unicode = FB02;
},
{
glyphname = ordfeminine;
layers = (
{
layerId = "60CFBDE8-BC08-4808-BF41-F011F3E03A54";
paths = (
{
closed = 1;
nodes = (
"332 348 OFFCURVE",
"349 356 OFFCURVE",
"349 371 CURVE SMOOTH",
"349 375 OFFCURVE",
"348 380 OFFCURVE",
"343 385 CURVE",
"338 375 OFFCURVE",
"326 369 OFFCURVE",
"318 369 CURVE SMOOTH",
"303 369 OFFCURVE",
"294 379 OFFCURVE",
"294 403 CURVE SMOOTH",
"294 555 LINE SMOOTH",
"294 648 OFFCURVE",
"253 698 OFFCURVE",
"165 698 CURVE SMOOTH",
"96 698 OFFCURVE",
"51 673 OFFCURVE",
"51 620 CURVE SMOOTH",
"51 594 OFFCURVE",
"66 564 OFFCURVE",
"86 564 CURVE SMOOTH",
"90 564 OFFCURVE",
"98 566 OFFCURVE",
"104 575 CURVE",
"82 580 OFFCURVE",
"72 604 OFFCURVE",
"72 621 CURVE SMOOTH",
"72 667 OFFCURVE",
"123 677 OFFCURVE",
"161 677 CURVE SMOOTH",
"239 677 OFFCURVE",
"272 637 OFFCURVE",
"272 555 CURVE SMOOTH",
"272 539 LINE",
"230 542 OFFCURVE",
"181 539 OFFCURVE",
"142 529 CURVE SMOOTH",
"71 511 OFFCURVE",
"37 471 OFFCURVE",
"37 423 CURVE SMOOTH",
"37 381 OFFCURVE",
"62 347 OFFCURVE",
"116 347 CURVE SMOOTH",
"182 347 OFFCURVE",
"250 397 OFFCURVE",
"281 485 CURVE",
"272 493 LINE",
"272 404 LINE SMOOTH",
"272 371 OFFCURVE",
"285 348 OFFCURVE",
"317 348 CURVE SMOOTH"
);
},
{
closed = 1;
nodes = (
"76 367 OFFCURVE",
"60 395 OFFCURVE",
"60 425 CURVE SMOOTH",
"60 466 OFFCURVE",
"90 495 OFFCURVE",
"143 511 CURVE SMOOTH",
"177 521 OFFCURVE",
"236 525 OFFCURVE",
"272 523 CURVE",
"270 447 OFFCURVE",
"188 367 OFFCURVE",
"120 367 CURVE SMOOTH"
);
}
);
width = 358;
},
{
layerId = "EBFFFCD3-BAE4-48A5-9442-B72A90AD34A8";
paths = (
{
closed = 1;
nodes = (
"380 355 OFFCURVE",
"405 379 OFFCURVE",
"405 409 CURVE SMOOTH",
"405 418 OFFCURVE",
"403 431 OFFCURVE",
"395 441 CURVE",
"392 437 OFFCURVE",
"382 436 OFFCURVE",
"378 436 CURVE SMOOTH",
"362 436 OFFCURVE",
"354 447 OFFCURVE",
"354 470 CURVE SMOOTH",
"354 568 LINE SMOOTH",
"354 673 OFFCURVE",
"307 710 OFFCURVE",
"198 710 CURVE SMOOTH",
"103 710 OFFCURVE",
"42 680 OFFCURVE",
"42 627 CURVE SMOOTH",
"42 591 OFFCURVE",
"70 565 OFFCURVE",
"118 565 CURVE SMOOTH",
"139 565 OFFCURVE",
"160 571 OFFCURVE",
"172 582 CURVE",
"153 594 OFFCURVE",
"149 614 OFFCURVE",
"149 631 CURVE SMOOTH",
"149 662 OFFCURVE",
"166 676 OFFCURVE",
"192 676 CURVE SMOOTH",
"234 676 OFFCURVE",
"248 642 OFFCURVE",
"248 576 CURVE SMOOTH",
"248 559 LINE",
"221 557 OFFCURVE",
"189 554 OFFCURVE",
"151 545 CURVE SMOOTH",
"94 531 OFFCURVE",
"25 500 OFFCURVE",
"25 431 CURVE SMOOTH",
"25 379 OFFCURVE",
"66 354 OFFCURVE",
"120 354 CURVE SMOOTH",
"207 354 OFFCURVE",
"259 419 OFFCURVE",
"271 487 CURVE",
"270 508 LINE",
"263 481 LINE SMOOTH",
"219 405 OFFCURVE",
"285 355 OFFCURVE",
"335 355 CURVE SMOOTH"
);
},
{
closed = 1;
nodes = (
"148 422 OFFCURVE",
"138 441 OFFCURVE",
"138 460 CURVE SMOOTH",
"138 482 OFFCURVE",
"153 501 OFFCURVE",
"174 512 CURVE SMOOTH",
"196 524 OFFCURVE",
"223 525 OFFCURVE",
"250 526 CURVE",
"251 466 OFFCURVE",
"208 430 OFFCURVE",
"174 425 CURVE SMOOTH"
);
}
);
width = 409;
}
);
unicode = 00AA;
},
{
glyphname = ordmasculine;
layers = (
{
layerId = "60CFBDE8-BC08-4808-BF41-F011F3E03A54";
paths = (
{
closed = 1;
nodes = (
"269 347 OFFCURVE",
"322 412 OFFCURVE",
"322 523 CURVE SMOOTH",
"322 633 OFFCURVE",
"269 698 OFFCURVE",
"179 698 CURVE SMOOTH",
"88 698 OFFCURVE",
"36 633 OFFCURVE",
"36 523 CURVE SMOOTH",
"36 412 OFFCURVE",
"88 347 OFFCURVE",
"179 347 CURVE SMOOTH"
);
},
{
closed = 1;
nodes = (
"104 368 OFFCURVE",
"59 425 OFFCURVE",
"59 523 CURVE SMOOTH",
"59 620 OFFCURVE",
"104 677 OFFCURVE",
"179 677 CURVE SMOOTH",
"254 677 OFFCURVE",
"299 620 OFFCURVE",
"299 523 CURVE SMOOTH",
"299 425 OFFCURVE",
"254 368 OFFCURVE",
"179 368 CURVE SMOOTH"
);
}
);
width = 358;
},
{
layerId = "EBFFFCD3-BAE4-48A5-9442-B72A90AD34A8";
paths = (
{
closed = 1;
nodes = (
"314 350 OFFCURVE",
"380 417 OFFCURVE",
"380 530 CURVE SMOOTH",
"380 643 OFFCURVE",
"314 710 OFFCURVE",
"202 710 CURVE SMOOTH",
"89 710 OFFCURVE",
"24 643 OFFCURVE",
"24 530 CURVE SMOOTH",
"24 417 OFFCURVE",
"89 350 OFFCURVE",
"202 350 CURVE SMOOTH"
);
},
{
closed = 1;
nodes = (
"155 384 OFFCURVE",
"136 432 OFFCURVE",
"136 530 CURVE SMOOTH",
"136 628 OFFCURVE",
"155 675 OFFCURVE",
"203 675 CURVE SMOOTH",
"248 675 OFFCURVE",
"269 628 OFFCURVE",
"269 530 CURVE SMOOTH",
"269 432 OFFCURVE",
"248 384 OFFCURVE",
"203 384 CURVE SMOOTH"
);
}
);
width = 405;
}
);
unicode = 00BA;
},
{
glyphname = nmod;
layers = (
{
layerId = "60CFBDE8-BC08-4808-BF41-F011F3E03A54";
paths = (
{
closed = 1;
nodes = (
"91 350 OFFCURVE",
"95 352 OFFCURVE",
"98 355 CURVE",
"92 371 OFFCURVE",
"92 395 OFFCURVE",
"94 521 CURVE SMOOTH",
"94 644 OFFCURVE",
"164 677 OFFCURVE",
"208 677 CURVE SMOOTH",
"271 677 OFFCURVE",
"296 637 OFFCURVE",
"296 555 CURVE SMOOTH",
"296 365 LINE SMOOTH",
"296 355 OFFCURVE",
"302 350 OFFCURVE",
"311 350 CURVE SMOOTH",
"317 350 OFFCURVE",
"320 352 OFFCURVE",
"323 355 CURVE",
"320 366 OFFCURVE",
"318 387 OFFCURVE",
"318 413 CURVE SMOOTH",
"318 554 LINE SMOOTH",
"318 648 OFFCURVE",
"284 698 OFFCURVE",
"210 698 CURVE SMOOTH",
"147 698 OFFCURVE",
"88 649 OFFCURVE",
"83 569 CURVE",
"92 574 LINE",
"92 644 LINE SMOOTH",
"92 679 OFFCURVE",
"81 697 OFFCURVE",
"54 697 CURVE SMOOTH",
"38 697 OFFCURVE",
"27 691 OFFCURVE",
"27 681 CURVE SMOOTH",
"27 676 OFFCURVE",
"29 671 OFFCURVE",
"34 666 CURVE",
"38 677 OFFCURVE",
"46 678 OFFCURVE",
"52 678 CURVE SMOOTH",
"66 678 OFFCURVE",
"72 669 OFFCURVE",
"72 645 CURVE SMOOTH",
"72 365 LINE SMOOTH",
"72 355 OFFCURVE",
"76 350 OFFCURVE",
"84 350 CURVE SMOOTH"
);
}
);
width = 384;
},
{
layerId = "EBFFFCD3-BAE4-48A5-9442-B72A90AD34A8";
paths = (
{
closed = 1;
nodes = (
"147 350 OFFCURVE",
"169 364 OFFCURVE",
"177 373 CURVE",
"159 415 OFFCURVE",
"159 439 OFFCURVE",
"159 510 CURVE SMOOTH",
"159 602 OFFCURVE",
"187 656 OFFCURVE",
"230 656 CURVE SMOOTH",
"270 656 OFFCURVE",
"277 621 OFFCURVE",
"277 563 CURVE SMOOTH",
"277 405 LINE SMOOTH",
"277 371 OFFCURVE",
"302 350 OFFCURVE",
"338 350 CURVE SMOOTH",
"362 350 OFFCURVE",
"382 360 OFFCURVE",
"397 374 CURVE",
"384 409 OFFCURVE",
"381 450 OFFCURVE",
"381 467 CURVE SMOOTH",
"381 582 LINE SMOOTH",
"381 668 OFFCURVE",
"344 710 OFFCURVE",
"265 710 CURVE SMOOTH",
"185 710 OFFCURVE",
"147 663 OFFCURVE",
"135 585 CURVE",
"148 587 LINE",
"148 615 LINE SMOOTH",
"148 679 OFFCURVE",
"118 709 OFFCURVE",
"72 709 CURVE SMOOTH",
"32 709 OFFCURVE",
"11 686 OFFCURVE",
"11 654 CURVE SMOOTH",
"11 641 OFFCURVE",
"14 631 OFFCURVE",
"20 622 CURVE",
"25 627 OFFCURVE",
"34 628 OFFCURVE",
"38 628 CURVE SMOOTH",
"51 628 OFFCURVE",
"57 618 OFFCURVE",
"57 593 CURVE SMOOTH",
"58 411 LINE SMOOTH",
"58 373 OFFCURVE",
"84 350 OFFCURVE",
"118 350 CURVE SMOOTH"
);
}
);
width = 424;
}
);
unicode = 207F;
},
{
glyphname = Alpha;
layers = (
{
anchors = (
{
name = bottom;
position = "{287, 0}";
},
{
name = ogonek;
position = "{521, -4}";
},
{
name = top;
position = "{280, 688}";
},
{
name = topleft;
position = "{187, 688}";
}
);
layerId = "60CFBDE8-BC08-4808-BF41-F011F3E03A54";
paths = (
{
closed = 1;
nodes = (
"275 700 OFFCURVE",
"268 698 OFFCURVE",
"260 692 CURVE",
"33 34 LINE SMOOTH",
"31 27 OFFCURVE",
"27 17 OFFCURVE",
"27 10 CURVE SMOOTH",
"26 -1 OFFCURVE",
"34 -8 OFFCURVE",
"45 -8 CURVE SMOOTH",
"51 -8 OFFCURVE",
"55 -8 OFFCURVE",
"61 -6 CURVE",
"59 -2 OFFCURVE",
"59 4 OFFCURVE",
"59 8 CURVE SMOOTH",
"59 14 OFFCURVE",
"62 24 OFFCURVE",
"64 29 CURVE SMOOTH",
"287 686 LINE",
"275 686 LINE",
"508 6 LINE SMOOTH",
"511 -3 OFFCURVE",
"520 -8 OFFCURVE",
"530 -8 CURVE SMOOTH",
"536 -8 OFFCURVE",
"541 -6 OFFCURVE",
"547 1 CURVE",
"542 7 OFFCURVE",
"536 18 OFFCURVE",
"531 31 CURVE SMOOTH",
"307 683 LINE SMOOTH",
"303 694 OFFCURVE",
"294 700 OFFCURVE",
"282 700 CURVE SMOOTH"
);
},
{
closed = 1;
nodes = (
"130 234 LINE",
"435 234 LINE",
"435 260 LINE",
"130 260 LINE"
);
}
);
width = 562;
},
{
anchors = (
{
name = bottom;
position = "{342, 0}";
},
{
name = ogonek;
position = "{571, -13}";
},
{
name = top;
position = "{340, 698}";
},
{
name = topleft;
position = "{169, 698}";
}
);
layerId = "EBFFFCD3-BAE4-48A5-9442-B72A90AD34A8";
paths = (
{
closed = 1;
nodes = (
"324 713 OFFCURVE",
"285 707 OFFCURVE",
"245 694 CURVE",
"51 115 LINE SMOOTH",
"42 87 OFFCURVE",
"37 61 OFFCURVE",
"37 44 CURVE SMOOTH",
"37 3 OFFCURVE",
"61 -14 OFFCURVE",
"115 -14 CURVE SMOOTH",
"150 -14 OFFCURVE",
"171 -7 OFFCURVE",
"191 1 CURVE",
"184 8 OFFCURVE",
"180 18 OFFCURVE",
"180 34 CURVE SMOOTH",
"180 49 OFFCURVE",
"183 64 OFFCURVE",
"187 80 CURVE SMOOTH",
"331 657 LINE",
"317 660 LINE",
"479 40 LINE SMOOTH",
"487 4 OFFCURVE",
"520 -14 OFFCURVE",
"563 -14 CURVE SMOOTH",
"609 -14 OFFCURVE",
"633 3 OFFCURVE",
"645 17 CURVE",
"628 35 OFFCURVE",
"617 65 OFFCURVE",
"612 82 CURVE SMOOTH",
"438 668 LINE SMOOTH",
"428 704 OFFCURVE",
"396 713 OFFCURVE",
"363 713 CURVE SMOOTH"
);
},
{
closed = 1;
nodes = (
"181 203 LINE",
"513 203 LINE",
"513 277 LINE",
"181 277 LINE"
);
}
);
width = 648;
}
);
leftKerningGroup = Alpha;
leftMetricsKey = A;
rightKerningGroup = Alpha;
rightMetricsKey = A;
unicode = 0391;
},
